<svg xmlns="http://www.w3.org/2000/svg" xmlns:xlink="http://www.w3.org/1999/xlink" contentStyleType="text/css" data-diagram-type="CLASS" height="942.5px" preserveAspectRatio="none" style="width:412px;height:942px;" version="1.1" viewBox="0 0 412 942" width="412.5px" zoomAndPan="magnify"><defs><linearGradient id="g11uyydc21zufe0" x1="50%" x2="50%" y1="0%" y2="100%"><stop offset="0%" stop-color="#7C9AB9"/><stop offset="100%" stop-color="#304D6D"/></linearGradient><linearGradient id="g11uyydc21zufe1" x1="50%" x2="50%" y1="0%" y2="100%"><stop offset="0%" stop-color="#7C9AB9"/><stop offset="100%" stop-color="#446E9B"/></linearGradient></defs><g><!--class clusters--><g class="entity" data-entity="clusters" data-source-line="3" data-uid="ent0002" id="entity_clusters"><rect fill="url(#g11uyydc21zufe0)" height="80.0883" rx="3.3333" ry="3.3333" style="stroke:#304D6D;stroke-width:0.8333;" width="68.9616" x="145.4417" y="115.05"/><rect fill="url(#g11uyydc21zufe1)" height="27.8072" rx="3.3333" ry="3.3333" style="stroke:url(#g11uyydc21zufe1);stroke-width:0.8333;" width="68.9616" x="145.4417" y="115.05"/><rect fill="url(#g11uyydc21zufe1)" height="3.3333" style="stroke:url(#g11uyydc21zufe1);stroke-width:0.8333;" width="68.9616" x="145.4417" y="139.5239"/><rect fill="none" height="80.0883" rx="3.3333" ry="3.3333" style="stroke:#304D6D;stroke-width:0.8333;" width="68.9616" x="145.4417" y="115.05"/><ellipse cx="157.1083" cy="128.9536" fill="#B8B8B8" rx="8.3333" ry="8.3333" style="stroke:#6B6B6B;stroke-width:0.8333;"/><path d="M158.6367,132.4936 Q158.2949,132.6694 157.9189,132.7573 Q157.5429,132.8452 157.1279,132.8452 Q155.6533,132.8452 154.8769,131.8735 Q154.1005,130.9018 154.1005,129.0659 Q154.1005,127.2251 154.8769,126.2534 Q155.6533,125.2817 157.1279,125.2817 Q157.5429,125.2817 157.9238,125.3696 Q158.3046,125.4575 158.6367,125.6333 L158.6367,127.2349 Q158.2656,126.8931 157.9164,126.7344 Q157.5673,126.5757 157.1962,126.5757 Q156.4052,126.5757 156.0024,127.2031 Q155.5995,127.8306 155.5995,129.0659 Q155.5995,130.2964 156.0024,130.9238 Q156.4052,131.5513 157.1962,131.5513 Q157.5673,131.5513 157.9164,131.3926 Q158.2656,131.2339 158.6367,130.8921 Z " fill="#FFFFFF"/><text fill="#EEEEEE" font-family="'Verdana'" font-size="9.1667" lengthAdjust="spacing" textLength="35.6283" x="172.1083" y="132.5992">clusters</text><line style="stroke:#304D6D;stroke-width:0.8333;" x1="146.275" x2="213.5699" y1="142.8572" y2="142.8572"/><text fill="#EEEEEE" font-family="'Verdana'" font-size="9.1667" lengthAdjust="spacing" textLength="25.6828" x="154.6083" y="159.5731">name</text><text fill="#EEEEEE" font-family="'Verdana'" font-size="9.1667" lengthAdjust="spacing" textLength="37.7498" x="154.6083" y="179.047">nats_url</text><line style="stroke:#304D6D;stroke-width:0.8333;" x1="146.275" x2="213.5699" y1="188.4716" y2="188.4716"/></g><!--class cluster_nodes--><g class="entity" data-entity="cluster_nodes" data-source-line="3" data-uid="ent0003" id="entity_cluster_nodes"><rect fill="url(#g11uyydc21zufe0)" height="41.1405" rx="3.3333" ry="3.3333" style="stroke:#304D6D;stroke-width:0.8333;" width="97.3254" x="131.2583" y="264.6083"/><rect fill="url(#g11uyydc21zufe1)" height="27.8072" rx="3.3333" ry="3.3333" style="stroke:url(#g11uyydc21zufe1);stroke-width:0.8333;" width="97.3254" x="131.2583" y="264.6083"/><rect fill="url(#g11uyydc21zufe1)" height="3.3333" style="stroke:url(#g11uyydc21zufe1);stroke-width:0.8333;" width="97.3254" x="131.2583" y="289.0822"/><rect fill="none" height="41.1405" rx="3.3333" ry="3.3333" style="stroke:#304D6D;stroke-width:0.8333;" width="97.3254" x="131.2583" y="264.6083"/><ellipse cx="142.925" cy="278.5119" fill="#B8B8B8" rx="8.3333" ry="8.3333" style="stroke:#6B6B6B;stroke-width:0.8333;"/><path d="M144.4533,282.052 Q144.1115,282.2278 143.7355,282.3156 Q143.3596,282.4035 142.9445,282.4035 Q141.4699,282.4035 140.6936,281.4319 Q139.9172,280.4602 139.9172,278.6242 Q139.9172,276.7834 140.6936,275.8117 Q141.4699,274.8401 142.9445,274.8401 Q143.3596,274.8401 143.7404,274.928 Q144.1213,275.0158 144.4533,275.1916 L144.4533,276.7932 Q144.0822,276.4514 143.7331,276.2927 Q143.384,276.134 143.0129,276.134 Q142.2219,276.134 141.819,276.7615 Q141.4162,277.3889 141.4162,278.6242 Q141.4162,279.8547 141.819,280.4822 Q142.2219,281.1096 143.0129,281.1096 Q143.384,281.1096 143.7331,280.9509 Q144.0822,280.7922 144.4533,280.4504 Z " fill="#FFFFFF"/><text fill="#EEEEEE" font-family="'Verdana'" font-size="9.1667" lengthAdjust="spacing" textLength="63.9921" x="157.925" y="282.1576">cluster_nodes</text><line style="stroke:#304D6D;stroke-width:0.8333;" x1="132.0917" x2="227.7504" y1="292.4155" y2="292.4155"/><line style="stroke:#304D6D;stroke-width:0.8333;" x1="132.0917" x2="227.7504" y1="299.0822" y2="299.0822"/></g><!--class nodes--><g class="entity" data-entity="nodes" data-source-line="4" data-uid="ent0005" id="entity_nodes"><rect fill="url(#g11uyydc21zufe0)" height="99.5622" rx="3.3333" ry="3.3333" style="stroke:#304D6D;stroke-width:0.8333;" width="60.6453" x="42.1" y="105.3083"/><rect fill="url(#g11uyydc21zufe1)" height="27.8072" rx="3.3333" ry="3.3333" style="stroke:url(#g11uyydc21zufe1);stroke-width:0.8333;" width="60.6453" x="42.1" y="105.3083"/><rect fill="url(#g11uyydc21zufe1)" height="3.3333" style="stroke:url(#g11uyydc21zufe1);stroke-width:0.8333;" width="60.6453" x="42.1" y="129.7822"/><rect fill="none" height="99.5622" rx="3.3333" ry="3.3333" style="stroke:#304D6D;stroke-width:0.8333;" width="60.6453" x="42.1" y="105.3083"/><ellipse cx="53.7667" cy="119.2119" fill="#B8B8B8" rx="8.3333" ry="8.3333" style="stroke:#6B6B6B;stroke-width:0.8333;"/><path d="M55.295,122.752 Q54.9532,122.9278 54.5772,123.0156 Q54.2012,123.1035 53.7862,123.1035 Q52.3116,123.1035 51.5352,122.1319 Q50.7589,121.1602 50.7589,119.3242 Q50.7589,117.4834 51.5352,116.5117 Q52.3116,115.5401 53.7862,115.5401 Q54.2012,115.5401 54.5821,115.628 Q54.963,115.7158 55.295,115.8916 L55.295,117.4932 Q54.9239,117.1514 54.5748,116.9927 Q54.2257,116.834 53.8546,116.834 Q53.0635,116.834 52.6607,117.4615 Q52.2579,118.0889 52.2579,119.3242 Q52.2579,120.5547 52.6607,121.1822 Q53.0635,121.8096 53.8546,121.8096 Q54.2257,121.8096 54.5748,121.6509 Q54.9239,121.4922 55.295,121.1504 Z " fill="#FFFFFF"/><text fill="#EEEEEE" font-family="'Verdana'" font-size="9.1667" lengthAdjust="spacing" textLength="27.312" x="68.7667" y="122.8576">nodes</text><line style="stroke:#304D6D;stroke-width:0.8333;" x1="42.9333" x2="101.912" y1="133.1155" y2="133.1155"/><text fill="#EEEEEE" font-family="'Verdana'" font-size="9.1667" lengthAdjust="spacing" textLength="8.2267" x="51.2667" y="149.8314">id</text><text fill="#EEEEEE" font-family="'Verdana'" font-size="9.1667" lengthAdjust="spacing" textLength="20.2087" x="51.2667" y="169.3053">type</text><text fill="#EEEEEE" font-family="'Verdana'" font-size="9.1667" lengthAdjust="spacing" textLength="21.641" x="51.2667" y="188.7792">zone</text><line style="stroke:#304D6D;stroke-width:0.8333;" x1="42.9333" x2="101.912" y1="198.2038" y2="198.2038"/></g><!--class node_labels--><g class="entity" data-entity="node_labels" data-source-line="4" data-uid="ent0006" id="entity_node_labels"><rect fill="url(#g11uyydc21zufe0)" height="60.6144" rx="3.3333" ry="3.3333" style="stroke:#304D6D;stroke-width:0.8333;" width="88.1812" x="14.1667" y="254.875"/><rect fill="url(#g11uyydc21zufe1)" height="27.8072" rx="3.3333" ry="3.3333" style="stroke:url(#g11uyydc21zufe1);stroke-width:0.8333;" width="88.1812" x="14.1667" y="254.875"/><rect fill="url(#g11uyydc21zufe1)" height="3.3333" style="stroke:url(#g11uyydc21zufe1);stroke-width:0.8333;" width="88.1812" x="14.1667" y="279.3489"/><rect fill="none" height="60.6144" rx="3.3333" ry="3.3333" style="stroke:#304D6D;stroke-width:0.8333;" width="88.1812" x="14.1667" y="254.875"/><ellipse cx="25.8333" cy="268.7786" fill="#B8B8B8" rx="8.3333" ry="8.3333" style="stroke:#6B6B6B;stroke-width:0.8333;"/><path d="M27.3617,272.3186 Q27.0199,272.4944 26.6439,272.5823 Q26.2679,272.6702 25.8529,272.6702 Q24.3783,272.6702 23.6019,271.6985 Q22.8255,270.7268 22.8255,268.8909 Q22.8255,267.0501 23.6019,266.0784 Q24.3783,265.1067 25.8529,265.1067 Q26.2679,265.1067 26.6488,265.1946 Q27.0296,265.2825 27.3617,265.4583 L27.3617,267.0599 Q26.9906,266.7181 26.6414,266.5594 Q26.2923,266.4007 25.9212,266.4007 Q25.1302,266.4007 24.7274,267.0281 Q24.3245,267.6556 24.3245,268.8909 Q24.3245,270.1214 24.7274,270.7488 Q25.1302,271.3763 25.9212,271.3763 Q26.2923,271.3763 26.6414,271.2176 Q26.9906,271.0589 27.3617,270.7171 Z " fill="#FFFFFF"/><text fill="#EEEEEE" font-family="'Verdana'" font-size="9.1667" lengthAdjust="spacing" textLength="54.8478" x="40.8333" y="272.4242">node_labels</text><line style="stroke:#304D6D;stroke-width:0.8333;" x1="15" x2="101.5145" y1="282.6822" y2="282.6822"/><text fill="#EEEEEE" font-family="'Verdana'" font-size="9.1667" lengthAdjust="spacing" textLength="21.7082" x="23.3333" y="299.3981">label</text><line style="stroke:#304D6D;stroke-width:0.8333;" x1="15" x2="101.5145" y1="308.8228" y2="308.8228"/></g><!--class cluster_node--><g class="entity" data-entity="cluster_node" data-source-line="5" data-uid="ent0008" id="entity_cluster_node"><rect fill="url(#g11uyydc21zufe0)" height="41.1405" rx="3.3333" ry="3.3333" style="stroke:#304D6D;stroke-width:0.8333;" width="92.5496" x="57.8167" y="14.1667"/><rect fill="url(#g11uyydc21zufe1)" height="27.8072" rx="3.3333" ry="3.3333" style="stroke:url(#g11uyydc21zufe1);stroke-width:0.8333;" width="92.5496" x="57.8167" y="14.1667"/><rect fill="url(#g11uyydc21zufe1)" height="3.3333" style="stroke:url(#g11uyydc21zufe1);stroke-width:0.8333;" width="92.5496" x="57.8167" y="38.6405"/><rect fill="none" height="41.1405" rx="3.3333" ry="3.3333" style="stroke:#304D6D;stroke-width:0.8333;" width="92.5496" x="57.8167" y="14.1667"/><ellipse cx="69.4833" cy="28.0703" fill="#B8B8B8" rx="8.3333" ry="8.3333" style="stroke:#6B6B6B;stroke-width:0.8333;"/><path d="M71.0117,31.6103 Q70.6699,31.7861 70.2939,31.874 Q69.9179,31.9619 69.5029,31.9619 Q68.0283,31.9619 67.2519,30.9902 Q66.4755,30.0185 66.4755,28.1826 Q66.4755,26.3418 67.2519,25.3701 Q68.0283,24.3984 69.5029,24.3984 Q69.9179,24.3984 70.2988,24.4863 Q70.6796,24.5742 71.0117,24.75 L71.0117,26.3515 Q70.6406,26.0097 70.2914,25.851 Q69.9423,25.6923 69.5712,25.6923 Q68.7802,25.6923 68.3774,26.3198 Q67.9745,26.9472 67.9745,28.1826 Q67.9745,29.413 68.3774,30.0405 Q68.7802,30.6679 69.5712,30.6679 Q69.9423,30.6679 70.2914,30.5092 Q70.6406,30.3505 71.0117,30.0087 Z " fill="#FFFFFF"/><text fill="#EEEEEE" font-family="'Verdana'" font-size="9.1667" lengthAdjust="spacing" textLength="59.2163" x="84.4833" y="31.7159">cluster_node</text><line style="stroke:#304D6D;stroke-width:0.8333;" x1="58.65" x2="149.533" y1="41.9739" y2="41.9739"/><line style="stroke:#304D6D;stroke-width:0.8333;" x1="58.65" x2="149.533" y1="48.6405" y2="48.6405"/></g><!--class capability--><g class="entity" data-entity="capability" data-source-line="7" data-uid="ent0011" id="entity_capability"><rect fill="url(#g11uyydc21zufe0)" height="138.5099" rx="3.3333" ry="3.3333" style="stroke:#304D6D;stroke-width:0.8333;" width="77.1257" x="208.8583" y="365.4833"/><rect fill="url(#g11uyydc21zufe1)" height="27.8072" rx="3.3333" ry="3.3333" style="stroke:url(#g11uyydc21zufe1);stroke-width:0.8333;" width="77.1257" x="208.8583" y="365.4833"/><rect fill="url(#g11uyydc21zufe1)" height="3.3333" style="stroke:url(#g11uyydc21zufe1);stroke-width:0.8333;" width="77.1257" x="208.8583" y="389.9572"/><rect fill="none" height="138.5099" rx="3.3333" ry="3.3333" style="stroke:#304D6D;stroke-width:0.8333;" width="77.1257" x="208.8583" y="365.4833"/><ellipse cx="220.525" cy="379.3869" fill="#B8B8B8" rx="8.3333" ry="8.3333" style="stroke:#6B6B6B;stroke-width:0.8333;"/><path d="M222.0533,382.927 Q221.7115,383.1028 221.3355,383.1906 Q220.9596,383.2785 220.5445,383.2785 Q219.0699,383.2785 218.2936,382.3069 Q217.5172,381.3352 217.5172,379.4992 Q217.5172,377.6584 218.2936,376.6867 Q219.0699,375.7151 220.5445,375.7151 Q220.9596,375.7151 221.3404,375.803 Q221.7213,375.8908 222.0533,376.0666 L222.0533,377.6682 Q221.6822,377.3264 221.3331,377.1677 Q220.984,377.009 220.6129,377.009 Q219.8219,377.009 219.419,377.6365 Q219.0162,378.2639 219.0162,379.4992 Q219.0162,380.7297 219.419,381.3572 Q219.8219,381.9846 220.6129,381.9846 Q220.984,381.9846 221.3331,381.8259 Q221.6822,381.6672 222.0533,381.3254 Z " fill="#FFFFFF"/><text fill="#EEEEEE" font-family="'Verdana'" font-size="9.1667" lengthAdjust="spacing" textLength="43.7923" x="235.525" y="383.0326">capability</text><line style="stroke:#304D6D;stroke-width:0.8333;" x1="209.6917" x2="285.1507" y1="393.2905" y2="393.2905"/><text fill="#EEEEEE" font-family="'Verdana'" font-size="9.1667" lengthAdjust="spacing" textLength="8.2267" x="218.025" y="410.0064">id</text><text fill="#EEEEEE" font-family="'Verdana'" font-size="9.1667" lengthAdjust="spacing" textLength="28.1087" x="218.025" y="429.4803">image</text><text fill="#EEEEEE" font-family="'Verdana'" font-size="9.1667" lengthAdjust="spacing" textLength="25.6828" x="218.025" y="448.9542">name</text><text fill="#EEEEEE" font-family="'Verdana'" font-size="9.1667" lengthAdjust="spacing" textLength="35.1717" x="218.025" y="468.4281">replicas</text><text fill="#EEEEEE" font-family="'Verdana'" font-size="9.1667" lengthAdjust="spacing" textLength="39.8088" x="218.025" y="487.902">manifest</text><line style="stroke:#304D6D;stroke-width:0.8333;" x1="209.6917" x2="285.1507" y1="497.3266" y2="497.3266"/></g><!--class traits--><g class="entity" data-entity="traits" data-source-line="7" data-uid="ent0012" id="entity_traits"><rect fill="url(#g11uyydc21zufe0)" height="41.1405" rx="3.3333" ry="3.3333" style="stroke:#304D6D;stroke-width:0.8333;" width="57.266" x="273.7917" y="553.9917"/><rect fill="url(#g11uyydc21zufe1)" height="27.8072" rx="3.3333" ry="3.3333" style="stroke:url(#g11uyydc21zufe1);stroke-width:0.8333;" width="57.266" x="273.7917" y="553.9917"/><rect fill="url(#g11uyydc21zufe1)" height="3.3333" style="stroke:url(#g11uyydc21zufe1);stroke-width:0.8333;" width="57.266" x="273.7917" y="578.4655"/><rect fill="none" height="41.1405" rx="3.3333" ry="3.3333" style="stroke:#304D6D;stroke-width:0.8333;" width="57.266" x="273.7917" y="553.9917"/><ellipse cx="285.4583" cy="567.8953" fill="#B8B8B8" rx="8.3333" ry="8.3333" style="stroke:#6B6B6B;stroke-width:0.8333;"/><path d="M286.9867,571.4353 Q286.6449,571.6111 286.2689,571.699 Q285.8929,571.7869 285.4779,571.7869 Q284.0033,571.7869 283.2269,570.8152 Q282.4505,569.8435 282.4505,568.0076 Q282.4505,566.1668 283.2269,565.1951 Q284.0033,564.2234 285.4779,564.2234 Q285.8929,564.2234 286.2738,564.3113 Q286.6546,564.3992 286.9867,564.575 L286.9867,566.1765 Q286.6156,565.8347 286.2664,565.676 Q285.9173,565.5173 285.5462,565.5173 Q284.7552,565.5173 284.3524,566.1448 Q283.9495,566.7722 283.9495,568.0076 Q283.9495,569.238 284.3524,569.8655 Q284.7552,570.4929 285.5462,570.4929 Q285.9173,570.4929 286.2664,570.3342 Q286.6156,570.1755 286.9867,569.8337 Z " fill="#FFFFFF"/><text fill="#EEEEEE" font-family="'Verdana'" font-size="9.1667" lengthAdjust="spacing" textLength="23.9327" x="300.4583" y="571.5409">traits</text><line style="stroke:#304D6D;stroke-width:0.8333;" x1="274.625" x2="330.2244" y1="581.7989" y2="581.7989"/><line style="stroke:#304D6D;stroke-width:0.8333;" x1="274.625" x2="330.2244" y1="588.4655" y2="588.4655"/></g><!--class component--><g class="entity" data-entity="component" data-source-line="8" data-uid="ent0014" id="entity_component"><rect fill="url(#g11uyydc21zufe0)" height="138.5099" rx="3.3333" ry="3.3333" style="stroke:#304D6D;stroke-width:0.8333;" width="84.5378" x="315.1583" y="365.4833"/><rect fill="url(#g11uyydc21zufe1)" height="27.8072" rx="3.3333" ry="3.3333" style="stroke:url(#g11uyydc21zufe1);stroke-width:0.8333;" width="84.5378" x="315.1583" y="365.4833"/><rect fill="url(#g11uyydc21zufe1)" height="3.3333" style="stroke:url(#g11uyydc21zufe1);stroke-width:0.8333;" width="84.5378" x="315.1583" y="389.9572"/><rect fill="none" height="138.5099" rx="3.3333" ry="3.3333" style="stroke:#304D6D;stroke-width:0.8333;" width="84.5378" x="315.1583" y="365.4833"/><ellipse cx="326.825" cy="379.3869" fill="#B8B8B8" rx="8.3333" ry="8.3333" style="stroke:#6B6B6B;stroke-width:0.8333;"/><path d="M328.3533,382.927 Q328.0115,383.1028 327.6355,383.1906 Q327.2596,383.2785 326.8445,383.2785 Q325.3699,383.2785 324.5936,382.3069 Q323.8172,381.3352 323.8172,379.4992 Q323.8172,377.6584 324.5936,376.6867 Q325.3699,375.7151 326.8445,375.7151 Q327.2596,375.7151 327.6404,375.803 Q328.0213,375.8908 328.3533,376.0666 L328.3533,377.6682 Q327.9822,377.3264 327.6331,377.1677 Q327.284,377.009 326.9129,377.009 Q326.1219,377.009 325.719,377.6365 Q325.3162,378.2639 325.3162,379.4992 Q325.3162,380.7297 325.719,381.3572 Q326.1219,381.9846 326.9129,381.9846 Q327.284,381.9846 327.6331,381.8259 Q327.9822,381.6672 328.3533,381.3254 Z " fill="#FFFFFF"/><text fill="#EEEEEE" font-family="'Verdana'" font-size="9.1667" lengthAdjust="spacing" textLength="51.2044" x="341.825" y="383.0326">component</text><line style="stroke:#304D6D;stroke-width:0.8333;" x1="315.9917" x2="398.8628" y1="393.2905" y2="393.2905"/><text fill="#EEEEEE" font-family="'Verdana'" font-size="9.1667" lengthAdjust="spacing" textLength="8.2267" x="324.325" y="410.0064">id</text><text fill="#EEEEEE" font-family="'Verdana'" font-size="9.1667" lengthAdjust="spacing" textLength="28.1087" x="324.325" y="429.4803">image</text><text fill="#EEEEEE" font-family="'Verdana'" font-size="9.1667" lengthAdjust="spacing" textLength="25.6828" x="324.325" y="448.9542">name</text><text fill="#EEEEEE" font-family="'Verdana'" font-size="9.1667" lengthAdjust="spacing" textLength="35.1717" x="324.325" y="468.4281">replicas</text><text fill="#EEEEEE" font-family="'Verdana'" font-size="9.1667" lengthAdjust="spacing" textLength="39.8088" x="324.325" y="487.902">manifest</text><line style="stroke:#304D6D;stroke-width:0.8333;" x1="315.9917" x2="398.8628" y1="497.3266" y2="497.3266"/></g><!--class manifest--><g class="entity" data-entity="manifest" data-source-line="9" data-uid="ent0016" id="entity_manifest"><rect fill="url(#g11uyydc21zufe0)" height="60.6144" rx="3.3333" ry="3.3333" style="stroke:#304D6D;stroke-width:0.8333;" width="73.1421" x="254.1833" y="124.7833"/><rect fill="url(#g11uyydc21zufe1)" height="27.8072" rx="3.3333" ry="3.3333" style="stroke:url(#g11uyydc21zufe1);stroke-width:0.8333;" width="73.1421" x="254.1833" y="124.7833"/><rect fill="url(#g11uyydc21zufe1)" height="3.3333" style="stroke:url(#g11uyydc21zufe1);stroke-width:0.8333;" width="73.1421" x="254.1833" y="149.2572"/><rect fill="none" height="60.6144" rx="3.3333" ry="3.3333" style="stroke:#304D6D;stroke-width:0.8333;" width="73.1421" x="254.1833" y="124.7833"/><ellipse cx="265.85" cy="138.6869" fill="#B8B8B8" rx="8.3333" ry="8.3333" style="stroke:#6B6B6B;stroke-width:0.8333;"/><path d="M267.3783,142.227 Q267.0365,142.4028 266.6605,142.4906 Q266.2846,142.5785 265.8695,142.5785 Q264.3949,142.5785 263.6186,141.6069 Q262.8422,140.6352 262.8422,138.7992 Q262.8422,136.9584 263.6186,135.9867 Q264.3949,135.0151 265.8695,135.0151 Q266.2846,135.0151 266.6654,135.103 Q267.0463,135.1908 267.3783,135.3666 L267.3783,136.9682 Q267.0072,136.6264 266.6581,136.4677 Q266.309,136.309 265.9379,136.309 Q265.1469,136.309 264.744,136.9365 Q264.3412,137.5639 264.3412,138.7992 Q264.3412,140.0297 264.744,140.6572 Q265.1469,141.2846 265.9379,141.2846 Q266.309,141.2846 266.6581,141.1259 Q267.0072,140.9672 267.3783,140.6254 Z " fill="#FFFFFF"/><text fill="#EEEEEE" font-family="'Verdana'" font-size="9.1667" lengthAdjust="spacing" textLength="39.8088" x="280.85" y="142.3326">manifest</text><line style="stroke:#304D6D;stroke-width:0.8333;" x1="255.0167" x2="326.4921" y1="152.5905" y2="152.5905"/><text fill="#EEEEEE" font-family="'Verdana'" font-size="9.1667" lengthAdjust="spacing" textLength="25.6828" x="263.35" y="169.3064">name</text><line style="stroke:#304D6D;stroke-width:0.8333;" x1="255.0167" x2="326.4921" y1="178.7311" y2="178.7311"/></g><!--class components--><g class="entity" data-entity="components" data-source-line="9" data-uid="ent0017" id="entity_components"><rect fill="url(#g11uyydc21zufe0)" height="41.1405" rx="3.3333" ry="3.3333" style="stroke:#304D6D;stroke-width:0.8333;" width="89.3136" x="257.7667" y="264.6083"/><rect fill="url(#g11uyydc21zufe1)" height="27.8072" rx="3.3333" ry="3.3333" style="stroke:url(#g11uyydc21zufe1);stroke-width:0.8333;" width="89.3136" x="257.7667" y="264.6083"/><rect fill="url(#g11uyydc21zufe1)" height="3.3333" style="stroke:url(#g11uyydc21zufe1);stroke-width:0.8333;" width="89.3136" x="257.7667" y="289.0822"/><rect fill="none" height="41.1405" rx="3.3333" ry="3.3333" style="stroke:#304D6D;stroke-width:0.8333;" width="89.3136" x="257.7667" y="264.6083"/><ellipse cx="269.4333" cy="278.5119" fill="#B8B8B8" rx="8.3333" ry="8.3333" style="stroke:#6B6B6B;stroke-width:0.8333;"/><path d="M270.9617,282.052 Q270.6199,282.2278 270.2439,282.3156 Q269.8679,282.4035 269.4529,282.4035 Q267.9783,282.4035 267.2019,281.4319 Q266.4255,280.4602 266.4255,278.6242 Q266.4255,276.7834 267.2019,275.8117 Q267.9783,274.8401 269.4529,274.8401 Q269.8679,274.8401 270.2488,274.928 Q270.6296,275.0158 270.9617,275.1916 L270.9617,276.7932 Q270.5906,276.4514 270.2414,276.2927 Q269.8923,276.134 269.5212,276.134 Q268.7302,276.134 268.3274,276.7615 Q267.9245,277.3889 267.9245,278.6242 Q267.9245,279.8547 268.3274,280.4822 Q268.7302,281.1096 269.5212,281.1096 Q269.8923,281.1096 270.2414,280.9509 Q270.5906,280.7922 270.9617,280.4504 Z " fill="#FFFFFF"/><text fill="#EEEEEE" font-family="'Verdana'" font-size="9.1667" lengthAdjust="spacing" textLength="55.9802" x="284.4333" y="282.1576">components</text><line style="stroke:#304D6D;stroke-width:0.8333;" x1="258.6" x2="346.2469" y1="292.4155" y2="292.4155"/><line style="stroke:#304D6D;stroke-width:0.8333;" x1="258.6" x2="346.2469" y1="299.0822" y2="299.0822"/></g><!--class link--><g class="entity" data-entity="link" data-source-line="12" data-uid="ent0021" id="entity_link"><rect fill="url(#g11uyydc21zufe0)" height="119.0361" rx="3.3333" ry="3.3333" style="stroke:#304D6D;stroke-width:0.8333;" width="70.245" x="212.3" y="645.1333"/><rect fill="url(#g11uyydc21zufe1)" height="27.8072" rx="3.3333" ry="3.3333" style="stroke:url(#g11uyydc21zufe1);stroke-width:0.8333;" width="70.245" x="212.3" y="645.1333"/><rect fill="url(#g11uyydc21zufe1)" height="3.3333" style="stroke:url(#g11uyydc21zufe1);stroke-width:0.8333;" width="70.245" x="212.3" y="669.6072"/><rect fill="none" height="119.0361" rx="3.3333" ry="3.3333" style="stroke:#304D6D;stroke-width:0.8333;" width="70.245" x="212.3" y="645.1333"/><ellipse cx="233.2615" cy="659.0369" fill="#B8B8B8" rx="8.3333" ry="8.3333" style="stroke:#6B6B6B;stroke-width:0.8333;"/><path d="M234.7898,662.577 Q234.448,662.7528 234.072,662.8406 Q233.696,662.9285 233.281,662.9285 Q231.8064,662.9285 231.03,661.9569 Q230.2537,660.9852 230.2537,659.1492 Q230.2537,657.3084 231.03,656.3367 Q231.8064,655.3651 233.281,655.3651 Q233.696,655.3651 234.0769,655.453 Q234.4578,655.5408 234.7898,655.7166 L234.7898,657.3182 Q234.4187,656.9764 234.0696,656.8177 Q233.7205,656.659 233.3494,656.659 Q232.5583,656.659 232.1555,657.2865 Q231.7527,657.9139 231.7527,659.1492 Q231.7527,660.3797 232.1555,661.0072 Q232.5583,661.6346 233.3494,661.6346 Q233.7205,661.6346 234.0696,661.4759 Q234.4187,661.3172 234.7898,660.9754 Z " fill="#FFFFFF"/><text fill="#EEEEEE" font-family="'Verdana'" font-size="9.1667" lengthAdjust="spacing" textLength="16.2565" x="250.327" y="662.6826">link</text><line style="stroke:#304D6D;stroke-width:0.8333;" x1="213.1333" x2="281.7116" y1="672.9405" y2="672.9405"/><text fill="#EEEEEE" font-family="'Verdana'" font-size="9.1667" lengthAdjust="spacing" textLength="27.8133" x="221.4667" y="689.6564">target</text><text fill="#EEEEEE" font-family="'Verdana'" font-size="9.1667" lengthAdjust="spacing" textLength="21.4172" x="221.4667" y="709.1303">pack</text><text fill="#EEEEEE" font-family="'Verdana'" font-size="9.1667" lengthAdjust="spacing" textLength="51.9116" x="221.4667" y="728.6042">namespace</text><text fill="#EEEEEE" font-family="'Verdana'" font-size="9.1667" lengthAdjust="spacing" textLength="45.0411" x="221.4667" y="748.0781">interfaces</text><line style="stroke:#304D6D;stroke-width:0.8333;" x1="213.1333" x2="281.7116" y1="757.5027" y2="757.5027"/></g><!--class config--><g class="entity" data-entity="config" data-source-line="12" data-uid="ent0022" id="entity_config"><rect fill="url(#g11uyydc21zufe0)" height="80.0883" rx="3.3333" ry="3.3333" style="stroke:#304D6D;stroke-width:0.8333;" width="60.9229" x="216.9583" y="833.65"/><rect fill="url(#g11uyydc21zufe1)" height="27.8072" rx="3.3333" ry="3.3333" style="stroke:url(#g11uyydc21zufe1);stroke-width:0.8333;" width="60.9229" x="216.9583" y="833.65"/><rect fill="url(#g11uyydc21zufe1)" height="3.3333" style="stroke:url(#g11uyydc21zufe1);stroke-width:0.8333;" width="60.9229" x="216.9583" y="858.1239"/><rect fill="none" height="80.0883" rx="3.3333" ry="3.3333" style="stroke:#304D6D;stroke-width:0.8333;" width="60.9229" x="216.9583" y="833.65"/><ellipse cx="228.625" cy="847.5536" fill="#B8B8B8" rx="8.3333" ry="8.3333" style="stroke:#6B6B6B;stroke-width:0.8333;"/><path d="M230.1533,851.0936 Q229.8115,851.2694 229.4355,851.3573 Q229.0596,851.4452 228.6445,851.4452 Q227.1699,851.4452 226.3936,850.4735 Q225.6172,849.5018 225.6172,847.6659 Q225.6172,845.8251 226.3936,844.8534 Q227.1699,843.8817 228.6445,843.8817 Q229.0596,843.8817 229.4404,843.9696 Q229.8213,844.0575 230.1533,844.2333 L230.1533,845.8349 Q229.7822,845.4931 229.4331,845.3344 Q229.084,845.1757 228.7129,845.1757 Q227.9219,845.1757 227.519,845.8031 Q227.1162,846.4306 227.1162,847.6659 Q227.1162,848.8964 227.519,849.5238 Q227.9219,850.1513 228.7129,850.1513 Q229.084,850.1513 229.4331,849.9926 Q229.7822,849.8339 230.1533,849.4921 Z " fill="#FFFFFF"/><text fill="#EEEEEE" font-family="'Verdana'" font-size="9.1667" lengthAdjust="spacing" textLength="27.5895" x="243.625" y="851.1992">config</text><line style="stroke:#304D6D;stroke-width:0.8333;" x1="217.7917" x2="277.0479" y1="861.4572" y2="861.4572"/><text fill="#EEEEEE" font-family="'Verdana'" font-size="9.1667" lengthAdjust="spacing" textLength="25.6828" x="226.125" y="878.1731">name</text><text fill="#EEEEEE" font-family="'Verdana'" font-size="9.1667" lengthAdjust="spacing" textLength="35.8521" x="226.125" y="897.647">address</text><line style="stroke:#304D6D;stroke-width:0.8333;" x1="217.7917" x2="277.0479" y1="907.0716" y2="907.0716"/></g><!--class spreadscaler--><g class="entity" data-entity="spreadscaler" data-source-line="13" data-uid="ent0024" id="entity_spreadscaler"><rect fill="url(#g11uyydc21zufe0)" height="99.5622" rx="3.3333" ry="3.3333" style="stroke:#304D6D;stroke-width:0.8333;" width="91.3546" x="311.75" y="654.875"/><rect fill="url(#g11uyydc21zufe1)" height="27.8072" rx="3.3333" ry="3.3333" style="stroke:url(#g11uyydc21zufe1);stroke-width:0.8333;" width="91.3546" x="311.75" y="654.875"/><rect fill="url(#g11uyydc21zufe1)" height="3.3333" style="stroke:url(#g11uyydc21zufe1);stroke-width:0.8333;" width="91.3546" x="311.75" y="679.3489"/><rect fill="none" height="99.5622" rx="3.3333" ry="3.3333" style="stroke:#304D6D;stroke-width:0.8333;" width="91.3546" x="311.75" y="654.875"/><ellipse cx="323.4167" cy="668.7786" fill="#B8B8B8" rx="8.3333" ry="8.3333" style="stroke:#6B6B6B;stroke-width:0.8333;"/><path d="M324.945,672.3186 Q324.6032,672.4944 324.2272,672.5823 Q323.8512,672.6702 323.4362,672.6702 Q321.9616,672.6702 321.1852,671.6985 Q320.4089,670.7268 320.4089,668.8909 Q320.4089,667.0501 321.1852,666.0784 Q321.9616,665.1067 323.4362,665.1067 Q323.8512,665.1067 324.2321,665.1946 Q324.613,665.2825 324.945,665.4583 L324.945,667.0599 Q324.5739,666.7181 324.2248,666.5594 Q323.8757,666.4007 323.5046,666.4007 Q322.7135,666.4007 322.3107,667.0281 Q321.9079,667.6556 321.9079,668.8909 Q321.9079,670.1214 322.3107,670.7488 Q322.7135,671.3763 323.5046,671.3763 Q323.8757,671.3763 324.2248,671.2176 Q324.5739,671.0589 324.945,670.7171 Z " fill="#FFFFFF"/><text fill="#EEEEEE" font-family="'Verdana'" font-size="9.1667" lengthAdjust="spacing" textLength="58.0212" x="338.4167" y="672.4242">spreadscaler</text><line style="stroke:#304D6D;stroke-width:0.8333;" x1="312.5833" x2="402.2712" y1="682.6822" y2="682.6822"/><text fill="#EEEEEE" font-family="'Verdana'" font-size="9.1667" lengthAdjust="spacing" textLength="8.2267" x="320.9167" y="699.3981">id</text><text fill="#EEEEEE" font-family="'Verdana'" font-size="9.1667" lengthAdjust="spacing" textLength="38.2467" x="320.9167" y="718.872">instance</text><text fill="#EEEEEE" font-family="'Verdana'" font-size="9.1667" lengthAdjust="spacing" textLength="65.2588" x="320.9167" y="738.3459">component_id</text><line style="stroke:#304D6D;stroke-width:0.8333;" x1="312.5833" x2="402.2712" y1="747.7705" y2="747.7705"/></g><!--class spread--><g class="entity" data-entity="spread" data-source-line="15" data-uid="ent0027" id="entity_spread"><rect fill="url(#g11uyydc21zufe0)" height="119.0361" rx="3.3333" ry="3.3333" style="stroke:#304D6D;stroke-width:0.8333;" width="90.4089" x="312.2167" y="814.175"/><rect fill="url(#g11uyydc21zufe1)" height="27.8072" rx="3.3333" ry="3.3333" style="stroke:url(#g11uyydc21zufe1);stroke-width:0.8333;" width="90.4089" x="312.2167" y="814.175"/><rect fill="url(#g11uyydc21zufe1)" height="3.3333" style="stroke:url(#g11uyydc21zufe1);stroke-width:0.8333;" width="90.4089" x="312.2167" y="838.6489"/><rect fill="none" height="119.0361" rx="3.3333" ry="3.3333" style="stroke:#304D6D;stroke-width:0.8333;" width="90.4089" x="312.2167" y="814.175"/><ellipse cx="335.583" cy="828.0786" fill="#B8B8B8" rx="8.3333" ry="8.3333" style="stroke:#6B6B6B;stroke-width:0.8333;"/><path d="M337.1114,831.6186 Q336.7696,831.7944 336.3936,831.8823 Q336.0176,831.9702 335.6026,831.9702 Q334.128,831.9702 333.3516,830.9985 Q332.5752,830.0268 332.5752,828.1909 Q332.5752,826.3501 333.3516,825.3784 Q334.128,824.4067 335.6026,824.4067 Q336.0176,824.4067 336.3985,824.4946 Q336.7793,824.5825 337.1114,824.7583 L337.1114,826.3599 Q336.7403,826.0181 336.3911,825.8594 Q336.042,825.7007 335.6709,825.7007 Q334.8799,825.7007 334.4771,826.3281 Q334.0743,826.9556 334.0743,828.1909 Q334.0743,829.4214 334.4771,830.0488 Q334.8799,830.6763 335.6709,830.6763 Q336.042,830.6763 336.3911,830.5176 Q336.7403,830.3589 337.1114,830.0171 Z " fill="#FFFFFF"/><text fill="#EEEEEE" font-family="'Verdana'" font-size="9.1667" lengthAdjust="spacing" textLength="31.0763" x="353.183" y="831.7242">spread</text><line style="stroke:#304D6D;stroke-width:0.8333;" x1="313.05" x2="401.7923" y1="841.9822" y2="841.9822"/><text fill="#EEEEEE" font-family="'Verdana'" font-size="9.1667" lengthAdjust="spacing" textLength="25.6828" x="321.3833" y="858.6981">name</text><text fill="#EEEEEE" font-family="'Verdana'" font-size="9.1667" lengthAdjust="spacing" textLength="30.6018" x="321.3833" y="878.172">weight</text><text fill="#EEEEEE" font-family="'Verdana'" font-size="9.1667" lengthAdjust="spacing" textLength="21.641" x="321.3833" y="897.6459">zone</text><text fill="#EEEEEE" font-family="'Verdana'" font-size="9.1667" lengthAdjust="spacing" textLength="72.0756" x="321.3833" y="917.1197">spreadscaler_id</text><line style="stroke:#304D6D;stroke-width:0.8333;" x1="313.05" x2="401.7923" y1="926.5444" y2="926.5444"/></g><!--class cluster_manifest--><g class="entity" data-entity="cluster_manifest" data-source-line="16" data-uid="ent0029" id="entity_cluster_manifest"><rect fill="url(#g11uyydc21zufe0)" height="41.1405" rx="3.3333" ry="3.3333" style="stroke:#304D6D;stroke-width:0.8333;" width="109.8222" x="195.0167" y="14.1667"/><rect fill="url(#g11uyydc21zufe1)" height="27.8072" rx="3.3333" ry="3.3333" style="stroke:url(#g11uyydc21zufe1);stroke-width:0.8333;" width="109.8222" x="195.0167" y="14.1667"/><rect fill="url(#g11uyydc21zufe1)" height="3.3333" style="stroke:url(#g11uyydc21zufe1);stroke-width:0.8333;" width="109.8222" x="195.0167" y="38.6405"/><rect fill="none" height="41.1405" rx="3.3333" ry="3.3333" style="stroke:#304D6D;stroke-width:0.8333;" width="109.8222" x="195.0167" y="14.1667"/><ellipse cx="206.6833" cy="28.0703" fill="#B8B8B8" rx="8.3333" ry="8.3333" style="stroke:#6B6B6B;stroke-width:0.8333;"/><path d="M208.2117,31.6103 Q207.8699,31.7861 207.4939,31.874 Q207.1179,31.9619 206.7029,31.9619 Q205.2283,31.9619 204.4519,30.9902 Q203.6755,30.0185 203.6755,28.1826 Q203.6755,26.3418 204.4519,25.3701 Q205.2283,24.3984 206.7029,24.3984 Q207.1179,24.3984 207.4988,24.4863 Q207.8796,24.5742 208.2117,24.75 L208.2117,26.3515 Q207.8406,26.0097 207.4914,25.851 Q207.1423,25.6923 206.7712,25.6923 Q205.9802,25.6923 205.5774,26.3198 Q205.1745,26.9472 205.1745,28.1826 Q205.1745,29.413 205.5774,30.0405 Q205.9802,30.6679 206.7712,30.6679 Q207.1423,30.6679 207.4914,30.5092 Q207.8406,30.3505 208.2117,30.0087 Z " fill="#FFFFFF"/><text fill="#EEEEEE" font-family="'Verdana'" font-size="9.1667" lengthAdjust="spacing" textLength="76.4889" x="221.6833" y="31.7159">cluster_manifest</text><line style="stroke:#304D6D;stroke-width:0.8333;" x1="195.85" x2="304.0055" y1="41.9739" y2="41.9739"/><line style="stroke:#304D6D;stroke-width:0.8333;" x1="195.85" x2="304.0055" y1="48.6405" y2="48.6405"/></g><!--reverse link clusters to cluster_nodes--><g class="link" data-entity-1="clusters" data-entity-2="cluster_nodes" data-source-line="3" data-uid="lnk4" id="link_clusters_cluster_nodes"><path codeLine="3" d="M179.925,205.5 C179.925,228.35 179.925,246.1 179.925,264.4417" fill="none" id="clusters-backto-cluster_nodes" style="stroke:#446E9B;stroke-width:2.5;"/><polygon fill="#446E9B" points="179.925,195.5,176.5917,200.5,179.925,205.5,183.2583,200.5,179.925,195.5" style="stroke:#446E9B;stroke-width:2.5;"/></g><!--reverse link nodes to node_labels--><g class="link" data-entity-1="nodes" data-entity-2="node_labels" data-source-line="4" data-uid="lnk7" id="link_nodes_node_labels"><path codeLine="4" d="M65.8866,215.148 C64.045,231.8397 63.15,240.0167 61.525,254.7" fill="none" id="nodes-backto-node_labels" style="stroke:#446E9B;stroke-width:2.5;"/><polygon fill="#446E9B" points="66.9833,205.2083,63.1218,209.8126,65.8866,215.148,69.7482,210.5437,66.9833,205.2083" style="stroke:#446E9B;stroke-width:2.5;"/></g><!--link cluster_node to clusters--><g class="link" data-entity-1="cluster_node" data-entity-2="clusters" data-source-line="5" data-uid="lnk9" id="link_cluster_node_clusters"><path codeLine="5" d="M116.9583,55.7083 C127.2667,71.8417 142.05,94.9833 154.7,114.7833" fill="none" id="cluster_node-clusters" style="stroke:#446E9B;stroke-width:2.5;"/></g><!--link cluster_node to nodes--><g class="link" data-entity-1="cluster_node" data-entity-2="nodes" data-source-line="6" data-uid="lnk10" id="link_cluster_node_nodes"><path codeLine="6" d="M98.7167,55.7083 C95.1,69.2667 90.1667,87.7667 85.55,105.075" fill="none" id="cluster_node-nodes" style="stroke:#446E9B;stroke-width:2.5;"/></g><!--reverse link capability to traits--><g class="link" data-entity-1="capability" data-entity-2="traits" data-source-line="7" data-uid="lnk13" id="link_capability_traits"><path codeLine="7" d="M278.4651,513.5409 C285.6901,531.6909 289.225,540.5833 294.4917,553.8" fill="none" id="capability-backto-traits" style="stroke:#446E9B;stroke-width:2.5;"/><polygon fill="#446E9B" points="274.7667,504.25,273.5189,510.1283,278.4651,513.5409,279.7129,507.6626,274.7667,504.25" style="stroke:#446E9B;stroke-width:2.5;"/></g><!--reverse link component to traits--><g class="link" data-entity-1="component" data-entity-2="traits" data-source-line="8" data-uid="lnk15" id="link_component_traits"><path codeLine="8" d="M326.3849,513.5409 C319.1599,531.6909 315.6167,540.5833 310.3583,553.8" fill="none" id="component-backto-traits" style="stroke:#446E9B;stroke-width:2.5;"/><polygon fill="#446E9B" points="330.0833,504.25,325.1371,507.6626,326.3849,513.5409,331.3311,510.1283,330.0833,504.25" style="stroke:#446E9B;stroke-width:2.5;"/></g><!--reverse link manifest to components--><g class="link" data-entity-1="manifest" data-entity-2="components" data-source-line="9" data-uid="lnk18" id="link_manifest_components"><path codeLine="9" d="M294.3702,195.6674 C296.5618,219.8258 298.6917,243.25 300.6083,264.3167" fill="none" id="manifest-backto-components" style="stroke:#446E9B;stroke-width:2.5;"/><polygon fill="#446E9B" points="293.4667,185.7083,290.5987,190.9891,294.3702,195.6674,297.2381,190.3867,293.4667,185.7083" style="stroke:#446E9B;stroke-width:2.5;"/></g><!--reverse link components to component--><g class="link" data-entity-1="components" data-entity-2="component" data-source-line="10" data-uid="lnk19" id="link_components_component"><path codeLine="10" d="M315.0692,320.0179 C320.7859,335.3929 323.825,343.5583 331.8667,365.1833" fill="none" id="components-backto-component" style="stroke:#446E9B;stroke-width:2.5;"/><polygon fill="none" points="309.8417,305.9583,310.3827,321.7605,319.7558,318.2754,309.8417,305.9583" style="stroke:#446E9B;stroke-width:2.5;"/></g><!--reverse link components to capability--><g class="link" data-entity-1="components" data-entity-2="capability" data-source-line="11" data-uid="lnk20" id="link_components_capability"><path codeLine="11" d="M289.7808,320.0179 C284.0641,335.3929 281.025,343.5583 272.9833,365.1833" fill="none" id="components-backto-capability" style="stroke:#446E9B;stroke-width:2.5;"/><polygon fill="none" points="295.0083,305.9583,285.0942,318.2754,294.4673,321.7605,295.0083,305.9583" style="stroke:#446E9B;stroke-width:2.5;"/></g><!--reverse link link to config--><g class="link" data-entity-1="link" data-entity-2="config" data-source-line="12" data-uid="lnk23" id="link_link_config"><path codeLine="12" d="M247.425,774.4917 C247.425,797.275 247.425,812.725 247.425,833.2417" fill="none" id="link-backto-config" style="stroke:#446E9B;stroke-width:2.5;"/><polygon fill="#446E9B" points="247.425,764.4917,244.0917,769.4917,247.425,774.4917,250.7583,769.4917,247.425,764.4917" style="stroke:#446E9B;stroke-width:2.5;"/></g><!--reverse link traits to spreadscaler--><g class="link" data-entity-1="traits" data-entity-2="spreadscaler" data-source-line="13" data-uid="lnk25" id="link_traits_spreadscaler"><path codeLine="13" d="M314.9535,604.6591 C321.7202,620.4591 327.5167,633.9833 336.3167,654.5333" fill="none" id="traits-backto-spreadscaler" style="stroke:#446E9B;stroke-width:2.5;"/><polygon fill="#446E9B" points="311.0167,595.4667,309.9209,601.3752,314.9535,604.6591,316.0492,598.7506,311.0167,595.4667" style="stroke:#446E9B;stroke-width:2.5;"/></g><!--reverse link traits to link--><g class="link" data-entity-1="traits" data-entity-2="link" data-source-line="14" data-uid="lnk26" id="link_traits_link"><path codeLine="14" d="M289.8928,604.6575 C284.1761,617.9909 280.3,627.05 272.7083,644.775" fill="none" id="traits-backto-link" style="stroke:#446E9B;stroke-width:2.5;"/><polygon fill="#446E9B" points="293.8333,595.4667,288.7994,598.7486,289.8928,604.6575,294.9267,601.3756,293.8333,595.4667" style="stroke:#446E9B;stroke-width:2.5;"/></g><!--reverse link spreadscaler to spread--><g class="link" data-entity-1="spreadscaler" data-entity-2="spread" data-source-line="15" data-uid="lnk28" id="link_spreadscaler_spread"><path codeLine="15" d="M357.425,764.8 C357.425,783.3083 357.425,794.5417 357.425,813.85" fill="none" id="spreadscaler-backto-spread" style="stroke:#446E9B;stroke-width:2.5;"/><polygon fill="#446E9B" points="357.425,754.8,354.0917,759.8,357.425,764.8,360.7583,759.8,357.425,754.8" style="stroke:#446E9B;stroke-width:2.5;"/></g><!--link cluster_manifest to manifest--><g class="link" data-entity-1="cluster_manifest" data-entity-2="manifest" data-source-line="16" data-uid="lnk30" id="link_cluster_manifest_manifest"><path codeLine="16" d="M256.85,55.7083 C263.3333,74.55 273.1083,102.9583 280.5,124.4333" fill="none" id="cluster_manifest-manifest" style="stroke:#446E9B;stroke-width:2.5;"/></g><!--link cluster_manifest to clusters--><g class="link" data-entity-1="cluster_manifest" data-entity-2="clusters" data-source-line="17" data-uid="lnk31" id="link_cluster_manifest_clusters"><path codeLine="17" d="M238.05,55.7083 C228.5333,71.8417 214.8833,94.9833 203.2083,114.7833" fill="none" id="cluster_manifest-clusters" style="stroke:#446E9B;stroke-width:2.5;"/></g><!--SRC=[RLFRRiCW37tdAzZhf4vxdABzI-GcJefAACAkfbRx-148u3HxYNoExUCBpXjVS45D7WQqS5OqW4Nz-V6b1didna3w_NJI6-ZTRKHIwPlurUfZ7bfICaQtdACZYmpWuMoiuKTIuW268tjR_CsXOqakuCo4bBaQ8O99V_zArz5JYobht7KJSfEPLQwH6F81OKmh299VKvHqYkWwNMqokehzhxFkfPATTh2WcBtJPjp31UPzm24ZeBTc0DgHhP6sxIo-mrbTKbbUCarVihN0RZsfn2lZYC4D-ChNTlkQK-fNz8Dcld33pvZGa1HSHT8BTveXpCW5nGE_5diLJnTV2EFYWqoHe7RsPGSIC_NtOBVxJqCManyUAqZjYLyZKibG-UJQwsq8nZ4WqHy0]--></g></svg>