<svg xmlns="http://www.w3.org/2000/svg" xmlns:xlink="http://www.w3.org/1999/xlink" contentStyleType="text/css" data-diagram-type="CLASS" height="865px" preserveAspectRatio="none" style="width:412px;height:865px;" version="1.1" viewBox="0 0 412 865" width="412.5px" zoomAndPan="magnify"><defs><linearGradient id="g1nu3ol9vahufb0" x1="50%" x2="50%" y1="0%" y2="100%"><stop offset="0%" stop-color="#7C9AB9"/><stop offset="100%" stop-color="#304D6D"/></linearGradient><linearGradient id="g1nu3ol9vahufb1" x1="50%" x2="50%" y1="0%" y2="100%"><stop offset="0%" stop-color="#7C9AB9"/><stop offset="100%" stop-color="#446E9B"/></linearGradient></defs><g><!--class clusters--><g class="entity" data-entity="clusters" data-source-line="3" data-uid="ent0002" id="entity_clusters"><rect fill="url(#g1nu3ol9vahufb0)" height="80.0883" rx="3.3333" ry="3.3333" style="stroke:#304D6D;stroke-width:0.8333;" width="68.9616" x="145.4417" y="115.0417"/><rect fill="url(#g1nu3ol9vahufb1)" height="27.8072" rx="3.3333" ry="3.3333" style="stroke:url(#g1nu3ol9vahufb1);stroke-width:0.8333;" width="68.9616" x="145.4417" y="115.0417"/><rect fill="url(#g1nu3ol9vahufb1)" height="3.3333" style="stroke:url(#g1nu3ol9vahufb1);stroke-width:0.8333;" width="68.9616" x="145.4417" y="139.5155"/><rect fill="none" height="80.0883" rx="3.3333" ry="3.3333" style="stroke:#304D6D;stroke-width:0.8333;" width="68.9616" x="145.4417" y="115.0417"/><ellipse cx="157.1083" cy="128.9453" fill="#B8B8B8" rx="8.3333" ry="8.3333" style="stroke:#6B6B6B;stroke-width:0.8333;"/><path d="M158.6367,132.4853 Q158.2949,132.6611 157.9189,132.749 Q157.5429,132.8369 157.1279,132.8369 Q155.6533,132.8369 154.8769,131.8652 Q154.1005,130.8935 154.1005,129.0576 Q154.1005,127.2168 154.8769,126.2451 Q155.6533,125.2734 157.1279,125.2734 Q157.5429,125.2734 157.9238,125.3613 Q158.3046,125.4492 158.6367,125.625 L158.6367,127.2265 Q158.2656,126.8847 157.9164,126.726 Q157.5673,126.5673 157.1962,126.5673 Q156.4052,126.5673 156.0024,127.1948 Q155.5995,127.8222 155.5995,129.0576 Q155.5995,130.288 156.0024,130.9155 Q156.4052,131.5429 157.1962,131.5429 Q157.5673,131.5429 157.9164,131.3842 Q158.2656,131.2255 158.6367,130.8837 Z " fill="#FFFFFF"/><text fill="#EEEEEE" font-family="'Verdana'" font-size="9.1667" lengthAdjust="spacing" textLength="35.6283" x="172.1083" y="132.5909">clusters</text><line style="stroke:#304D6D;stroke-width:0.8333;" x1="146.275" x2="213.5699" y1="142.8489" y2="142.8489"/><text fill="#EEEEEE" font-family="'Verdana'" font-size="9.1667" lengthAdjust="spacing" textLength="25.6828" x="154.6083" y="159.5648">name</text><text fill="#EEEEEE" font-family="'Verdana'" font-size="9.1667" lengthAdjust="spacing" textLength="37.7498" x="154.6083" y="179.0387">nats_url</text><line style="stroke:#304D6D;stroke-width:0.8333;" x1="146.275" x2="213.5699" y1="188.4633" y2="188.4633"/></g><!--class cluster_nodes--><g class="entity" data-entity="cluster_nodes" data-source-line="3" data-uid="ent0003" id="entity_cluster_nodes"><rect fill="url(#g1nu3ol9vahufb0)" height="41.1405" rx="3.3333" ry="3.3333" style="stroke:#304D6D;stroke-width:0.8333;" width="97.3254" x="131.2583" y="264.6"/><rect fill="url(#g1nu3ol9vahufb1)" height="27.8072" rx="3.3333" ry="3.3333" style="stroke:url(#g1nu3ol9vahufb1);stroke-width:0.8333;" width="97.3254" x="131.2583" y="264.6"/><rect fill="url(#g1nu3ol9vahufb1)" height="3.3333" style="stroke:url(#g1nu3ol9vahufb1);stroke-width:0.8333;" width="97.3254" x="131.2583" y="289.0739"/><rect fill="none" height="41.1405" rx="3.3333" ry="3.3333" style="stroke:#304D6D;stroke-width:0.8333;" width="97.3254" x="131.2583" y="264.6"/><ellipse cx="142.925" cy="278.5036" fill="#B8B8B8" rx="8.3333" ry="8.3333" style="stroke:#6B6B6B;stroke-width:0.8333;"/><path d="M144.4533,282.0436 Q144.1115,282.2194 143.7355,282.3073 Q143.3596,282.3952 142.9445,282.3952 Q141.4699,282.3952 140.6936,281.4235 Q139.9172,280.4518 139.9172,278.6159 Q139.9172,276.7751 140.6936,275.8034 Q141.4699,274.8317 142.9445,274.8317 Q143.3596,274.8317 143.7404,274.9196 Q144.1213,275.0075 144.4533,275.1833 L144.4533,276.7849 Q144.0822,276.4431 143.7331,276.2844 Q143.384,276.1257 143.0129,276.1257 Q142.2219,276.1257 141.819,276.7531 Q141.4162,277.3806 141.4162,278.6159 Q141.4162,279.8464 141.819,280.4738 Q142.2219,281.1013 143.0129,281.1013 Q143.384,281.1013 143.7331,280.9426 Q144.0822,280.7839 144.4533,280.4421 Z " fill="#FFFFFF"/><text fill="#EEEEEE" font-family="'Verdana'" font-size="9.1667" lengthAdjust="spacing" textLength="63.9921" x="157.925" y="282.1492">cluster_nodes</text><line style="stroke:#304D6D;stroke-width:0.8333;" x1="132.0917" x2="227.7504" y1="292.4072" y2="292.4072"/><line style="stroke:#304D6D;stroke-width:0.8333;" x1="132.0917" x2="227.7504" y1="299.0739" y2="299.0739"/></g><!--class nodes--><g class="entity" data-entity="nodes" data-source-line="4" data-uid="ent0005" id="entity_nodes"><rect fill="url(#g1nu3ol9vahufb0)" height="99.5622" rx="3.3333" ry="3.3333" style="stroke:#304D6D;stroke-width:0.8333;" width="60.6453" x="42.1" y="105.3083"/><rect fill="url(#g1nu3ol9vahufb1)" height="27.8072" rx="3.3333" ry="3.3333" style="stroke:url(#g1nu3ol9vahufb1);stroke-width:0.8333;" width="60.6453" x="42.1" y="105.3083"/><rect fill="url(#g1nu3ol9vahufb1)" height="3.3333" style="stroke:url(#g1nu3ol9vahufb1);stroke-width:0.8333;" width="60.6453" x="42.1" y="129.7822"/><rect fill="none" height="99.5622" rx="3.3333" ry="3.3333" style="stroke:#304D6D;stroke-width:0.8333;" width="60.6453" x="42.1" y="105.3083"/><ellipse cx="53.7667" cy="119.2119" fill="#B8B8B8" rx="8.3333" ry="8.3333" style="stroke:#6B6B6B;stroke-width:0.8333;"/><path d="M55.295,122.752 Q54.9532,122.9278 54.5772,123.0156 Q54.2012,123.1035 53.7862,123.1035 Q52.3116,123.1035 51.5352,122.1319 Q50.7589,121.1602 50.7589,119.3242 Q50.7589,117.4834 51.5352,116.5117 Q52.3116,115.5401 53.7862,115.5401 Q54.2012,115.5401 54.5821,115.628 Q54.963,115.7158 55.295,115.8916 L55.295,117.4932 Q54.9239,117.1514 54.5748,116.9927 Q54.2257,116.834 53.8546,116.834 Q53.0635,116.834 52.6607,117.4615 Q52.2579,118.0889 52.2579,119.3242 Q52.2579,120.5547 52.6607,121.1822 Q53.0635,121.8096 53.8546,121.8096 Q54.2257,121.8096 54.5748,121.6509 Q54.9239,121.4922 55.295,121.1504 Z " fill="#FFFFFF"/><text fill="#EEEEEE" font-family="'Verdana'" font-size="9.1667" lengthAdjust="spacing" textLength="27.312" x="68.7667" y="122.8576">nodes</text><line style="stroke:#304D6D;stroke-width:0.8333;" x1="42.9333" x2="101.912" y1="133.1155" y2="133.1155"/><text fill="#EEEEEE" font-family="'Verdana'" font-size="9.1667" lengthAdjust="spacing" textLength="8.2267" x="51.2667" y="149.8314">id</text><text fill="#EEEEEE" font-family="'Verdana'" font-size="9.1667" lengthAdjust="spacing" textLength="20.2087" x="51.2667" y="169.3053">type</text><text fill="#EEEEEE" font-family="'Verdana'" font-size="9.1667" lengthAdjust="spacing" textLength="21.641" x="51.2667" y="188.7792">zone</text><line style="stroke:#304D6D;stroke-width:0.8333;" x1="42.9333" x2="101.912" y1="198.2038" y2="198.2038"/></g><!--class node_labels--><g class="entity" data-entity="node_labels" data-source-line="4" data-uid="ent0006" id="entity_node_labels"><rect fill="url(#g1nu3ol9vahufb0)" height="60.6144" rx="3.3333" ry="3.3333" style="stroke:#304D6D;stroke-width:0.8333;" width="88.1812" x="14.1667" y="254.8667"/><rect fill="url(#g1nu3ol9vahufb1)" height="27.8072" rx="3.3333" ry="3.3333" style="stroke:url(#g1nu3ol9vahufb1);stroke-width:0.8333;" width="88.1812" x="14.1667" y="254.8667"/><rect fill="url(#g1nu3ol9vahufb1)" height="3.3333" style="stroke:url(#g1nu3ol9vahufb1);stroke-width:0.8333;" width="88.1812" x="14.1667" y="279.3405"/><rect fill="none" height="60.6144" rx="3.3333" ry="3.3333" style="stroke:#304D6D;stroke-width:0.8333;" width="88.1812" x="14.1667" y="254.8667"/><ellipse cx="25.8333" cy="268.7703" fill="#B8B8B8" rx="8.3333" ry="8.3333" style="stroke:#6B6B6B;stroke-width:0.8333;"/><path d="M27.3617,272.3103 Q27.0199,272.4861 26.6439,272.574 Q26.2679,272.6619 25.8529,272.6619 Q24.3783,272.6619 23.6019,271.6902 Q22.8255,270.7185 22.8255,268.8826 Q22.8255,267.0418 23.6019,266.0701 Q24.3783,265.0984 25.8529,265.0984 Q26.2679,265.0984 26.6488,265.1863 Q27.0296,265.2742 27.3617,265.45 L27.3617,267.0515 Q26.9906,266.7097 26.6414,266.551 Q26.2923,266.3923 25.9212,266.3923 Q25.1302,266.3923 24.7274,267.0198 Q24.3245,267.6472 24.3245,268.8826 Q24.3245,270.113 24.7274,270.7405 Q25.1302,271.3679 25.9212,271.3679 Q26.2923,271.3679 26.6414,271.2092 Q26.9906,271.0505 27.3617,270.7087 Z " fill="#FFFFFF"/><text fill="#EEEEEE" font-family="'Verdana'" font-size="9.1667" lengthAdjust="spacing" textLength="54.8478" x="40.8333" y="272.4159">node_labels</text><line style="stroke:#304D6D;stroke-width:0.8333;" x1="15" x2="101.5145" y1="282.6739" y2="282.6739"/><text fill="#EEEEEE" font-family="'Verdana'" font-size="9.1667" lengthAdjust="spacing" textLength="21.7082" x="23.3333" y="299.3898">label</text><line style="stroke:#304D6D;stroke-width:0.8333;" x1="15" x2="101.5145" y1="308.8144" y2="308.8144"/></g><!--class cluster_node--><g class="entity" data-entity="cluster_node" data-source-line="5" data-uid="ent0008" id="entity_cluster_node"><rect fill="url(#g1nu3ol9vahufb0)" height="41.1405" rx="3.3333" ry="3.3333" style="stroke:#304D6D;stroke-width:0.8333;" width="92.5496" x="57.8167" y="14.1667"/><rect fill="url(#g1nu3ol9vahufb1)" height="27.8072" rx="3.3333" ry="3.3333" style="stroke:url(#g1nu3ol9vahufb1);stroke-width:0.8333;" width="92.5496" x="57.8167" y="14.1667"/><rect fill="url(#g1nu3ol9vahufb1)" height="3.3333" style="stroke:url(#g1nu3ol9vahufb1);stroke-width:0.8333;" width="92.5496" x="57.8167" y="38.6405"/><rect fill="none" height="41.1405" rx="3.3333" ry="3.3333" style="stroke:#304D6D;stroke-width:0.8333;" width="92.5496" x="57.8167" y="14.1667"/><ellipse cx="69.4833" cy="28.0703" fill="#B8B8B8" rx="8.3333" ry="8.3333" style="stroke:#6B6B6B;stroke-width:0.8333;"/><path d="M71.0117,31.6103 Q70.6699,31.7861 70.2939,31.874 Q69.9179,31.9619 69.5029,31.9619 Q68.0283,31.9619 67.2519,30.9902 Q66.4755,30.0185 66.4755,28.1826 Q66.4755,26.3418 67.2519,25.3701 Q68.0283,24.3984 69.5029,24.3984 Q69.9179,24.3984 70.2988,24.4863 Q70.6796,24.5742 71.0117,24.75 L71.0117,26.3515 Q70.6406,26.0097 70.2914,25.851 Q69.9423,25.6923 69.5712,25.6923 Q68.7802,25.6923 68.3774,26.3198 Q67.9745,26.9472 67.9745,28.1826 Q67.9745,29.413 68.3774,30.0405 Q68.7802,30.6679 69.5712,30.6679 Q69.9423,30.6679 70.2914,30.5092 Q70.6406,30.3505 71.0117,30.0087 Z " fill="#FFFFFF"/><text fill="#EEEEEE" font-family="'Verdana'" font-size="9.1667" lengthAdjust="spacing" textLength="59.2163" x="84.4833" y="31.7159">cluster_node</text><line style="stroke:#304D6D;stroke-width:0.8333;" x1="58.65" x2="149.533" y1="41.9739" y2="41.9739"/><line style="stroke:#304D6D;stroke-width:0.8333;" x1="58.65" x2="149.533" y1="48.6405" y2="48.6405"/></g><!--class capability--><g class="entity" data-entity="capability" data-source-line="7" data-uid="ent0011" id="entity_capability"><rect fill="url(#g1nu3ol9vahufb0)" height="41.1405" rx="3.3333" ry="3.3333" style="stroke:#304D6D;stroke-width:0.8333;" width="77.1257" x="208.8583" y="384.9583"/><rect fill="url(#g1nu3ol9vahufb1)" height="27.8072" rx="3.3333" ry="3.3333" style="stroke:url(#g1nu3ol9vahufb1);stroke-width:0.8333;" width="77.1257" x="208.8583" y="384.9583"/><rect fill="url(#g1nu3ol9vahufb1)" height="3.3333" style="stroke:url(#g1nu3ol9vahufb1);stroke-width:0.8333;" width="77.1257" x="208.8583" y="409.4322"/><rect fill="none" height="41.1405" rx="3.3333" ry="3.3333" style="stroke:#304D6D;stroke-width:0.8333;" width="77.1257" x="208.8583" y="384.9583"/><ellipse cx="220.525" cy="398.8619" fill="#B8B8B8" rx="8.3333" ry="8.3333" style="stroke:#6B6B6B;stroke-width:0.8333;"/><path d="M222.0533,402.402 Q221.7115,402.5778 221.3355,402.6656 Q220.9596,402.7535 220.5445,402.7535 Q219.0699,402.7535 218.2936,401.7819 Q217.5172,400.8102 217.5172,398.9742 Q217.5172,397.1334 218.2936,396.1617 Q219.0699,395.1901 220.5445,395.1901 Q220.9596,395.1901 221.3404,395.278 Q221.7213,395.3658 222.0533,395.5416 L222.0533,397.1432 Q221.6822,396.8014 221.3331,396.6427 Q220.984,396.484 220.6129,396.484 Q219.8219,396.484 219.419,397.1115 Q219.0162,397.7389 219.0162,398.9742 Q219.0162,400.2047 219.419,400.8322 Q219.8219,401.4596 220.6129,401.4596 Q220.984,401.4596 221.3331,401.3009 Q221.6822,401.1422 222.0533,400.8004 Z " fill="#FFFFFF"/><text fill="#EEEEEE" font-family="'Verdana'" font-size="9.1667" lengthAdjust="spacing" textLength="43.7923" x="235.525" y="402.5076">capability</text><line style="stroke:#304D6D;stroke-width:0.8333;" x1="209.6917" x2="285.1507" y1="412.7655" y2="412.7655"/><line style="stroke:#304D6D;stroke-width:0.8333;" x1="209.6917" x2="285.1507" y1="419.4322" y2="419.4322"/></g><!--class traits--><g class="entity" data-entity="traits" data-source-line="7" data-uid="ent0012" id="entity_traits"><rect fill="url(#g1nu3ol9vahufb0)" height="41.1405" rx="3.3333" ry="3.3333" style="stroke:#304D6D;stroke-width:0.8333;" width="57.266" x="273.7917" y="495.5667"/><rect fill="url(#g1nu3ol9vahufb1)" height="27.8072" rx="3.3333" ry="3.3333" style="stroke:url(#g1nu3ol9vahufb1);stroke-width:0.8333;" width="57.266" x="273.7917" y="495.5667"/><rect fill="url(#g1nu3ol9vahufb1)" height="3.3333" style="stroke:url(#g1nu3ol9vahufb1);stroke-width:0.8333;" width="57.266" x="273.7917" y="520.0405"/><rect fill="none" height="41.1405" rx="3.3333" ry="3.3333" style="stroke:#304D6D;stroke-width:0.8333;" width="57.266" x="273.7917" y="495.5667"/><ellipse cx="285.4583" cy="509.4703" fill="#B8B8B8" rx="8.3333" ry="8.3333" style="stroke:#6B6B6B;stroke-width:0.8333;"/><path d="M286.9867,513.0103 Q286.6449,513.1861 286.2689,513.274 Q285.8929,513.3619 285.4779,513.3619 Q284.0033,513.3619 283.2269,512.3902 Q282.4505,511.4185 282.4505,509.5826 Q282.4505,507.7418 283.2269,506.7701 Q284.0033,505.7984 285.4779,505.7984 Q285.8929,505.7984 286.2738,505.8863 Q286.6546,505.9742 286.9867,506.15 L286.9867,507.7515 Q286.6156,507.4097 286.2664,507.251 Q285.9173,507.0923 285.5462,507.0923 Q284.7552,507.0923 284.3524,507.7198 Q283.9495,508.3472 283.9495,509.5826 Q283.9495,510.813 284.3524,511.4405 Q284.7552,512.0679 285.5462,512.0679 Q285.9173,512.0679 286.2664,511.9092 Q286.6156,511.7505 286.9867,511.4087 Z " fill="#FFFFFF"/><text fill="#EEEEEE" font-family="'Verdana'" font-size="9.1667" lengthAdjust="spacing" textLength="23.9327" x="300.4583" y="513.1159">traits</text><line style="stroke:#304D6D;stroke-width:0.8333;" x1="274.625" x2="330.2244" y1="523.3739" y2="523.3739"/><line style="stroke:#304D6D;stroke-width:0.8333;" x1="274.625" x2="330.2244" y1="530.0405" y2="530.0405"/></g><!--class component--><g class="entity" data-entity="component" data-source-line="8" data-uid="ent0014" id="entity_component"><rect fill="url(#g1nu3ol9vahufb0)" height="80.0883" rx="3.3333" ry="3.3333" style="stroke:#304D6D;stroke-width:0.8333;" width="84.5378" x="315.1583" y="365.4833"/><rect fill="url(#g1nu3ol9vahufb1)" height="27.8072" rx="3.3333" ry="3.3333" style="stroke:url(#g1nu3ol9vahufb1);stroke-width:0.8333;" width="84.5378" x="315.1583" y="365.4833"/><rect fill="url(#g1nu3ol9vahufb1)" height="3.3333" style="stroke:url(#g1nu3ol9vahufb1);stroke-width:0.8333;" width="84.5378" x="315.1583" y="389.9572"/><rect fill="none" height="80.0883" rx="3.3333" ry="3.3333" style="stroke:#304D6D;stroke-width:0.8333;" width="84.5378" x="315.1583" y="365.4833"/><ellipse cx="326.825" cy="379.3869" fill="#B8B8B8" rx="8.3333" ry="8.3333" style="stroke:#6B6B6B;stroke-width:0.8333;"/><path d="M328.3533,382.927 Q328.0115,383.1028 327.6355,383.1906 Q327.2596,383.2785 326.8445,383.2785 Q325.3699,383.2785 324.5936,382.3069 Q323.8172,381.3352 323.8172,379.4992 Q323.8172,377.6584 324.5936,376.6867 Q325.3699,375.7151 326.8445,375.7151 Q327.2596,375.7151 327.6404,375.803 Q328.0213,375.8908 328.3533,376.0666 L328.3533,377.6682 Q327.9822,377.3264 327.6331,377.1677 Q327.284,377.009 326.9129,377.009 Q326.1219,377.009 325.719,377.6365 Q325.3162,378.2639 325.3162,379.4992 Q325.3162,380.7297 325.719,381.3572 Q326.1219,381.9846 326.9129,381.9846 Q327.284,381.9846 327.6331,381.8259 Q327.9822,381.6672 328.3533,381.3254 Z " fill="#FFFFFF"/><text fill="#EEEEEE" font-family="'Verdana'" font-size="9.1667" lengthAdjust="spacing" textLength="51.2044" x="341.825" y="383.0326">component</text><line style="stroke:#304D6D;stroke-width:0.8333;" x1="315.9917" x2="398.8628" y1="393.2905" y2="393.2905"/><text fill="#EEEEEE" font-family="'Verdana'" font-size="9.1667" lengthAdjust="spacing" textLength="28.1087" x="324.325" y="410.0064">image</text><text fill="#EEEEEE" font-family="'Verdana'" font-size="9.1667" lengthAdjust="spacing" textLength="25.6828" x="324.325" y="429.4803">name</text><line style="stroke:#304D6D;stroke-width:0.8333;" x1="315.9917" x2="398.8628" y1="438.905" y2="438.905"/></g><!--class manifest--><g class="entity" data-entity="manifest" data-source-line="9" data-uid="ent0016" id="entity_manifest"><rect fill="url(#g1nu3ol9vahufb0)" height="60.6144" rx="3.3333" ry="3.3333" style="stroke:#304D6D;stroke-width:0.8333;" width="73.1421" x="254.1833" y="124.775"/><rect fill="url(#g1nu3ol9vahufb1)" height="27.8072" rx="3.3333" ry="3.3333" style="stroke:url(#g1nu3ol9vahufb1);stroke-width:0.8333;" width="73.1421" x="254.1833" y="124.775"/><rect fill="url(#g1nu3ol9vahufb1)" height="3.3333" style="stroke:url(#g1nu3ol9vahufb1);stroke-width:0.8333;" width="73.1421" x="254.1833" y="149.2489"/><rect fill="none" height="60.6144" rx="3.3333" ry="3.3333" style="stroke:#304D6D;stroke-width:0.8333;" width="73.1421" x="254.1833" y="124.775"/><ellipse cx="265.85" cy="138.6786" fill="#B8B8B8" rx="8.3333" ry="8.3333" style="stroke:#6B6B6B;stroke-width:0.8333;"/><path d="M267.3783,142.2186 Q267.0365,142.3944 266.6605,142.4823 Q266.2846,142.5702 265.8695,142.5702 Q264.3949,142.5702 263.6186,141.5985 Q262.8422,140.6268 262.8422,138.7909 Q262.8422,136.9501 263.6186,135.9784 Q264.3949,135.0067 265.8695,135.0067 Q266.2846,135.0067 266.6654,135.0946 Q267.0463,135.1825 267.3783,135.3583 L267.3783,136.9599 Q267.0072,136.6181 266.6581,136.4594 Q266.309,136.3007 265.9379,136.3007 Q265.1469,136.3007 264.744,136.9281 Q264.3412,137.5556 264.3412,138.7909 Q264.3412,140.0214 264.744,140.6488 Q265.1469,141.2763 265.9379,141.2763 Q266.309,141.2763 266.6581,141.1176 Q267.0072,140.9589 267.3783,140.6171 Z " fill="#FFFFFF"/><text fill="#EEEEEE" font-family="'Verdana'" font-size="9.1667" lengthAdjust="spacing" textLength="39.8088" x="280.85" y="142.3242">manifest</text><line style="stroke:#304D6D;stroke-width:0.8333;" x1="255.0167" x2="326.4921" y1="152.5822" y2="152.5822"/><text fill="#EEEEEE" font-family="'Verdana'" font-size="9.1667" lengthAdjust="spacing" textLength="25.6828" x="263.35" y="169.2981">name</text><line style="stroke:#304D6D;stroke-width:0.8333;" x1="255.0167" x2="326.4921" y1="178.7228" y2="178.7228"/></g><!--class components--><g class="entity" data-entity="components" data-source-line="9" data-uid="ent0017" id="entity_components"><rect fill="url(#g1nu3ol9vahufb0)" height="41.1405" rx="3.3333" ry="3.3333" style="stroke:#304D6D;stroke-width:0.8333;" width="89.3136" x="257.7667" y="264.6"/><rect fill="url(#g1nu3ol9vahufb1)" height="27.8072" rx="3.3333" ry="3.3333" style="stroke:url(#g1nu3ol9vahufb1);stroke-width:0.8333;" width="89.3136" x="257.7667" y="264.6"/><rect fill="url(#g1nu3ol9vahufb1)" height="3.3333" style="stroke:url(#g1nu3ol9vahufb1);stroke-width:0.8333;" width="89.3136" x="257.7667" y="289.0739"/><rect fill="none" height="41.1405" rx="3.3333" ry="3.3333" style="stroke:#304D6D;stroke-width:0.8333;" width="89.3136" x="257.7667" y="264.6"/><ellipse cx="269.4333" cy="278.5036" fill="#B8B8B8" rx="8.3333" ry="8.3333" style="stroke:#6B6B6B;stroke-width:0.8333;"/><path d="M270.9617,282.0436 Q270.6199,282.2194 270.2439,282.3073 Q269.8679,282.3952 269.4529,282.3952 Q267.9783,282.3952 267.2019,281.4235 Q266.4255,280.4518 266.4255,278.6159 Q266.4255,276.7751 267.2019,275.8034 Q267.9783,274.8317 269.4529,274.8317 Q269.8679,274.8317 270.2488,274.9196 Q270.6296,275.0075 270.9617,275.1833 L270.9617,276.7849 Q270.5906,276.4431 270.2414,276.2844 Q269.8923,276.1257 269.5212,276.1257 Q268.7302,276.1257 268.3274,276.7531 Q267.9245,277.3806 267.9245,278.6159 Q267.9245,279.8464 268.3274,280.4738 Q268.7302,281.1013 269.5212,281.1013 Q269.8923,281.1013 270.2414,280.9426 Q270.5906,280.7839 270.9617,280.4421 Z " fill="#FFFFFF"/><text fill="#EEEEEE" font-family="'Verdana'" font-size="9.1667" lengthAdjust="spacing" textLength="55.9802" x="284.4333" y="282.1492">components</text><line style="stroke:#304D6D;stroke-width:0.8333;" x1="258.6" x2="346.2469" y1="292.4072" y2="292.4072"/><line style="stroke:#304D6D;stroke-width:0.8333;" x1="258.6" x2="346.2469" y1="299.0739" y2="299.0739"/></g><!--class link--><g class="entity" data-entity="link" data-source-line="12" data-uid="ent0021" id="entity_link"><rect fill="url(#g1nu3ol9vahufb0)" height="119.0361" rx="3.3333" ry="3.3333" style="stroke:#304D6D;stroke-width:0.8333;" width="70.245" x="212.3" y="586.7083"/><rect fill="url(#g1nu3ol9vahufb1)" height="27.8072" rx="3.3333" ry="3.3333" style="stroke:url(#g1nu3ol9vahufb1);stroke-width:0.8333;" width="70.245" x="212.3" y="586.7083"/><rect fill="url(#g1nu3ol9vahufb1)" height="3.3333" style="stroke:url(#g1nu3ol9vahufb1);stroke-width:0.8333;" width="70.245" x="212.3" y="611.1822"/><rect fill="none" height="119.0361" rx="3.3333" ry="3.3333" style="stroke:#304D6D;stroke-width:0.8333;" width="70.245" x="212.3" y="586.7083"/><ellipse cx="233.2615" cy="600.6119" fill="#B8B8B8" rx="8.3333" ry="8.3333" style="stroke:#6B6B6B;stroke-width:0.8333;"/><path d="M234.7898,604.152 Q234.448,604.3278 234.072,604.4156 Q233.696,604.5035 233.281,604.5035 Q231.8064,604.5035 231.03,603.5319 Q230.2537,602.5602 230.2537,600.7242 Q230.2537,598.8834 231.03,597.9117 Q231.8064,596.9401 233.281,596.9401 Q233.696,596.9401 234.0769,597.028 Q234.4578,597.1158 234.7898,597.2916 L234.7898,598.8932 Q234.4187,598.5514 234.0696,598.3927 Q233.7205,598.234 233.3494,598.234 Q232.5583,598.234 232.1555,598.8615 Q231.7527,599.4889 231.7527,600.7242 Q231.7527,601.9547 232.1555,602.5822 Q232.5583,603.2096 233.3494,603.2096 Q233.7205,603.2096 234.0696,603.0509 Q234.4187,602.8922 234.7898,602.5504 Z " fill="#FFFFFF"/><text fill="#EEEEEE" font-family="'Verdana'" font-size="9.1667" lengthAdjust="spacing" textLength="16.2565" x="250.327" y="604.2576">link</text><line style="stroke:#304D6D;stroke-width:0.8333;" x1="213.1333" x2="281.7116" y1="614.5155" y2="614.5155"/><text fill="#EEEEEE" font-family="'Verdana'" font-size="9.1667" lengthAdjust="spacing" textLength="27.8133" x="221.4667" y="631.2314">target</text><text fill="#EEEEEE" font-family="'Verdana'" font-size="9.1667" lengthAdjust="spacing" textLength="21.4172" x="221.4667" y="650.7053">pack</text><text fill="#EEEEEE" font-family="'Verdana'" font-size="9.1667" lengthAdjust="spacing" textLength="51.9116" x="221.4667" y="670.1792">namespace</text><text fill="#EEEEEE" font-family="'Verdana'" font-size="9.1667" lengthAdjust="spacing" textLength="45.0411" x="221.4667" y="689.6531">interfaces</text><line style="stroke:#304D6D;stroke-width:0.8333;" x1="213.1333" x2="281.7116" y1="699.0777" y2="699.0777"/></g><!--class config--><g class="entity" data-entity="config" data-source-line="12" data-uid="ent0022" id="entity_config"><rect fill="url(#g1nu3ol9vahufb0)" height="80.0883" rx="3.3333" ry="3.3333" style="stroke:#304D6D;stroke-width:0.8333;" width="60.9229" x="216.9583" y="765.4833"/><rect fill="url(#g1nu3ol9vahufb1)" height="27.8072" rx="3.3333" ry="3.3333" style="stroke:url(#g1nu3ol9vahufb1);stroke-width:0.8333;" width="60.9229" x="216.9583" y="765.4833"/><rect fill="url(#g1nu3ol9vahufb1)" height="3.3333" style="stroke:url(#g1nu3ol9vahufb1);stroke-width:0.8333;" width="60.9229" x="216.9583" y="789.9572"/><rect fill="none" height="80.0883" rx="3.3333" ry="3.3333" style="stroke:#304D6D;stroke-width:0.8333;" width="60.9229" x="216.9583" y="765.4833"/><ellipse cx="228.625" cy="779.3869" fill="#B8B8B8" rx="8.3333" ry="8.3333" style="stroke:#6B6B6B;stroke-width:0.8333;"/><path d="M230.1533,782.927 Q229.8115,783.1028 229.4355,783.1906 Q229.0596,783.2785 228.6445,783.2785 Q227.1699,783.2785 226.3936,782.3069 Q225.6172,781.3352 225.6172,779.4992 Q225.6172,777.6584 226.3936,776.6867 Q227.1699,775.7151 228.6445,775.7151 Q229.0596,775.7151 229.4404,775.803 Q229.8213,775.8908 230.1533,776.0666 L230.1533,777.6682 Q229.7822,777.3264 229.4331,777.1677 Q229.084,777.009 228.7129,777.009 Q227.9219,777.009 227.519,777.6365 Q227.1162,778.2639 227.1162,779.4992 Q227.1162,780.7297 227.519,781.3572 Q227.9219,781.9846 228.7129,781.9846 Q229.084,781.9846 229.4331,781.8259 Q229.7822,781.6672 230.1533,781.3254 Z " fill="#FFFFFF"/><text fill="#EEEEEE" font-family="'Verdana'" font-size="9.1667" lengthAdjust="spacing" textLength="27.5895" x="243.625" y="783.0326">config</text><line style="stroke:#304D6D;stroke-width:0.8333;" x1="217.7917" x2="277.0479" y1="793.2905" y2="793.2905"/><text fill="#EEEEEE" font-family="'Verdana'" font-size="9.1667" lengthAdjust="spacing" textLength="25.6828" x="226.125" y="810.0064">name</text><text fill="#EEEEEE" font-family="'Verdana'" font-size="9.1667" lengthAdjust="spacing" textLength="35.8521" x="226.125" y="829.4803">address</text><line style="stroke:#304D6D;stroke-width:0.8333;" x1="217.7917" x2="277.0479" y1="838.905" y2="838.905"/></g><!--class spreadscaler--><g class="entity" data-entity="spreadscaler" data-source-line="13" data-uid="ent0024" id="entity_spreadscaler"><rect fill="url(#g1nu3ol9vahufb0)" height="41.1405" rx="3.3333" ry="3.3333" style="stroke:#304D6D;stroke-width:0.8333;" width="91.3546" x="311.75" y="625.6583"/><rect fill="url(#g1nu3ol9vahufb1)" height="27.8072" rx="3.3333" ry="3.3333" style="stroke:url(#g1nu3ol9vahufb1);stroke-width:0.8333;" width="91.3546" x="311.75" y="625.6583"/><rect fill="url(#g1nu3ol9vahufb1)" height="3.3333" style="stroke:url(#g1nu3ol9vahufb1);stroke-width:0.8333;" width="91.3546" x="311.75" y="650.1322"/><rect fill="none" height="41.1405" rx="3.3333" ry="3.3333" style="stroke:#304D6D;stroke-width:0.8333;" width="91.3546" x="311.75" y="625.6583"/><ellipse cx="323.4167" cy="639.5619" fill="#B8B8B8" rx="8.3333" ry="8.3333" style="stroke:#6B6B6B;stroke-width:0.8333;"/><path d="M324.945,643.102 Q324.6032,643.2778 324.2272,643.3656 Q323.8512,643.4535 323.4362,643.4535 Q321.9616,643.4535 321.1852,642.4819 Q320.4089,641.5102 320.4089,639.6742 Q320.4089,637.8334 321.1852,636.8617 Q321.9616,635.8901 323.4362,635.8901 Q323.8512,635.8901 324.2321,635.978 Q324.613,636.0658 324.945,636.2416 L324.945,637.8432 Q324.5739,637.5014 324.2248,637.3427 Q323.8757,637.184 323.5046,637.184 Q322.7135,637.184 322.3107,637.8115 Q321.9079,638.4389 321.9079,639.6742 Q321.9079,640.9047 322.3107,641.5322 Q322.7135,642.1596 323.5046,642.1596 Q323.8757,642.1596 324.2248,642.0009 Q324.5739,641.8422 324.945,641.5004 Z " fill="#FFFFFF"/><text fill="#EEEEEE" font-family="'Verdana'" font-size="9.1667" lengthAdjust="spacing" textLength="58.0212" x="338.4167" y="643.2076">spreadscaler</text><line style="stroke:#304D6D;stroke-width:0.8333;" x1="312.5833" x2="402.2712" y1="653.4655" y2="653.4655"/><line style="stroke:#304D6D;stroke-width:0.8333;" x1="312.5833" x2="402.2712" y1="660.1322" y2="660.1322"/></g><!--class spread--><g class="entity" data-entity="spread" data-source-line="15" data-uid="ent0027" id="entity_spread"><rect fill="url(#g1nu3ol9vahufb0)" height="99.5622" rx="3.3333" ry="3.3333" style="stroke:#304D6D;stroke-width:0.8333;" width="64.4096" x="325.2167" y="755.75"/><rect fill="url(#g1nu3ol9vahufb1)" height="27.8072" rx="3.3333" ry="3.3333" style="stroke:url(#g1nu3ol9vahufb1);stroke-width:0.8333;" width="64.4096" x="325.2167" y="755.75"/><rect fill="url(#g1nu3ol9vahufb1)" height="3.3333" style="stroke:url(#g1nu3ol9vahufb1);stroke-width:0.8333;" width="64.4096" x="325.2167" y="780.2239"/><rect fill="none" height="99.5622" rx="3.3333" ry="3.3333" style="stroke:#304D6D;stroke-width:0.8333;" width="64.4096" x="325.2167" y="755.75"/><ellipse cx="336.8833" cy="769.6536" fill="#B8B8B8" rx="8.3333" ry="8.3333" style="stroke:#6B6B6B;stroke-width:0.8333;"/><path d="M338.4117,773.1936 Q338.0699,773.3694 337.6939,773.4573 Q337.3179,773.5452 336.9029,773.5452 Q335.4283,773.5452 334.6519,772.5735 Q333.8755,771.6018 333.8755,769.7659 Q333.8755,767.9251 334.6519,766.9534 Q335.4283,765.9817 336.9029,765.9817 Q337.3179,765.9817 337.6988,766.0696 Q338.0796,766.1575 338.4117,766.3333 L338.4117,767.9349 Q338.0406,767.5931 337.6914,767.4344 Q337.3423,767.2757 336.9712,767.2757 Q336.1802,767.2757 335.7774,767.9031 Q335.3745,768.5306 335.3745,769.7659 Q335.3745,770.9964 335.7774,771.6238 Q336.1802,772.2513 336.9712,772.2513 Q337.3423,772.2513 337.6914,772.0926 Q338.0406,771.9339 338.4117,771.5921 Z " fill="#FFFFFF"/><text fill="#EEEEEE" font-family="'Verdana'" font-size="9.1667" lengthAdjust="spacing" textLength="31.0763" x="351.8833" y="773.2992">spread</text><line style="stroke:#304D6D;stroke-width:0.8333;" x1="326.05" x2="388.7929" y1="783.5572" y2="783.5572"/><text fill="#EEEEEE" font-family="'Verdana'" font-size="9.1667" lengthAdjust="spacing" textLength="25.6828" x="334.3833" y="800.2731">name</text><text fill="#EEEEEE" font-family="'Verdana'" font-size="9.1667" lengthAdjust="spacing" textLength="30.6018" x="334.3833" y="819.747">weight</text><text fill="#EEEEEE" font-family="'Verdana'" font-size="9.1667" lengthAdjust="spacing" textLength="21.641" x="334.3833" y="839.2209">zone</text><line style="stroke:#304D6D;stroke-width:0.8333;" x1="326.05" x2="388.7929" y1="848.6455" y2="848.6455"/></g><!--class cluster_manifest--><g class="entity" data-entity="cluster_manifest" data-source-line="16" data-uid="ent0029" id="entity_cluster_manifest"><rect fill="url(#g1nu3ol9vahufb0)" height="41.1405" rx="3.3333" ry="3.3333" style="stroke:#304D6D;stroke-width:0.8333;" width="109.8222" x="195.0167" y="14.1667"/><rect fill="url(#g1nu3ol9vahufb1)" height="27.8072" rx="3.3333" ry="3.3333" style="stroke:url(#g1nu3ol9vahufb1);stroke-width:0.8333;" width="109.8222" x="195.0167" y="14.1667"/><rect fill="url(#g1nu3ol9vahufb1)" height="3.3333" style="stroke:url(#g1nu3ol9vahufb1);stroke-width:0.8333;" width="109.8222" x="195.0167" y="38.6405"/><rect fill="none" height="41.1405" rx="3.3333" ry="3.3333" style="stroke:#304D6D;stroke-width:0.8333;" width="109.8222" x="195.0167" y="14.1667"/><ellipse cx="206.6833" cy="28.0703" fill="#B8B8B8" rx="8.3333" ry="8.3333" style="stroke:#6B6B6B;stroke-width:0.8333;"/><path d="M208.2117,31.6103 Q207.8699,31.7861 207.4939,31.874 Q207.1179,31.9619 206.7029,31.9619 Q205.2283,31.9619 204.4519,30.9902 Q203.6755,30.0185 203.6755,28.1826 Q203.6755,26.3418 204.4519,25.3701 Q205.2283,24.3984 206.7029,24.3984 Q207.1179,24.3984 207.4988,24.4863 Q207.8796,24.5742 208.2117,24.75 L208.2117,26.3515 Q207.8406,26.0097 207.4914,25.851 Q207.1423,25.6923 206.7712,25.6923 Q205.9802,25.6923 205.5774,26.3198 Q205.1745,26.9472 205.1745,28.1826 Q205.1745,29.413 205.5774,30.0405 Q205.9802,30.6679 206.7712,30.6679 Q207.1423,30.6679 207.4914,30.5092 Q207.8406,30.3505 208.2117,30.0087 Z " fill="#FFFFFF"/><text fill="#EEEEEE" font-family="'Verdana'" font-size="9.1667" lengthAdjust="spacing" textLength="76.4889" x="221.6833" y="31.7159">cluster_manifest</text><line style="stroke:#304D6D;stroke-width:0.8333;" x1="195.85" x2="304.0055" y1="41.9739" y2="41.9739"/><line style="stroke:#304D6D;stroke-width:0.8333;" x1="195.85" x2="304.0055" y1="48.6405" y2="48.6405"/></g><!--reverse link clusters to cluster_nodes--><g class="link" data-entity-1="clusters" data-entity-2="cluster_nodes" data-source-line="3" data-uid="lnk4" id="link_clusters_cluster_nodes"><path codeLine="3" d="M179.925,205.5 C179.925,228.3417 179.925,246.0917 179.925,264.4333" fill="none" id="clusters-backto-cluster_nodes" style="stroke:#446E9B;stroke-width:2.5;"/><polygon fill="#446E9B" points="179.925,195.5,176.5917,200.5,179.925,205.5,183.2583,200.5,179.925,195.5" style="stroke:#446E9B;stroke-width:2.5;"/></g><!--reverse link nodes to node_labels--><g class="link" data-entity-1="nodes" data-entity-2="node_labels" data-source-line="4" data-uid="lnk7" id="link_nodes_node_labels"><path codeLine="4" d="M65.8872,215.1397 C64.0455,231.8397 63.15,240.0167 61.525,254.7" fill="none" id="nodes-backto-node_labels" style="stroke:#446E9B;stroke-width:2.5;"/><polygon fill="#446E9B" points="66.9833,205.2,63.122,209.8045,65.8872,215.1397,69.7485,210.5353,66.9833,205.2" style="stroke:#446E9B;stroke-width:2.5;"/></g><!--link cluster_node to clusters--><g class="link" data-entity-1="cluster_node" data-entity-2="clusters" data-source-line="5" data-uid="lnk9" id="link_cluster_node_clusters"><path codeLine="5" d="M116.9583,55.7 C127.2667,71.8417 142.05,94.975 154.7,114.775" fill="none" id="cluster_node-clusters" style="stroke:#446E9B;stroke-width:2.5;"/></g><!--link cluster_node to nodes--><g class="link" data-entity-1="cluster_node" data-entity-2="nodes" data-source-line="6" data-uid="lnk10" id="link_cluster_node_nodes"><path codeLine="6" d="M98.7167,55.7 C95.1,69.2583 90.1667,87.7583 85.55,105.0667" fill="none" id="cluster_node-nodes" style="stroke:#446E9B;stroke-width:2.5;"/></g><!--reverse link capability to traits--><g class="link" data-entity-1="capability" data-entity-2="traits" data-source-line="7" data-uid="lnk13" id="link_capability_traits"><path codeLine="7" d="M262.0152,435.2685 C271.9402,454.9268 282.5,475.8333 292.4,495.45" fill="none" id="capability-backto-traits" style="stroke:#446E9B;stroke-width:2.5;"/><polygon fill="#446E9B" points="257.5083,426.3417,256.7862,432.3074,262.0152,435.2685,262.7374,429.3028,257.5083,426.3417" style="stroke:#446E9B;stroke-width:2.5;"/></g><!--reverse link component to traits--><g class="link" data-entity-1="component" data-entity-2="traits" data-source-line="8" data-uid="lnk15" id="link_component_traits"><path codeLine="8" d="M333.061,454.6191 C324.5693,471.4441 319.525,481.425 312.525,495.2917" fill="none" id="component-backto-traits" style="stroke:#446E9B;stroke-width:2.5;"/><polygon fill="#446E9B" points="337.5667,445.6917,332.338,448.6535,333.061,454.6191,338.2896,451.6573,337.5667,445.6917" style="stroke:#446E9B;stroke-width:2.5;"/></g><!--reverse link manifest to components--><g class="link" data-entity-1="manifest" data-entity-2="components" data-source-line="9" data-uid="lnk18" id="link_manifest_components"><path codeLine="9" d="M294.3705,195.6674 C296.5621,219.8174 298.6917,243.2417 300.6083,264.3083" fill="none" id="manifest-backto-components" style="stroke:#446E9B;stroke-width:2.5;"/><polygon fill="#446E9B" points="293.4667,185.7083,290.5989,190.9891,294.3705,195.6674,297.2383,190.3866,293.4667,185.7083" style="stroke:#446E9B;stroke-width:2.5;"/></g><!--reverse link components to component--><g class="link" data-entity-1="components" data-entity-2="component" data-source-line="10" data-uid="lnk19" id="link_components_component"><path codeLine="10" d="M318.0617,319.7491 C325.545,335.8824 329.9583,345.4167 339.1333,365.2167" fill="none" id="components-backto-component" style="stroke:#446E9B;stroke-width:2.5;"/><polygon fill="none" points="311.75,306.1417,313.5259,321.853,322.5975,317.6452,311.75,306.1417" style="stroke:#446E9B;stroke-width:2.5;"/></g><!--reverse link components to capability--><g class="link" data-entity-1="components" data-entity-2="capability" data-source-line="11" data-uid="lnk20" id="link_components_capability"><path codeLine="11" d="M286.7852,319.7515 C276.6102,341.7099 266.7333,363.0167 256.6167,384.8583" fill="none" id="components-backto-capability" style="stroke:#446E9B;stroke-width:2.5;"/><polygon fill="none" points="293.0917,306.1417,282.2485,317.6494,291.3218,321.8537,293.0917,306.1417" style="stroke:#446E9B;stroke-width:2.5;"/></g><!--reverse link link to config--><g class="link" data-entity-1="link" data-entity-2="config" data-source-line="12" data-uid="lnk23" id="link_link_config"><path codeLine="12" d="M247.425,715.9833 C247.425,735.7417 247.425,747.2917 247.425,765.2" fill="none" id="link-backto-config" style="stroke:#446E9B;stroke-width:2.5;"/><polygon fill="#446E9B" points="247.425,705.9833,244.0917,710.9833,247.425,715.9833,250.7583,710.9833,247.425,705.9833" style="stroke:#446E9B;stroke-width:2.5;"/></g><!--reverse link traits to spreadscaler--><g class="link" data-entity-1="traits" data-entity-2="spreadscaler" data-source-line="13" data-uid="lnk25" id="link_traits_spreadscaler"><path codeLine="13" d="M314.9536,546.2341 C325.2536,570.2841 338.4833,601.175 348.8,625.2583" fill="none" id="traits-backto-spreadscaler" style="stroke:#446E9B;stroke-width:2.5;"/><polygon fill="#446E9B" points="311.0167,537.0417,309.921,542.9502,314.9536,546.2341,316.0493,540.3256,311.0167,537.0417" style="stroke:#446E9B;stroke-width:2.5;"/></g><!--reverse link traits to link--><g class="link" data-entity-1="traits" data-entity-2="link" data-source-line="14" data-uid="lnk26" id="link_traits_link"><path codeLine="14" d="M289.8928,546.2325 C284.1761,559.5659 280.3,568.625 272.7083,586.35" fill="none" id="traits-backto-link" style="stroke:#446E9B;stroke-width:2.5;"/><polygon fill="#446E9B" points="293.8333,537.0417,288.7994,540.3236,289.8928,546.2325,294.9267,542.9506,293.8333,537.0417" style="stroke:#446E9B;stroke-width:2.5;"/></g><!--reverse link spreadscaler to spread--><g class="link" data-entity-1="spreadscaler" data-entity-2="spread" data-source-line="15" data-uid="lnk28" id="link_spreadscaler_spread"><path codeLine="15" d="M357.425,677.025 C357.425,699.1417 357.425,725.6333 357.425,755.4917" fill="none" id="spreadscaler-backto-spread" style="stroke:#446E9B;stroke-width:2.5;"/><polygon fill="#446E9B" points="357.425,667.025,354.0917,672.025,357.425,677.025,360.7583,672.025,357.425,667.025" style="stroke:#446E9B;stroke-width:2.5;"/></g><!--link cluster_manifest to manifest--><g class="link" data-entity-1="cluster_manifest" data-entity-2="manifest" data-source-line="16" data-uid="lnk30" id="link_cluster_manifest_manifest"><path codeLine="16" d="M256.85,55.7 C263.3333,74.55 273.1083,102.95 280.5,124.425" fill="none" id="cluster_manifest-manifest" style="stroke:#446E9B;stroke-width:2.5;"/></g><!--link cluster_manifest to clusters--><g class="link" data-entity-1="cluster_manifest" data-entity-2="clusters" data-source-line="17" data-uid="lnk31" id="link_cluster_manifest_clusters"><path codeLine="17" d="M238.05,55.7 C228.5333,71.8417 214.8833,94.975 203.2083,114.775" fill="none" id="cluster_manifest-clusters" style="stroke:#446E9B;stroke-width:2.5;"/></g><!--SRC=[RLBBRiGW3Bpp5VHQQQiUgwZ_4dc3aqKB166lggtwyIKGYAlqWZmpVfiNlg57JH4cT71LD853_VxseIRt8CP4-lLoqJiOmsgGL7aBlrbZZaD7Ilhe8-Oir2GJHBXQP_bPCd42ovbTVLm31fQaXs1dfCfr3-5C-lD7IcUb5rFEXlkUACnsKRL6OIWc15DMa2I_XIWf2ky-NMyoIyt-L-nxwUIW0tWKim_QUbZ-CiMbrZoXBxJBZG_ydOFge8DcI0joG_dEzsPlEShX6s53xclE11tNRxr9p3G-ajk_GGuptUHdn0vA5-A7PAeOgcx-67j7O4n2eby0]--></g></svg>