<svg xmlns="http://www.w3.org/2000/svg" xmlns:xlink="http://www.w3.org/1999/xlink" contentStyleType="text/css" data-diagram-type="CLASS" height="663.3333px" preserveAspectRatio="none" style="width:395px;height:663px;" version="1.1" viewBox="0 0 395 663" width="395px" zoomAndPan="magnify"><defs><linearGradient id="g1xiakt3ml10nw0" x1="50%" x2="50%" y1="0%" y2="100%"><stop offset="0%" stop-color="#7C9AB9"/><stop offset="100%" stop-color="#304D6D"/></linearGradient><linearGradient id="g1xiakt3ml10nw1" x1="50%" x2="50%" y1="0%" y2="100%"><stop offset="0%" stop-color="#7C9AB9"/><stop offset="100%" stop-color="#446E9B"/></linearGradient></defs><g><!--class manifest--><g class="entity" data-entity="manifest" data-source-line="3" data-uid="ent0002" id="entity_manifest"><rect fill="url(#g1xiakt3ml10nw0)" height="41.1405" rx="3.3333" ry="3.3333" style="stroke:#304D6D;stroke-width:0.8333;" width="73.1421" x="104.6917" y="14.1667"/><rect fill="url(#g1xiakt3ml10nw1)" height="27.8072" rx="3.3333" ry="3.3333" style="stroke:url(#g1xiakt3ml10nw1);stroke-width:0.8333;" width="73.1421" x="104.6917" y="14.1667"/><rect fill="url(#g1xiakt3ml10nw1)" height="3.3333" style="stroke:url(#g1xiakt3ml10nw1);stroke-width:0.8333;" width="73.1421" x="104.6917" y="38.6405"/><rect fill="none" height="41.1405" rx="3.3333" ry="3.3333" style="stroke:#304D6D;stroke-width:0.8333;" width="73.1421" x="104.6917" y="14.1667"/><ellipse cx="116.3583" cy="28.0703" fill="#B8B8B8" rx="8.3333" ry="8.3333" style="stroke:#6B6B6B;stroke-width:0.8333;"/><path d="M117.8867,31.6103 Q117.5449,31.7861 117.1689,31.874 Q116.7929,31.9619 116.3779,31.9619 Q114.9033,31.9619 114.1269,30.9902 Q113.3505,30.0185 113.3505,28.1826 Q113.3505,26.3418 114.1269,25.3701 Q114.9033,24.3984 116.3779,24.3984 Q116.7929,24.3984 117.1738,24.4863 Q117.5546,24.5742 117.8867,24.75 L117.8867,26.3515 Q117.5156,26.0097 117.1664,25.851 Q116.8173,25.6923 116.4462,25.6923 Q115.6552,25.6923 115.2524,26.3198 Q114.8495,26.9472 114.8495,28.1826 Q114.8495,29.413 115.2524,30.0405 Q115.6552,30.6679 116.4462,30.6679 Q116.8173,30.6679 117.1664,30.5092 Q117.5156,30.3505 117.8867,30.0087 Z " fill="#FFFFFF"/><text fill="#EEEEEE" font-family="'Verdana'" font-size="9.1667" lengthAdjust="spacing" textLength="39.8088" x="131.3583" y="31.7159">manifest</text><line style="stroke:#304D6D;stroke-width:0.8333;" x1="105.525" x2="177.0004" y1="41.9739" y2="41.9739"/><line style="stroke:#304D6D;stroke-width:0.8333;" x1="105.525" x2="177.0004" y1="48.6405" y2="48.6405"/></g><!--class cluster--><g class="entity" data-entity="cluster" data-source-line="3" data-uid="ent0003" id="entity_cluster"><rect fill="url(#g1xiakt3ml10nw0)" height="119.0361" rx="3.3333" ry="3.3333" style="stroke:#304D6D;stroke-width:0.8333;" width="64.1858" x="14.1667" y="105.3083"/><rect fill="url(#g1xiakt3ml10nw1)" height="27.8072" rx="3.3333" ry="3.3333" style="stroke:url(#g1xiakt3ml10nw1);stroke-width:0.8333;" width="64.1858" x="14.1667" y="105.3083"/><rect fill="url(#g1xiakt3ml10nw1)" height="3.3333" style="stroke:url(#g1xiakt3ml10nw1);stroke-width:0.8333;" width="64.1858" x="14.1667" y="129.7822"/><rect fill="none" height="119.0361" rx="3.3333" ry="3.3333" style="stroke:#304D6D;stroke-width:0.8333;" width="64.1858" x="14.1667" y="105.3083"/><ellipse cx="25.8333" cy="119.2119" fill="#B8B8B8" rx="8.3333" ry="8.3333" style="stroke:#6B6B6B;stroke-width:0.8333;"/><path d="M27.3617,122.752 Q27.0199,122.9278 26.6439,123.0156 Q26.2679,123.1035 25.8529,123.1035 Q24.3783,123.1035 23.6019,122.1319 Q22.8255,121.1602 22.8255,119.3242 Q22.8255,117.4834 23.6019,116.5117 Q24.3783,115.5401 25.8529,115.5401 Q26.2679,115.5401 26.6488,115.628 Q27.0296,115.7158 27.3617,115.8916 L27.3617,117.4932 Q26.9906,117.1514 26.6414,116.9927 Q26.2923,116.834 25.9212,116.834 Q25.1302,116.834 24.7274,117.4615 Q24.3245,118.0889 24.3245,119.3242 Q24.3245,120.5547 24.7274,121.1822 Q25.1302,121.8096 25.9212,121.8096 Q26.2923,121.8096 26.6414,121.6509 Q26.9906,121.4922 27.3617,121.1504 Z " fill="#FFFFFF"/><text fill="#EEEEEE" font-family="'Verdana'" font-size="9.1667" lengthAdjust="spacing" textLength="30.8525" x="40.8333" y="122.8576">cluster</text><line style="stroke:#304D6D;stroke-width:0.8333;" x1="15" x2="77.5191" y1="133.1155" y2="133.1155"/><text fill="#EEEEEE" font-family="'Verdana'" font-size="9.1667" lengthAdjust="spacing" textLength="25.6828" x="23.3333" y="149.8314">name</text><text fill="#EEEEEE" font-family="'Verdana'" font-size="9.1667" lengthAdjust="spacing" textLength="36.0848" x="23.3333" y="169.3053">nats-url</text><text fill="#EEEEEE" font-family="'Verdana'" font-size="9.1667" lengthAdjust="spacing" textLength="44.8755" x="23.3333" y="188.7792">[]workers</text><text fill="#EEEEEE" font-family="'Verdana'" font-size="9.1667" lengthAdjust="spacing" textLength="29.8051" x="23.3333" y="208.2531">[]leafs</text><line style="stroke:#304D6D;stroke-width:0.8333;" x1="15" x2="77.5191" y1="217.6777" y2="217.6777"/></g><!--class components--><g class="entity" data-entity="components" data-source-line="4" data-uid="ent0005" id="entity_components"><rect fill="url(#g1xiakt3ml10nw0)" height="41.1405" rx="3.3333" ry="3.3333" style="stroke:#304D6D;stroke-width:0.8333;" width="89.3136" x="192.4333" y="144.2583"/><rect fill="url(#g1xiakt3ml10nw1)" height="27.8072" rx="3.3333" ry="3.3333" style="stroke:url(#g1xiakt3ml10nw1);stroke-width:0.8333;" width="89.3136" x="192.4333" y="144.2583"/><rect fill="url(#g1xiakt3ml10nw1)" height="3.3333" style="stroke:url(#g1xiakt3ml10nw1);stroke-width:0.8333;" width="89.3136" x="192.4333" y="168.7322"/><rect fill="none" height="41.1405" rx="3.3333" ry="3.3333" style="stroke:#304D6D;stroke-width:0.8333;" width="89.3136" x="192.4333" y="144.2583"/><ellipse cx="204.1" cy="158.1619" fill="#B8B8B8" rx="8.3333" ry="8.3333" style="stroke:#6B6B6B;stroke-width:0.8333;"/><path d="M205.6283,161.702 Q205.2865,161.8778 204.9105,161.9656 Q204.5346,162.0535 204.1195,162.0535 Q202.6449,162.0535 201.8686,161.0819 Q201.0922,160.1102 201.0922,158.2742 Q201.0922,156.4334 201.8686,155.4617 Q202.6449,154.4901 204.1195,154.4901 Q204.5346,154.4901 204.9154,154.578 Q205.2963,154.6658 205.6283,154.8416 L205.6283,156.4432 Q205.2572,156.1014 204.9081,155.9427 Q204.559,155.784 204.1879,155.784 Q203.3969,155.784 202.994,156.4115 Q202.5912,157.0389 202.5912,158.2742 Q202.5912,159.5047 202.994,160.1322 Q203.3969,160.7596 204.1879,160.7596 Q204.559,160.7596 204.9081,160.6009 Q205.2572,160.4422 205.6283,160.1004 Z " fill="#FFFFFF"/><text fill="#EEEEEE" font-family="'Verdana'" font-size="9.1667" lengthAdjust="spacing" textLength="55.9802" x="219.1" y="161.8076">components</text><line style="stroke:#304D6D;stroke-width:0.8333;" x1="193.2667" x2="280.9136" y1="172.0655" y2="172.0655"/><line style="stroke:#304D6D;stroke-width:0.8333;" x1="193.2667" x2="280.9136" y1="178.7322" y2="178.7322"/></g><!--class component--><g class="entity" data-entity="component" data-source-line="5" data-uid="ent0007" id="entity_component"><rect fill="url(#g1xiakt3ml10nw0)" height="60.6144" rx="3.3333" ry="3.3333" style="stroke:#304D6D;stroke-width:0.8333;" width="84.5378" x="194.825" y="274.3417"/><rect fill="url(#g1xiakt3ml10nw1)" height="27.8072" rx="3.3333" ry="3.3333" style="stroke:url(#g1xiakt3ml10nw1);stroke-width:0.8333;" width="84.5378" x="194.825" y="274.3417"/><rect fill="url(#g1xiakt3ml10nw1)" height="3.3333" style="stroke:url(#g1xiakt3ml10nw1);stroke-width:0.8333;" width="84.5378" x="194.825" y="298.8155"/><rect fill="none" height="60.6144" rx="3.3333" ry="3.3333" style="stroke:#304D6D;stroke-width:0.8333;" width="84.5378" x="194.825" y="274.3417"/><ellipse cx="206.4917" cy="288.2453" fill="#B8B8B8" rx="8.3333" ry="8.3333" style="stroke:#6B6B6B;stroke-width:0.8333;"/><path d="M208.02,291.7853 Q207.6782,291.9611 207.3022,292.049 Q206.9262,292.1369 206.5112,292.1369 Q205.0366,292.1369 204.2602,291.1652 Q203.4839,290.1935 203.4839,288.3576 Q203.4839,286.5168 204.2602,285.5451 Q205.0366,284.5734 206.5112,284.5734 Q206.9262,284.5734 207.3071,284.6613 Q207.688,284.7492 208.02,284.925 L208.02,286.5265 Q207.6489,286.1847 207.2998,286.026 Q206.9507,285.8673 206.5796,285.8673 Q205.7885,285.8673 205.3857,286.4948 Q204.9829,287.1222 204.9829,288.3576 Q204.9829,289.588 205.3857,290.2155 Q205.7885,290.8429 206.5796,290.8429 Q206.9507,290.8429 207.2998,290.6842 Q207.6489,290.5255 208.02,290.1837 Z " fill="#FFFFFF"/><text fill="#EEEEEE" font-family="'Verdana'" font-size="9.1667" lengthAdjust="spacing" textLength="51.2044" x="221.4917" y="291.8909">component</text><line style="stroke:#304D6D;stroke-width:0.8333;" x1="195.6583" x2="278.5294" y1="302.1489" y2="302.1489"/><text fill="#EEEEEE" font-family="'Verdana'" font-size="9.1667" lengthAdjust="spacing" textLength="35.1717" x="203.9917" y="318.8648">replicas</text><line style="stroke:#304D6D;stroke-width:0.8333;" x1="195.6583" x2="278.5294" y1="328.2894" y2="328.2894"/></g><!--class capability--><g class="entity" data-entity="capability" data-source-line="6" data-uid="ent0009" id="entity_capability"><rect fill="url(#g1xiakt3ml10nw0)" height="41.1405" rx="3.3333" ry="3.3333" style="stroke:#304D6D;stroke-width:0.8333;" width="77.1257" x="308.5333" y="284.0833"/><rect fill="url(#g1xiakt3ml10nw1)" height="27.8072" rx="3.3333" ry="3.3333" style="stroke:url(#g1xiakt3ml10nw1);stroke-width:0.8333;" width="77.1257" x="308.5333" y="284.0833"/><rect fill="url(#g1xiakt3ml10nw1)" height="3.3333" style="stroke:url(#g1xiakt3ml10nw1);stroke-width:0.8333;" width="77.1257" x="308.5333" y="308.5572"/><rect fill="none" height="41.1405" rx="3.3333" ry="3.3333" style="stroke:#304D6D;stroke-width:0.8333;" width="77.1257" x="308.5333" y="284.0833"/><ellipse cx="320.2" cy="297.9869" fill="#B8B8B8" rx="8.3333" ry="8.3333" style="stroke:#6B6B6B;stroke-width:0.8333;"/><path d="M321.7283,301.527 Q321.3865,301.7028 321.0105,301.7906 Q320.6346,301.8785 320.2195,301.8785 Q318.7449,301.8785 317.9686,300.9069 Q317.1922,299.9352 317.1922,298.0992 Q317.1922,296.2584 317.9686,295.2867 Q318.7449,294.3151 320.2195,294.3151 Q320.6346,294.3151 321.0154,294.403 Q321.3963,294.4908 321.7283,294.6666 L321.7283,296.2682 Q321.3572,295.9264 321.0081,295.7677 Q320.659,295.609 320.2879,295.609 Q319.4969,295.609 319.094,296.2365 Q318.6912,296.8639 318.6912,298.0992 Q318.6912,299.3297 319.094,299.9572 Q319.4969,300.5846 320.2879,300.5846 Q320.659,300.5846 321.0081,300.4259 Q321.3572,300.2672 321.7283,299.9254 Z " fill="#FFFFFF"/><text fill="#EEEEEE" font-family="'Verdana'" font-size="9.1667" lengthAdjust="spacing" textLength="43.7923" x="335.2" y="301.6326">capability</text><line style="stroke:#304D6D;stroke-width:0.8333;" x1="309.3667" x2="384.8257" y1="311.8905" y2="311.8905"/><line style="stroke:#304D6D;stroke-width:0.8333;" x1="309.3667" x2="384.8257" y1="318.5572" y2="318.5572"/></g><!--class instance--><g class="entity" data-entity="instance" data-source-line="7" data-uid="ent0011" id="entity_instance"><rect fill="url(#g1xiakt3ml10nw0)" height="99.5622" rx="3.3333" ry="3.3333" style="stroke:#304D6D;stroke-width:0.8333;" width="71.58" x="311.3" y="115.05"/><rect fill="url(#g1xiakt3ml10nw1)" height="27.8072" rx="3.3333" ry="3.3333" style="stroke:url(#g1xiakt3ml10nw1);stroke-width:0.8333;" width="71.58" x="311.3" y="115.05"/><rect fill="url(#g1xiakt3ml10nw1)" height="3.3333" style="stroke:url(#g1xiakt3ml10nw1);stroke-width:0.8333;" width="71.58" x="311.3" y="139.5239"/><rect fill="none" height="99.5622" rx="3.3333" ry="3.3333" style="stroke:#304D6D;stroke-width:0.8333;" width="71.58" x="311.3" y="115.05"/><ellipse cx="322.9667" cy="128.9536" fill="#B8B8B8" rx="8.3333" ry="8.3333" style="stroke:#6B6B6B;stroke-width:0.8333;"/><path d="M324.495,132.4936 Q324.1532,132.6694 323.7772,132.7573 Q323.4012,132.8452 322.9862,132.8452 Q321.5116,132.8452 320.7352,131.8735 Q319.9589,130.9018 319.9589,129.0659 Q319.9589,127.2251 320.7352,126.2534 Q321.5116,125.2817 322.9862,125.2817 Q323.4012,125.2817 323.7821,125.3696 Q324.163,125.4575 324.495,125.6333 L324.495,127.2349 Q324.1239,126.8931 323.7748,126.7344 Q323.4257,126.5757 323.0546,126.5757 Q322.2635,126.5757 321.8607,127.2031 Q321.4579,127.8306 321.4579,129.0659 Q321.4579,130.2964 321.8607,130.9238 Q322.2635,131.5513 323.0546,131.5513 Q323.4257,131.5513 323.7748,131.3926 Q324.1239,131.2339 324.495,130.8921 Z " fill="#FFFFFF"/><text fill="#EEEEEE" font-family="'Verdana'" font-size="9.1667" lengthAdjust="spacing" textLength="38.2467" x="337.9667" y="132.5992">instance</text><line style="stroke:#304D6D;stroke-width:0.8333;" x1="312.1333" x2="382.0467" y1="142.8572" y2="142.8572"/><text fill="#EEEEEE" font-family="'Verdana'" font-size="9.1667" lengthAdjust="spacing" textLength="25.6828" x="320.4667" y="159.5731">name</text><text fill="#EEEEEE" font-family="'Verdana'" font-size="9.1667" lengthAdjust="spacing" textLength="28.1087" x="320.4667" y="179.047">image</text><text fill="#EEEEEE" font-family="'Verdana'" font-size="9.1667" lengthAdjust="spacing" textLength="32.2579" x="320.4667" y="198.5209">[]traits</text><line style="stroke:#304D6D;stroke-width:0.8333;" x1="312.1333" x2="382.0467" y1="207.9455" y2="207.9455"/></g><!--class spreadscaler--><g class="entity" data-entity="spreadscaler" data-source-line="9" data-uid="ent0014" id="entity_spreadscaler"><rect fill="url(#g1xiakt3ml10nw0)" height="80.0883" rx="3.3333" ry="3.3333" style="stroke:#304D6D;stroke-width:0.8333;" width="107.592" x="174.1333" y="404.4333"/><rect fill="url(#g1xiakt3ml10nw1)" height="27.8072" rx="3.3333" ry="3.3333" style="stroke:url(#g1xiakt3ml10nw1);stroke-width:0.8333;" width="107.592" x="174.1333" y="404.4333"/><rect fill="url(#g1xiakt3ml10nw1)" height="3.3333" style="stroke:url(#g1xiakt3ml10nw1);stroke-width:0.8333;" width="107.592" x="174.1333" y="428.9072"/><rect fill="none" height="80.0883" rx="3.3333" ry="3.3333" style="stroke:#304D6D;stroke-width:0.8333;" width="107.592" x="174.1333" y="404.4333"/><ellipse cx="193.1068" cy="418.3369" fill="#B8B8B8" rx="8.3333" ry="8.3333" style="stroke:#6B6B6B;stroke-width:0.8333;"/><path d="M194.6351,421.877 Q194.2933,422.0528 193.9174,422.1406 Q193.5414,422.2285 193.1264,422.2285 Q191.6517,422.2285 190.8754,421.2569 Q190.099,420.2852 190.099,418.4492 Q190.099,416.6084 190.8754,415.6367 Q191.6517,414.6651 193.1264,414.6651 Q193.5414,414.6651 193.9223,414.753 Q194.3031,414.8408 194.6351,415.0166 L194.6351,416.6182 Q194.2641,416.2764 193.9149,416.1177 Q193.5658,415.959 193.1947,415.959 Q192.4037,415.959 192.0009,416.5865 Q191.598,417.2139 191.598,418.4492 Q191.598,419.6797 192.0009,420.3072 Q192.4037,420.9346 193.1947,420.9346 Q193.5658,420.9346 193.9149,420.7759 Q194.2641,420.6172 194.6351,420.2754 Z " fill="#FFFFFF"/><text fill="#EEEEEE" font-family="'Verdana'" font-size="9.1667" lengthAdjust="spacing" textLength="58.0212" x="209.7306" y="421.9826">spreadscaler</text><line style="stroke:#304D6D;stroke-width:0.8333;" x1="174.9667" x2="280.892" y1="432.2405" y2="432.2405"/><text fill="#EEEEEE" font-family="'Verdana'" font-size="9.1667" lengthAdjust="spacing" textLength="43.0225" x="183.3" y="448.9564">instances</text><text fill="#EEEEEE" font-family="'Verdana'" font-size="9.1667" lengthAdjust="spacing" textLength="89.2586" x="183.3" y="468.4303">[]spread properties</text><line style="stroke:#304D6D;stroke-width:0.8333;" x1="174.9667" x2="280.892" y1="477.855" y2="477.855"/></g><!--class link--><g class="entity" data-entity="link" data-source-line="10" data-uid="ent0016" id="entity_link"><rect fill="url(#g1xiakt3ml10nw0)" height="119.0361" rx="3.3333" ry="3.3333" style="stroke:#304D6D;stroke-width:0.8333;" width="71.6996" x="311.2417" y="384.9583"/><rect fill="url(#g1xiakt3ml10nw1)" height="27.8072" rx="3.3333" ry="3.3333" style="stroke:url(#g1xiakt3ml10nw1);stroke-width:0.8333;" width="71.6996" x="311.2417" y="384.9583"/><rect fill="url(#g1xiakt3ml10nw1)" height="3.3333" style="stroke:url(#g1xiakt3ml10nw1);stroke-width:0.8333;" width="71.6996" x="311.2417" y="409.4322"/><rect fill="none" height="119.0361" rx="3.3333" ry="3.3333" style="stroke:#304D6D;stroke-width:0.8333;" width="71.6996" x="311.2417" y="384.9583"/><ellipse cx="332.8577" cy="398.8619" fill="#B8B8B8" rx="8.3333" ry="8.3333" style="stroke:#6B6B6B;stroke-width:0.8333;"/><path d="M334.3861,402.402 Q334.0443,402.5778 333.6683,402.6656 Q333.2923,402.7535 332.8773,402.7535 Q331.4027,402.7535 330.6263,401.7819 Q329.8499,400.8102 329.8499,398.9742 Q329.8499,397.1334 330.6263,396.1617 Q331.4027,395.1901 332.8773,395.1901 Q333.2923,395.1901 333.6732,395.278 Q334.054,395.3658 334.3861,395.5416 L334.3861,397.1432 Q334.015,396.8014 333.6658,396.6427 Q333.3167,396.484 332.9456,396.484 Q332.1546,396.484 331.7518,397.1115 Q331.3489,397.7389 331.3489,398.9742 Q331.3489,400.2047 331.7518,400.8322 Q332.1546,401.4596 332.9456,401.4596 Q333.3167,401.4596 333.6658,401.3009 Q334.015,401.1422 334.3861,400.8004 Z " fill="#FFFFFF"/><text fill="#EEEEEE" font-family="'Verdana'" font-size="9.1667" lengthAdjust="spacing" textLength="16.2565" x="350.0687" y="402.5076">link</text><line style="stroke:#304D6D;stroke-width:0.8333;" x1="312.075" x2="382.108" y1="412.7655" y2="412.7655"/><text fill="#EEEEEE" font-family="'Verdana'" font-size="9.1667" lengthAdjust="spacing" textLength="27.8133" x="320.4083" y="429.4814">target</text><text fill="#EEEEEE" font-family="'Verdana'" font-size="9.1667" lengthAdjust="spacing" textLength="51.9116" x="320.4083" y="448.9553">namespace</text><text fill="#EEEEEE" font-family="'Verdana'" font-size="9.1667" lengthAdjust="spacing" textLength="53.3663" x="320.4083" y="468.4292">[]interfaces</text><text fill="#EEEEEE" font-family="'Verdana'" font-size="9.1667" lengthAdjust="spacing" textLength="30.2885" x="320.4083" y="487.9031">source</text><line style="stroke:#304D6D;stroke-width:0.8333;" x1="312.075" x2="382.108" y1="497.3277" y2="497.3277"/></g><!--class spread--><g class="entity" data-entity="spread" data-source-line="12" data-uid="ent0019" id="entity_spread"><rect fill="url(#g1xiakt3ml10nw0)" height="99.5622" rx="3.3333" ry="3.3333" style="stroke:#304D6D;stroke-width:0.8333;" width="64.4096" x="195.725" y="554"/><rect fill="url(#g1xiakt3ml10nw1)" height="27.8072" rx="3.3333" ry="3.3333" style="stroke:url(#g1xiakt3ml10nw1);stroke-width:0.8333;" width="64.4096" x="195.725" y="554"/><rect fill="url(#g1xiakt3ml10nw1)" height="3.3333" style="stroke:url(#g1xiakt3ml10nw1);stroke-width:0.8333;" width="64.4096" x="195.725" y="578.4739"/><rect fill="none" height="99.5622" rx="3.3333" ry="3.3333" style="stroke:#304D6D;stroke-width:0.8333;" width="64.4096" x="195.725" y="554"/><ellipse cx="207.3917" cy="567.9036" fill="#B8B8B8" rx="8.3333" ry="8.3333" style="stroke:#6B6B6B;stroke-width:0.8333;"/><path d="M208.92,571.4436 Q208.5782,571.6194 208.2022,571.7073 Q207.8262,571.7952 207.4112,571.7952 Q205.9366,571.7952 205.1602,570.8235 Q204.3839,569.8518 204.3839,568.0159 Q204.3839,566.1751 205.1602,565.2034 Q205.9366,564.2317 207.4112,564.2317 Q207.8262,564.2317 208.2071,564.3196 Q208.588,564.4075 208.92,564.5833 L208.92,566.1849 Q208.5489,565.8431 208.1998,565.6844 Q207.8507,565.5257 207.4796,565.5257 Q206.6885,565.5257 206.2857,566.1531 Q205.8829,566.7806 205.8829,568.0159 Q205.8829,569.2464 206.2857,569.8738 Q206.6885,570.5013 207.4796,570.5013 Q207.8507,570.5013 208.1998,570.3426 Q208.5489,570.1839 208.92,569.8421 Z " fill="#FFFFFF"/><text fill="#EEEEEE" font-family="'Verdana'" font-size="9.1667" lengthAdjust="spacing" textLength="31.0763" x="222.3917" y="571.5492">spread</text><line style="stroke:#304D6D;stroke-width:0.8333;" x1="196.5583" x2="259.3013" y1="581.8072" y2="581.8072"/><text fill="#EEEEEE" font-family="'Verdana'" font-size="9.1667" lengthAdjust="spacing" textLength="25.6828" x="204.8917" y="598.5231">name</text><text fill="#EEEEEE" font-family="'Verdana'" font-size="9.1667" lengthAdjust="spacing" textLength="30.6018" x="204.8917" y="617.997">weight</text><text fill="#EEEEEE" font-family="'Verdana'" font-size="9.1667" lengthAdjust="spacing" textLength="21.641" x="204.8917" y="637.4709">zone</text><line style="stroke:#304D6D;stroke-width:0.8333;" x1="196.5583" x2="259.3013" y1="646.8955" y2="646.8955"/></g><!--class config--><g class="entity" data-entity="config" data-source-line="13" data-uid="ent0021" id="entity_config"><rect fill="url(#g1xiakt3ml10nw0)" height="80.0883" rx="3.3333" ry="3.3333" style="stroke:#304D6D;stroke-width:0.8333;" width="60.9229" x="316.6333" y="563.7333"/><rect fill="url(#g1xiakt3ml10nw1)" height="27.8072" rx="3.3333" ry="3.3333" style="stroke:url(#g1xiakt3ml10nw1);stroke-width:0.8333;" width="60.9229" x="316.6333" y="563.7333"/><rect fill="url(#g1xiakt3ml10nw1)" height="3.3333" style="stroke:url(#g1xiakt3ml10nw1);stroke-width:0.8333;" width="60.9229" x="316.6333" y="588.2072"/><rect fill="none" height="80.0883" rx="3.3333" ry="3.3333" style="stroke:#304D6D;stroke-width:0.8333;" width="60.9229" x="316.6333" y="563.7333"/><ellipse cx="328.3" cy="577.6369" fill="#B8B8B8" rx="8.3333" ry="8.3333" style="stroke:#6B6B6B;stroke-width:0.8333;"/><path d="M329.8283,581.177 Q329.4865,581.3528 329.1105,581.4406 Q328.7346,581.5285 328.3195,581.5285 Q326.8449,581.5285 326.0686,580.5569 Q325.2922,579.5852 325.2922,577.7492 Q325.2922,575.9084 326.0686,574.9367 Q326.8449,573.9651 328.3195,573.9651 Q328.7346,573.9651 329.1154,574.053 Q329.4963,574.1408 329.8283,574.3166 L329.8283,575.9182 Q329.4572,575.5764 329.1081,575.4177 Q328.759,575.259 328.3879,575.259 Q327.5969,575.259 327.194,575.8865 Q326.7912,576.5139 326.7912,577.7492 Q326.7912,578.9797 327.194,579.6072 Q327.5969,580.2346 328.3879,580.2346 Q328.759,580.2346 329.1081,580.0759 Q329.4572,579.9172 329.8283,579.5754 Z " fill="#FFFFFF"/><text fill="#EEEEEE" font-family="'Verdana'" font-size="9.1667" lengthAdjust="spacing" textLength="27.5895" x="343.3" y="581.2826">config</text><line style="stroke:#304D6D;stroke-width:0.8333;" x1="317.4667" x2="376.7229" y1="591.5405" y2="591.5405"/><text fill="#EEEEEE" font-family="'Verdana'" font-size="9.1667" lengthAdjust="spacing" textLength="25.6828" x="325.8" y="608.2564">name</text><text fill="#EEEEEE" font-family="'Verdana'" font-size="9.1667" lengthAdjust="spacing" textLength="35.8521" x="325.8" y="627.7303">address</text><line style="stroke:#304D6D;stroke-width:0.8333;" x1="317.4667" x2="376.7229" y1="637.155" y2="637.155"/></g><!--class node--><g class="entity" data-entity="node" data-source-line="14" data-uid="ent0023" id="entity_node"><rect fill="url(#g1xiakt3ml10nw0)" height="99.5622" rx="3.3333" ry="3.3333" style="stroke:#304D6D;stroke-width:0.8333;" width="55.8695" x="107.4917" y="115.05"/><rect fill="url(#g1xiakt3ml10nw1)" height="27.8072" rx="3.3333" ry="3.3333" style="stroke:url(#g1xiakt3ml10nw1);stroke-width:0.8333;" width="55.8695" x="107.4917" y="115.05"/><rect fill="url(#g1xiakt3ml10nw1)" height="3.3333" style="stroke:url(#g1xiakt3ml10nw1);stroke-width:0.8333;" width="55.8695" x="107.4917" y="139.5239"/><rect fill="none" height="99.5622" rx="3.3333" ry="3.3333" style="stroke:#304D6D;stroke-width:0.8333;" width="55.8695" x="107.4917" y="115.05"/><ellipse cx="119.1583" cy="128.9536" fill="#B8B8B8" rx="8.3333" ry="8.3333" style="stroke:#6B6B6B;stroke-width:0.8333;"/><path d="M120.6867,132.4936 Q120.3449,132.6694 119.9689,132.7573 Q119.5929,132.8452 119.1779,132.8452 Q117.7033,132.8452 116.9269,131.8735 Q116.1505,130.9018 116.1505,129.0659 Q116.1505,127.2251 116.9269,126.2534 Q117.7033,125.2817 119.1779,125.2817 Q119.5929,125.2817 119.9738,125.3696 Q120.3546,125.4575 120.6867,125.6333 L120.6867,127.2349 Q120.3156,126.8931 119.9664,126.7344 Q119.6173,126.5757 119.2462,126.5757 Q118.4552,126.5757 118.0524,127.2031 Q117.6495,127.8306 117.6495,129.0659 Q117.6495,130.2964 118.0524,130.9238 Q118.4552,131.5513 119.2462,131.5513 Q119.6173,131.5513 119.9664,131.3926 Q120.3156,131.2339 120.6867,130.8921 Z " fill="#FFFFFF"/><text fill="#EEEEEE" font-family="'Verdana'" font-size="9.1667" lengthAdjust="spacing" textLength="22.5362" x="134.1583" y="132.5992">node</text><line style="stroke:#304D6D;stroke-width:0.8333;" x1="108.325" x2="162.5279" y1="142.8572" y2="142.8572"/><text fill="#EEEEEE" font-family="'Verdana'" font-size="9.1667" lengthAdjust="spacing" textLength="8.2267" x="116.6583" y="159.5731">id</text><text fill="#EEEEEE" font-family="'Verdana'" font-size="9.1667" lengthAdjust="spacing" textLength="21.641" x="116.6583" y="179.047">zone</text><text fill="#EEEEEE" font-family="'Verdana'" font-size="9.1667" lengthAdjust="spacing" textLength="34.8092" x="116.6583" y="198.5209">[]labels</text><line style="stroke:#304D6D;stroke-width:0.8333;" x1="108.325" x2="162.5279" y1="207.9455" y2="207.9455"/></g><!--class worker--><g class="entity" data-entity="worker" data-source-line="14" data-uid="ent0024" id="entity_worker"><rect fill="url(#g1xiakt3ml10nw0)" height="41.1405" rx="3.3333" ry="3.3333" style="stroke:#304D6D;stroke-width:0.8333;" width="65.1078" x="14.5417" y="284.0833"/><rect fill="url(#g1xiakt3ml10nw1)" height="27.8072" rx="3.3333" ry="3.3333" style="stroke:url(#g1xiakt3ml10nw1);stroke-width:0.8333;" width="65.1078" x="14.5417" y="284.0833"/><rect fill="url(#g1xiakt3ml10nw1)" height="3.3333" style="stroke:url(#g1xiakt3ml10nw1);stroke-width:0.8333;" width="65.1078" x="14.5417" y="308.5572"/><rect fill="none" height="41.1405" rx="3.3333" ry="3.3333" style="stroke:#304D6D;stroke-width:0.8333;" width="65.1078" x="14.5417" y="284.0833"/><ellipse cx="26.2083" cy="297.9869" fill="#B8B8B8" rx="8.3333" ry="8.3333" style="stroke:#6B6B6B;stroke-width:0.8333;"/><path d="M27.7367,301.527 Q27.3949,301.7028 27.0189,301.7906 Q26.6429,301.8785 26.2279,301.8785 Q24.7533,301.8785 23.9769,300.9069 Q23.2005,299.9352 23.2005,298.0992 Q23.2005,296.2584 23.9769,295.2867 Q24.7533,294.3151 26.2279,294.3151 Q26.6429,294.3151 27.0238,294.403 Q27.4046,294.4908 27.7367,294.6666 L27.7367,296.2682 Q27.3656,295.9264 27.0164,295.7677 Q26.6673,295.609 26.2962,295.609 Q25.5052,295.609 25.1024,296.2365 Q24.6995,296.8639 24.6995,298.0992 Q24.6995,299.3297 25.1024,299.9572 Q25.5052,300.5846 26.2962,300.5846 Q26.6673,300.5846 27.0164,300.4259 Q27.3656,300.2672 27.7367,299.9254 Z " fill="#FFFFFF"/><text fill="#EEEEEE" font-family="'Verdana'" font-size="9.1667" lengthAdjust="spacing" textLength="31.7745" x="41.2083" y="301.6326">worker</text><line style="stroke:#304D6D;stroke-width:0.8333;" x1="15.375" x2="78.8162" y1="311.8905" y2="311.8905"/><line style="stroke:#304D6D;stroke-width:0.8333;" x1="15.375" x2="78.8162" y1="318.5572" y2="318.5572"/></g><!--class leaf--><g class="entity" data-entity="leaf" data-source-line="15" data-uid="ent0026" id="entity_leaf"><rect fill="url(#g1xiakt3ml10nw0)" height="41.1405" rx="3.3333" ry="3.3333" style="stroke:#304D6D;stroke-width:0.8333;" width="50.0374" x="109.575" y="284.0833"/><rect fill="url(#g1xiakt3ml10nw1)" height="27.8072" rx="3.3333" ry="3.3333" style="stroke:url(#g1xiakt3ml10nw1);stroke-width:0.8333;" width="50.0374" x="109.575" y="284.0833"/><rect fill="url(#g1xiakt3ml10nw1)" height="3.3333" style="stroke:url(#g1xiakt3ml10nw1);stroke-width:0.8333;" width="50.0374" x="109.575" y="308.5572"/><rect fill="none" height="41.1405" rx="3.3333" ry="3.3333" style="stroke:#304D6D;stroke-width:0.8333;" width="50.0374" x="109.575" y="284.0833"/><ellipse cx="121.2417" cy="297.9869" fill="#B8B8B8" rx="8.3333" ry="8.3333" style="stroke:#6B6B6B;stroke-width:0.8333;"/><path d="M122.77,301.527 Q122.4282,301.7028 122.0522,301.7906 Q121.6762,301.8785 121.2612,301.8785 Q119.7866,301.8785 119.0102,300.9069 Q118.2339,299.9352 118.2339,298.0992 Q118.2339,296.2584 119.0102,295.2867 Q119.7866,294.3151 121.2612,294.3151 Q121.6762,294.3151 122.0571,294.403 Q122.438,294.4908 122.77,294.6666 L122.77,296.2682 Q122.3989,295.9264 122.0498,295.7677 Q121.7007,295.609 121.3296,295.609 Q120.5385,295.609 120.1357,296.2365 Q119.7329,296.8639 119.7329,298.0992 Q119.7329,299.3297 120.1357,299.9572 Q120.5385,300.5846 121.3296,300.5846 Q121.7007,300.5846 122.0498,300.4259 Q122.3989,300.2672 122.77,299.9254 Z " fill="#FFFFFF"/><text fill="#EEEEEE" font-family="'Verdana'" font-size="9.1667" lengthAdjust="spacing" textLength="16.7041" x="136.2417" y="301.6326">leaf</text><line style="stroke:#304D6D;stroke-width:0.8333;" x1="110.4083" x2="158.7791" y1="311.8905" y2="311.8905"/><line style="stroke:#304D6D;stroke-width:0.8333;" x1="110.4083" x2="158.7791" y1="318.5572" y2="318.5572"/></g><!--reverse link manifest to cluster--><g class="link" data-entity-1="manifest" data-entity-2="cluster" data-source-line="3" data-uid="lnk4" id="link_manifest_cluster"><path codeLine="3" d="M120.4685,63.6803 C107.7352,80.8886 94.8833,98.2667 78.6833,120.1583" fill="none" id="manifest-backto-cluster" style="stroke:#446E9B;stroke-width:2.5;"/><polygon fill="#446E9B" points="126.4167,55.6417,120.763,57.6782,120.4685,63.6803,126.1221,61.6437,126.4167,55.6417" style="stroke:#446E9B;stroke-width:2.5;"/></g><!--reverse link manifest to components--><g class="link" data-entity-1="manifest" data-entity-2="components" data-source-line="4" data-uid="lnk6" id="link_manifest_components"><path codeLine="4" d="M162.2147,63.6556 C180.1647,87.7056 204.0917,119.775 222.0667,143.8583" fill="none" id="manifest-backto-components" style="stroke:#446E9B;stroke-width:2.5;"/><polygon fill="#446E9B" points="156.2333,55.6417,156.5527,61.6424,162.2147,63.6556,161.8953,57.6549,156.2333,55.6417" style="stroke:#446E9B;stroke-width:2.5;"/></g><!--reverse link components to component--><g class="link" data-entity-1="components" data-entity-2="component" data-source-line="5" data-uid="lnk8" id="link_components_component"><path codeLine="5" d="M237.0917,195.75 C237.0917,218.95 237.0917,247.3417 237.0917,274.0167" fill="none" id="components-backto-component" style="stroke:#446E9B;stroke-width:2.5;"/><polygon fill="none" points="237.0917,185.75,233.7583,190.75,237.0917,195.75,240.425,190.75,237.0917,185.75" style="stroke:#446E9B;stroke-width:2.5;"/></g><!--reverse link components to capability--><g class="link" data-entity-1="components" data-entity-2="capability" data-source-line="6" data-uid="lnk10" id="link_components_capability"><path codeLine="6" d="M259.3198,193.5737 C280.1698,219.7654 310.2167,257.5 331.075,283.7083" fill="none" id="components-backto-capability" style="stroke:#446E9B;stroke-width:2.5;"/><polygon fill="none" points="253.0917,185.75,253.5978,191.7379,259.3198,193.5737,258.8136,187.5858,253.0917,185.75" style="stroke:#446E9B;stroke-width:2.5;"/></g><!--reverse link instance to component--><g class="link" data-entity-1="instance" data-entity-2="component" data-source-line="7" data-uid="lnk12" id="link_instance_component"><path codeLine="7" d="M301.734,222.6365 C285.259,243.3365 275.525,255.55 260.875,273.95" fill="none" id="instance-backto-component" style="stroke:#446E9B;stroke-width:2.5;"/><polygon fill="none" points="311.075,210.9,297.8218,219.5228,305.6462,225.7502,311.075,210.9" style="stroke:#446E9B;stroke-width:2.5;"/></g><!--reverse link instance to capability--><g class="link" data-entity-1="instance" data-entity-2="capability" data-source-line="8" data-uid="lnk13" id="link_instance_capability"><path codeLine="8" d="M347.0917,229.7583 C347.0917,253.4917 347.0917,265.6667 347.0917,283.6917" fill="none" id="instance-backto-capability" style="stroke:#446E9B;stroke-width:2.5;"/><polygon fill="none" points="347.0917,214.7583,342.0917,229.7583,352.0917,229.7583,347.0917,214.7583" style="stroke:#446E9B;stroke-width:2.5;"/></g><!--reverse link component to spreadscaler--><g class="link" data-entity-1="component" data-entity-2="spreadscaler" data-source-line="9" data-uid="lnk15" id="link_component_spreadscaler"><path codeLine="9" d="M234.4645,345.1032 C233.1311,365.2448 232.0083,382.125 230.55,404.0917" fill="none" id="component-backto-spreadscaler" style="stroke:#446E9B;stroke-width:2.5;"/><polygon fill="#446E9B" points="235.125,335.125,231.4687,339.8939,234.4645,345.1032,238.1208,340.3343,235.125,335.125" style="stroke:#446E9B;stroke-width:2.5;"/></g><!--reverse link component to link--><g class="link" data-entity-1="component" data-entity-2="link" data-source-line="10" data-uid="lnk17" id="link_component_link"><path codeLine="10" d="M266.92,342.9485 C281.5617,361.3402 294.45,377.525 310.975,398.2833" fill="none" id="component-backto-link" style="stroke:#446E9B;stroke-width:2.5;"/><polygon fill="#446E9B" points="260.6917,335.125,261.198,341.1129,266.92,342.9485,266.4137,336.9607,260.6917,335.125" style="stroke:#446E9B;stroke-width:2.5;"/></g><!--reverse link capability to link--><g class="link" data-entity-1="capability" data-entity-2="link" data-source-line="11" data-uid="lnk18" id="link_capability_link"><path codeLine="11" d="M347.0917,335.575 C347.0917,351.1417 347.0917,363.55 347.0917,384.6667" fill="none" id="capability-backto-link" style="stroke:#446E9B;stroke-width:2.5;"/><polygon fill="#446E9B" points="347.0917,325.575,343.7583,330.575,347.0917,335.575,350.425,330.575,347.0917,325.575" style="stroke:#446E9B;stroke-width:2.5;"/></g><!--reverse link spreadscaler to spread--><g class="link" data-entity-1="spreadscaler" data-entity-2="spread" data-source-line="12" data-uid="lnk20" id="link_spreadscaler_spread"><path codeLine="12" d="M227.925,494.6833 C227.925,515.5667 227.925,531.425 227.925,553.6333" fill="none" id="spreadscaler-backto-spread" style="stroke:#446E9B;stroke-width:2.5;"/><polygon fill="#446E9B" points="227.925,484.6833,224.5917,489.6833,227.925,494.6833,231.2583,489.6833,227.925,484.6833" style="stroke:#446E9B;stroke-width:2.5;"/></g><!--reverse link link to config--><g class="link" data-entity-1="link" data-entity-2="config" data-source-line="13" data-uid="lnk22" id="link_link_config"><path codeLine="13" d="M347.0917,514.2333 C347.0917,533.9917 347.0917,545.5417 347.0917,563.45" fill="none" id="link-backto-config" style="stroke:#446E9B;stroke-width:2.5;"/><polygon fill="#446E9B" points="347.0917,504.2333,343.7583,509.2333,347.0917,514.2333,350.425,509.2333,347.0917,504.2333" style="stroke:#446E9B;stroke-width:2.5;"/></g><!--reverse link node to worker--><g class="link" data-entity-1="node" data-entity-2="worker" data-source-line="14" data-uid="lnk25" id="link_node_worker"><path codeLine="14" d="M99.151,222.3946 C83.1927,247.3446 72.1083,264.6917 59.775,283.9917" fill="none" id="node-backto-worker" style="stroke:#446E9B;stroke-width:2.5;"/><polygon fill="none" points="107.2333,209.7583,94.9389,219.7005,103.3631,225.0887,107.2333,209.7583" style="stroke:#446E9B;stroke-width:2.5;"/></g><!--reverse link node to leaf--><g class="link" data-entity-1="node" data-entity-2="leaf" data-source-line="15" data-uid="lnk27" id="link_node_leaf"><path codeLine="15" d="M135.0385,229.758 C134.8885,253.4914 134.825,265.6667 134.7167,283.6917" fill="none" id="node-backto-leaf" style="stroke:#446E9B;stroke-width:2.5;"/><polygon fill="none" points="135.1333,214.7583,130.0386,229.7264,140.0384,229.7896,135.1333,214.7583" style="stroke:#446E9B;stroke-width:2.5;"/></g><!--reverse link cluster to worker--><g class="link" data-entity-1="cluster" data-entity-2="worker" data-source-line="16" data-uid="lnk28" id="link_cluster_worker"><path codeLine="16" d="M46.6758,234.6498 C46.8008,255.7748 46.875,268.1833 46.975,283.75" fill="none" id="cluster-backto-worker" style="stroke:#446E9B;stroke-width:2.5;"/><polygon fill="none" points="46.6167,224.65,43.313,229.6696,46.6758,234.6498,49.9795,229.6302,46.6167,224.65" style="stroke:#446E9B;stroke-width:2.5;"/></g><!--reverse link cluster to leaf--><g class="link" data-entity-1="cluster" data-entity-2="leaf" data-source-line="17" data-uid="lnk29" id="link_cluster_leaf"><path codeLine="17" d="M84.0368,224.7501 C99.0035,248.1584 110.5333,266.1917 121.8083,283.825" fill="none" id="cluster-backto-leaf" style="stroke:#446E9B;stroke-width:2.5;"/><polygon fill="none" points="78.65,216.325,78.535,222.3332,84.0368,224.7501,84.1518,218.742,78.65,216.325" style="stroke:#446E9B;stroke-width:2.5;"/></g><!--SRC=[PP9DReGm38NtEKMwhKJLPOLw4yJ20uQn9YHHR3IQgeTlW900tSMV_Vppu4tkEA5c3nqQk2dkmA3-_FXI4rWQa4M_LvNkpCo2uGBTv9r5AwpAKxjZvby2FDp8aBmKMHQm7UhltvFYmeiWbwp3sGU4VbqtN5A6x4CLOM57pQ69MfBf8ZlGgAphq_Yd2u_Olm23CAZandfHgZYYjMRJr9hw_VKJDzpVJHlDHiCg2sjjOS9JA5pDmHnGqsxJ-CIMSR5HzYrrEiGqmNW2JIi1I9RnsRbQ1_I6EeZqP5JK9oLV4qsx0Us3ynY4C8ltDNBqH1hlKkBLZitwMWk44MMF5k7wH-wWQSd6SmTOTaYCtHnYXTg-MVPlZw3l0pB_0G00]--></g></svg>