<svg xmlns="http://www.w3.org/2000/svg" xmlns:xlink="http://www.w3.org/1999/xlink" contentStyleType="text/css" data-diagram-type="CLASS" height="682.5px" preserveAspectRatio="none" style="width:397px;height:682px;" version="1.1" viewBox="0 0 397 682" width="397.5px" zoomAndPan="magnify"><defs><linearGradient id="gsa251cfi98za0" x1="50%" x2="50%" y1="0%" y2="100%"><stop offset="0%" stop-color="#7C9AB9"/><stop offset="100%" stop-color="#304D6D"/></linearGradient><linearGradient id="gsa251cfi98za1" x1="50%" x2="50%" y1="0%" y2="100%"><stop offset="0%" stop-color="#7C9AB9"/><stop offset="100%" stop-color="#446E9B"/></linearGradient></defs><g><!--class manifest--><g class="entity" data-entity="manifest" data-source-line="3" data-uid="ent0002" id="entity_manifest"><rect fill="url(#gsa251cfi98za0)" height="41.1405" rx="3.3333" ry="3.3333" style="stroke:#304D6D;stroke-width:0.8333;" width="73.1421" x="104.6917" y="14.1667"/><rect fill="url(#gsa251cfi98za1)" height="27.8072" rx="3.3333" ry="3.3333" style="stroke:url(#gsa251cfi98za1);stroke-width:0.8333;" width="73.1421" x="104.6917" y="14.1667"/><rect fill="url(#gsa251cfi98za1)" height="3.3333" style="stroke:url(#gsa251cfi98za1);stroke-width:0.8333;" width="73.1421" x="104.6917" y="38.6405"/><rect fill="none" height="41.1405" rx="3.3333" ry="3.3333" style="stroke:#304D6D;stroke-width:0.8333;" width="73.1421" x="104.6917" y="14.1667"/><ellipse cx="116.3583" cy="28.0703" fill="#B8B8B8" rx="8.3333" ry="8.3333" style="stroke:#6B6B6B;stroke-width:0.8333;"/><path d="M117.8867,31.6103 Q117.5449,31.7861 117.1689,31.874 Q116.7929,31.9619 116.3779,31.9619 Q114.9033,31.9619 114.1269,30.9902 Q113.3505,30.0185 113.3505,28.1826 Q113.3505,26.3418 114.1269,25.3701 Q114.9033,24.3984 116.3779,24.3984 Q116.7929,24.3984 117.1738,24.4863 Q117.5546,24.5742 117.8867,24.75 L117.8867,26.3515 Q117.5156,26.0097 117.1664,25.851 Q116.8173,25.6923 116.4462,25.6923 Q115.6552,25.6923 115.2524,26.3198 Q114.8495,26.9472 114.8495,28.1826 Q114.8495,29.413 115.2524,30.0405 Q115.6552,30.6679 116.4462,30.6679 Q116.8173,30.6679 117.1664,30.5092 Q117.5156,30.3505 117.8867,30.0087 Z " fill="#FFFFFF"/><text fill="#EEEEEE" font-family="'Verdana'" font-size="9.1667" lengthAdjust="spacing" textLength="39.8088" x="131.3583" y="31.7159">manifest</text><line style="stroke:#304D6D;stroke-width:0.8333;" x1="105.525" x2="177.0004" y1="41.9739" y2="41.9739"/><line style="stroke:#304D6D;stroke-width:0.8333;" x1="105.525" x2="177.0004" y1="48.6405" y2="48.6405"/></g><!--class cluster--><g class="entity" data-entity="cluster" data-source-line="3" data-uid="ent0003" id="entity_cluster"><rect fill="url(#gsa251cfi98za0)" height="119.0361" rx="3.3333" ry="3.3333" style="stroke:#304D6D;stroke-width:0.8333;" width="64.1858" x="14.1667" y="105.3083"/><rect fill="url(#gsa251cfi98za1)" height="27.8072" rx="3.3333" ry="3.3333" style="stroke:url(#gsa251cfi98za1);stroke-width:0.8333;" width="64.1858" x="14.1667" y="105.3083"/><rect fill="url(#gsa251cfi98za1)" height="3.3333" style="stroke:url(#gsa251cfi98za1);stroke-width:0.8333;" width="64.1858" x="14.1667" y="129.7822"/><rect fill="none" height="119.0361" rx="3.3333" ry="3.3333" style="stroke:#304D6D;stroke-width:0.8333;" width="64.1858" x="14.1667" y="105.3083"/><ellipse cx="25.8333" cy="119.2119" fill="#B8B8B8" rx="8.3333" ry="8.3333" style="stroke:#6B6B6B;stroke-width:0.8333;"/><path d="M27.3617,122.752 Q27.0199,122.9278 26.6439,123.0156 Q26.2679,123.1035 25.8529,123.1035 Q24.3783,123.1035 23.6019,122.1319 Q22.8255,121.1602 22.8255,119.3242 Q22.8255,117.4834 23.6019,116.5117 Q24.3783,115.5401 25.8529,115.5401 Q26.2679,115.5401 26.6488,115.628 Q27.0296,115.7158 27.3617,115.8916 L27.3617,117.4932 Q26.9906,117.1514 26.6414,116.9927 Q26.2923,116.834 25.9212,116.834 Q25.1302,116.834 24.7274,117.4615 Q24.3245,118.0889 24.3245,119.3242 Q24.3245,120.5547 24.7274,121.1822 Q25.1302,121.8096 25.9212,121.8096 Q26.2923,121.8096 26.6414,121.6509 Q26.9906,121.4922 27.3617,121.1504 Z " fill="#FFFFFF"/><text fill="#EEEEEE" font-family="'Verdana'" font-size="9.1667" lengthAdjust="spacing" textLength="30.8525" x="40.8333" y="122.8576">cluster</text><line style="stroke:#304D6D;stroke-width:0.8333;" x1="15" x2="77.5191" y1="133.1155" y2="133.1155"/><text fill="#EEEEEE" font-family="'Verdana'" font-size="9.1667" lengthAdjust="spacing" textLength="25.6828" x="23.3333" y="149.8314">name</text><text fill="#EEEEEE" font-family="'Verdana'" font-size="9.1667" lengthAdjust="spacing" textLength="36.0848" x="23.3333" y="169.3053">nats-url</text><text fill="#EEEEEE" font-family="'Verdana'" font-size="9.1667" lengthAdjust="spacing" textLength="44.8755" x="23.3333" y="188.7792">[]workers</text><text fill="#EEEEEE" font-family="'Verdana'" font-size="9.1667" lengthAdjust="spacing" textLength="29.8051" x="23.3333" y="208.2531">[]leafs</text><line style="stroke:#304D6D;stroke-width:0.8333;" x1="15" x2="77.5191" y1="217.6777" y2="217.6777"/></g><!--class components--><g class="entity" data-entity="components" data-source-line="4" data-uid="ent0005" id="entity_components"><rect fill="url(#gsa251cfi98za0)" height="41.1405" rx="3.3333" ry="3.3333" style="stroke:#304D6D;stroke-width:0.8333;" width="89.3136" x="192.4333" y="144.2583"/><rect fill="url(#gsa251cfi98za1)" height="27.8072" rx="3.3333" ry="3.3333" style="stroke:url(#gsa251cfi98za1);stroke-width:0.8333;" width="89.3136" x="192.4333" y="144.2583"/><rect fill="url(#gsa251cfi98za1)" height="3.3333" style="stroke:url(#gsa251cfi98za1);stroke-width:0.8333;" width="89.3136" x="192.4333" y="168.7322"/><rect fill="none" height="41.1405" rx="3.3333" ry="3.3333" style="stroke:#304D6D;stroke-width:0.8333;" width="89.3136" x="192.4333" y="144.2583"/><ellipse cx="204.1" cy="158.1619" fill="#B8B8B8" rx="8.3333" ry="8.3333" style="stroke:#6B6B6B;stroke-width:0.8333;"/><path d="M205.6283,161.702 Q205.2865,161.8778 204.9105,161.9656 Q204.5346,162.0535 204.1195,162.0535 Q202.6449,162.0535 201.8686,161.0819 Q201.0922,160.1102 201.0922,158.2742 Q201.0922,156.4334 201.8686,155.4617 Q202.6449,154.4901 204.1195,154.4901 Q204.5346,154.4901 204.9154,154.578 Q205.2963,154.6658 205.6283,154.8416 L205.6283,156.4432 Q205.2572,156.1014 204.9081,155.9427 Q204.559,155.784 204.1879,155.784 Q203.3969,155.784 202.994,156.4115 Q202.5912,157.0389 202.5912,158.2742 Q202.5912,159.5047 202.994,160.1322 Q203.3969,160.7596 204.1879,160.7596 Q204.559,160.7596 204.9081,160.6009 Q205.2572,160.4422 205.6283,160.1004 Z " fill="#FFFFFF"/><text fill="#EEEEEE" font-family="'Verdana'" font-size="9.1667" lengthAdjust="spacing" textLength="55.9802" x="219.1" y="161.8076">components</text><line style="stroke:#304D6D;stroke-width:0.8333;" x1="193.2667" x2="280.9136" y1="172.0655" y2="172.0655"/><line style="stroke:#304D6D;stroke-width:0.8333;" x1="193.2667" x2="280.9136" y1="178.7322" y2="178.7322"/></g><!--class component--><g class="entity" data-entity="component" data-source-line="5" data-uid="ent0007" id="entity_component"><rect fill="url(#gsa251cfi98za0)" height="60.6144" rx="3.3333" ry="3.3333" style="stroke:#304D6D;stroke-width:0.8333;" width="84.5378" x="194.825" y="274.35"/><rect fill="url(#gsa251cfi98za1)" height="27.8072" rx="3.3333" ry="3.3333" style="stroke:url(#gsa251cfi98za1);stroke-width:0.8333;" width="84.5378" x="194.825" y="274.35"/><rect fill="url(#gsa251cfi98za1)" height="3.3333" style="stroke:url(#gsa251cfi98za1);stroke-width:0.8333;" width="84.5378" x="194.825" y="298.8239"/><rect fill="none" height="60.6144" rx="3.3333" ry="3.3333" style="stroke:#304D6D;stroke-width:0.8333;" width="84.5378" x="194.825" y="274.35"/><ellipse cx="206.4917" cy="288.2536" fill="#B8B8B8" rx="8.3333" ry="8.3333" style="stroke:#6B6B6B;stroke-width:0.8333;"/><path d="M208.02,291.7936 Q207.6782,291.9694 207.3022,292.0573 Q206.9262,292.1452 206.5112,292.1452 Q205.0366,292.1452 204.2602,291.1735 Q203.4839,290.2018 203.4839,288.3659 Q203.4839,286.5251 204.2602,285.5534 Q205.0366,284.5817 206.5112,284.5817 Q206.9262,284.5817 207.3071,284.6696 Q207.688,284.7575 208.02,284.9333 L208.02,286.5349 Q207.6489,286.1931 207.2998,286.0344 Q206.9507,285.8757 206.5796,285.8757 Q205.7885,285.8757 205.3857,286.5031 Q204.9829,287.1306 204.9829,288.3659 Q204.9829,289.5964 205.3857,290.2238 Q205.7885,290.8513 206.5796,290.8513 Q206.9507,290.8513 207.2998,290.6926 Q207.6489,290.5339 208.02,290.1921 Z " fill="#FFFFFF"/><text fill="#EEEEEE" font-family="'Verdana'" font-size="9.1667" lengthAdjust="spacing" textLength="51.2044" x="221.4917" y="291.8992">component</text><line style="stroke:#304D6D;stroke-width:0.8333;" x1="195.6583" x2="278.5294" y1="302.1572" y2="302.1572"/><text fill="#EEEEEE" font-family="'Verdana'" font-size="9.1667" lengthAdjust="spacing" textLength="35.1717" x="203.9917" y="318.8731">replicas</text><line style="stroke:#304D6D;stroke-width:0.8333;" x1="195.6583" x2="278.5294" y1="328.2978" y2="328.2978"/></g><!--class capability--><g class="entity" data-entity="capability" data-source-line="6" data-uid="ent0009" id="entity_capability"><rect fill="url(#gsa251cfi98za0)" height="41.1405" rx="3.3333" ry="3.3333" style="stroke:#304D6D;stroke-width:0.8333;" width="77.1257" x="308.5333" y="284.0833"/><rect fill="url(#gsa251cfi98za1)" height="27.8072" rx="3.3333" ry="3.3333" style="stroke:url(#gsa251cfi98za1);stroke-width:0.8333;" width="77.1257" x="308.5333" y="284.0833"/><rect fill="url(#gsa251cfi98za1)" height="3.3333" style="stroke:url(#gsa251cfi98za1);stroke-width:0.8333;" width="77.1257" x="308.5333" y="308.5572"/><rect fill="none" height="41.1405" rx="3.3333" ry="3.3333" style="stroke:#304D6D;stroke-width:0.8333;" width="77.1257" x="308.5333" y="284.0833"/><ellipse cx="320.2" cy="297.9869" fill="#B8B8B8" rx="8.3333" ry="8.3333" style="stroke:#6B6B6B;stroke-width:0.8333;"/><path d="M321.7283,301.527 Q321.3865,301.7028 321.0105,301.7906 Q320.6346,301.8785 320.2195,301.8785 Q318.7449,301.8785 317.9686,300.9069 Q317.1922,299.9352 317.1922,298.0992 Q317.1922,296.2584 317.9686,295.2867 Q318.7449,294.3151 320.2195,294.3151 Q320.6346,294.3151 321.0154,294.403 Q321.3963,294.4908 321.7283,294.6666 L321.7283,296.2682 Q321.3572,295.9264 321.0081,295.7677 Q320.659,295.609 320.2879,295.609 Q319.4969,295.609 319.094,296.2365 Q318.6912,296.8639 318.6912,298.0992 Q318.6912,299.3297 319.094,299.9572 Q319.4969,300.5846 320.2879,300.5846 Q320.659,300.5846 321.0081,300.4259 Q321.3572,300.2672 321.7283,299.9254 Z " fill="#FFFFFF"/><text fill="#EEEEEE" font-family="'Verdana'" font-size="9.1667" lengthAdjust="spacing" textLength="43.7923" x="335.2" y="301.6326">capability</text><line style="stroke:#304D6D;stroke-width:0.8333;" x1="309.3667" x2="384.8257" y1="311.8905" y2="311.8905"/><line style="stroke:#304D6D;stroke-width:0.8333;" x1="309.3667" x2="384.8257" y1="318.5572" y2="318.5572"/></g><!--class instance--><g class="entity" data-entity="instance" data-source-line="7" data-uid="ent0011" id="entity_instance"><rect fill="url(#gsa251cfi98za0)" height="99.5622" rx="3.3333" ry="3.3333" style="stroke:#304D6D;stroke-width:0.8333;" width="71.58" x="311.3" y="115.05"/><rect fill="url(#gsa251cfi98za1)" height="27.8072" rx="3.3333" ry="3.3333" style="stroke:url(#gsa251cfi98za1);stroke-width:0.8333;" width="71.58" x="311.3" y="115.05"/><rect fill="url(#gsa251cfi98za1)" height="3.3333" style="stroke:url(#gsa251cfi98za1);stroke-width:0.8333;" width="71.58" x="311.3" y="139.5239"/><rect fill="none" height="99.5622" rx="3.3333" ry="3.3333" style="stroke:#304D6D;stroke-width:0.8333;" width="71.58" x="311.3" y="115.05"/><ellipse cx="322.9667" cy="128.9536" fill="#B8B8B8" rx="8.3333" ry="8.3333" style="stroke:#6B6B6B;stroke-width:0.8333;"/><path d="M324.495,132.4936 Q324.1532,132.6694 323.7772,132.7573 Q323.4012,132.8452 322.9862,132.8452 Q321.5116,132.8452 320.7352,131.8735 Q319.9589,130.9018 319.9589,129.0659 Q319.9589,127.2251 320.7352,126.2534 Q321.5116,125.2817 322.9862,125.2817 Q323.4012,125.2817 323.7821,125.3696 Q324.163,125.4575 324.495,125.6333 L324.495,127.2349 Q324.1239,126.8931 323.7748,126.7344 Q323.4257,126.5757 323.0546,126.5757 Q322.2635,126.5757 321.8607,127.2031 Q321.4579,127.8306 321.4579,129.0659 Q321.4579,130.2964 321.8607,130.9238 Q322.2635,131.5513 323.0546,131.5513 Q323.4257,131.5513 323.7748,131.3926 Q324.1239,131.2339 324.495,130.8921 Z " fill="#FFFFFF"/><text fill="#EEEEEE" font-family="'Verdana'" font-size="9.1667" lengthAdjust="spacing" textLength="38.2467" x="337.9667" y="132.5992">instance</text><line style="stroke:#304D6D;stroke-width:0.8333;" x1="312.1333" x2="382.0467" y1="142.8572" y2="142.8572"/><text fill="#EEEEEE" font-family="'Verdana'" font-size="9.1667" lengthAdjust="spacing" textLength="25.6828" x="320.4667" y="159.5731">name</text><text fill="#EEEEEE" font-family="'Verdana'" font-size="9.1667" lengthAdjust="spacing" textLength="28.1087" x="320.4667" y="179.047">image</text><text fill="#EEEEEE" font-family="'Verdana'" font-size="9.1667" lengthAdjust="spacing" textLength="32.2579" x="320.4667" y="198.5209">[]traits</text><line style="stroke:#304D6D;stroke-width:0.8333;" x1="312.1333" x2="382.0467" y1="207.9455" y2="207.9455"/></g><!--class spreadscaler--><g class="entity" data-entity="spreadscaler" data-source-line="9" data-uid="ent0014" id="entity_spreadscaler"><rect fill="url(#gsa251cfi98za0)" height="80.0883" rx="3.3333" ry="3.3333" style="stroke:#304D6D;stroke-width:0.8333;" width="107.592" x="169.1333" y="414.175"/><rect fill="url(#gsa251cfi98za1)" height="27.8072" rx="3.3333" ry="3.3333" style="stroke:url(#gsa251cfi98za1);stroke-width:0.8333;" width="107.592" x="169.1333" y="414.175"/><rect fill="url(#gsa251cfi98za1)" height="3.3333" style="stroke:url(#gsa251cfi98za1);stroke-width:0.8333;" width="107.592" x="169.1333" y="438.6489"/><rect fill="none" height="80.0883" rx="3.3333" ry="3.3333" style="stroke:#304D6D;stroke-width:0.8333;" width="107.592" x="169.1333" y="414.175"/><ellipse cx="188.1068" cy="428.0786" fill="#B8B8B8" rx="8.3333" ry="8.3333" style="stroke:#6B6B6B;stroke-width:0.8333;"/><path d="M189.6351,431.6186 Q189.2933,431.7944 188.9174,431.8823 Q188.5414,431.9702 188.1264,431.9702 Q186.6517,431.9702 185.8754,430.9985 Q185.099,430.0268 185.099,428.1909 Q185.099,426.3501 185.8754,425.3784 Q186.6517,424.4067 188.1264,424.4067 Q188.5414,424.4067 188.9223,424.4946 Q189.3031,424.5825 189.6351,424.7583 L189.6351,426.3599 Q189.2641,426.0181 188.9149,425.8594 Q188.5658,425.7007 188.1947,425.7007 Q187.4037,425.7007 187.0009,426.3281 Q186.598,426.9556 186.598,428.1909 Q186.598,429.4214 187.0009,430.0488 Q187.4037,430.6763 188.1947,430.6763 Q188.5658,430.6763 188.9149,430.5176 Q189.2641,430.3589 189.6351,430.0171 Z " fill="#FFFFFF"/><text fill="#EEEEEE" font-family="'Verdana'" font-size="9.1667" lengthAdjust="spacing" textLength="58.0212" x="204.7306" y="431.7242">spreadscaler</text><line style="stroke:#304D6D;stroke-width:0.8333;" x1="169.9667" x2="275.892" y1="441.9822" y2="441.9822"/><text fill="#EEEEEE" font-family="'Verdana'" font-size="9.1667" lengthAdjust="spacing" textLength="43.0225" x="178.3" y="458.6981">instances</text><text fill="#EEEEEE" font-family="'Verdana'" font-size="9.1667" lengthAdjust="spacing" textLength="89.2586" x="178.3" y="478.172">[]spread properties</text><line style="stroke:#304D6D;stroke-width:0.8333;" x1="169.9667" x2="275.892" y1="487.5966" y2="487.5966"/></g><!--class link--><g class="entity" data-entity="link" data-source-line="10" data-uid="ent0016" id="entity_link"><rect fill="url(#gsa251cfi98za0)" height="138.5099" rx="3.3333" ry="3.3333" style="stroke:#304D6D;stroke-width:0.8333;" width="82.039" x="306.075" y="384.9583"/><rect fill="url(#gsa251cfi98za1)" height="27.8072" rx="3.3333" ry="3.3333" style="stroke:url(#gsa251cfi98za1);stroke-width:0.8333;" width="82.039" x="306.075" y="384.9583"/><rect fill="url(#gsa251cfi98za1)" height="3.3333" style="stroke:url(#gsa251cfi98za1);stroke-width:0.8333;" width="82.039" x="306.075" y="409.4322"/><rect fill="none" height="138.5099" rx="3.3333" ry="3.3333" style="stroke:#304D6D;stroke-width:0.8333;" width="82.039" x="306.075" y="384.9583"/><ellipse cx="332.3438" cy="398.8619" fill="#B8B8B8" rx="8.3333" ry="8.3333" style="stroke:#6B6B6B;stroke-width:0.8333;"/><path d="M333.8721,402.402 Q333.5303,402.5778 333.1543,402.6656 Q332.7783,402.7535 332.3633,402.7535 Q330.8887,402.7535 330.1123,401.7819 Q329.336,400.8102 329.336,398.9742 Q329.336,397.1334 330.1123,396.1617 Q330.8887,395.1901 332.3633,395.1901 Q332.7783,395.1901 333.1592,395.278 Q333.5401,395.3658 333.8721,395.5416 L333.8721,397.1432 Q333.501,396.8014 333.1519,396.6427 Q332.8028,396.484 332.4317,396.484 Q331.6407,396.484 331.2378,397.1115 Q330.835,397.7389 330.835,398.9742 Q330.835,400.2047 331.2378,400.8322 Q331.6407,401.4596 332.4317,401.4596 Q332.8028,401.4596 333.1519,401.3009 Q333.501,401.1422 333.8721,400.8004 Z " fill="#FFFFFF"/><text fill="#EEEEEE" font-family="'Verdana'" font-size="9.1667" lengthAdjust="spacing" textLength="16.2565" x="350.5887" y="402.5076">link</text><line style="stroke:#304D6D;stroke-width:0.8333;" x1="306.9083" x2="387.2806" y1="412.7655" y2="412.7655"/><text fill="#EEEEEE" font-family="'Verdana'" font-size="9.1667" lengthAdjust="spacing" textLength="27.8133" x="315.2417" y="429.4814">target</text><text fill="#EEEEEE" font-family="'Verdana'" font-size="9.1667" lengthAdjust="spacing" textLength="51.9116" x="315.2417" y="448.9553">namespace</text><text fill="#EEEEEE" font-family="'Verdana'" font-size="9.1667" lengthAdjust="spacing" textLength="53.3663" x="315.2417" y="468.4292">[]interfaces</text><text fill="#EEEEEE" font-family="'Verdana'" font-size="9.1667" lengthAdjust="spacing" textLength="63.7056" x="315.2417" y="487.9031">source_config</text><text fill="#EEEEEE" font-family="'Verdana'" font-size="9.1667" lengthAdjust="spacing" textLength="61.2305" x="315.2417" y="507.377">target_config</text><line style="stroke:#304D6D;stroke-width:0.8333;" x1="306.9083" x2="387.2806" y1="516.8016" y2="516.8016"/></g><!--class spread--><g class="entity" data-entity="spread" data-source-line="12" data-uid="ent0019" id="entity_spread"><rect fill="url(#gsa251cfi98za0)" height="99.5622" rx="3.3333" ry="3.3333" style="stroke:#304D6D;stroke-width:0.8333;" width="64.4096" x="190.725" y="573.475"/><rect fill="url(#gsa251cfi98za1)" height="27.8072" rx="3.3333" ry="3.3333" style="stroke:url(#gsa251cfi98za1);stroke-width:0.8333;" width="64.4096" x="190.725" y="573.475"/><rect fill="url(#gsa251cfi98za1)" height="3.3333" style="stroke:url(#gsa251cfi98za1);stroke-width:0.8333;" width="64.4096" x="190.725" y="597.9489"/><rect fill="none" height="99.5622" rx="3.3333" ry="3.3333" style="stroke:#304D6D;stroke-width:0.8333;" width="64.4096" x="190.725" y="573.475"/><ellipse cx="202.3917" cy="587.3786" fill="#B8B8B8" rx="8.3333" ry="8.3333" style="stroke:#6B6B6B;stroke-width:0.8333;"/><path d="M203.92,590.9186 Q203.5782,591.0944 203.2022,591.1823 Q202.8262,591.2702 202.4112,591.2702 Q200.9366,591.2702 200.1602,590.2985 Q199.3839,589.3268 199.3839,587.4909 Q199.3839,585.6501 200.1602,584.6784 Q200.9366,583.7067 202.4112,583.7067 Q202.8262,583.7067 203.2071,583.7946 Q203.588,583.8825 203.92,584.0583 L203.92,585.6599 Q203.5489,585.3181 203.1998,585.1594 Q202.8507,585.0007 202.4796,585.0007 Q201.6885,585.0007 201.2857,585.6281 Q200.8829,586.2556 200.8829,587.4909 Q200.8829,588.7214 201.2857,589.3488 Q201.6885,589.9763 202.4796,589.9763 Q202.8507,589.9763 203.1998,589.8176 Q203.5489,589.6589 203.92,589.3171 Z " fill="#FFFFFF"/><text fill="#EEEEEE" font-family="'Verdana'" font-size="9.1667" lengthAdjust="spacing" textLength="31.0763" x="217.3917" y="591.0242">spread</text><line style="stroke:#304D6D;stroke-width:0.8333;" x1="191.5583" x2="254.3013" y1="601.2822" y2="601.2822"/><text fill="#EEEEEE" font-family="'Verdana'" font-size="9.1667" lengthAdjust="spacing" textLength="25.6828" x="199.8917" y="617.9981">name</text><text fill="#EEEEEE" font-family="'Verdana'" font-size="9.1667" lengthAdjust="spacing" textLength="30.6018" x="199.8917" y="637.472">weight</text><text fill="#EEEEEE" font-family="'Verdana'" font-size="9.1667" lengthAdjust="spacing" textLength="21.641" x="199.8917" y="656.9459">zone</text><line style="stroke:#304D6D;stroke-width:0.8333;" x1="191.5583" x2="254.3013" y1="666.3705" y2="666.3705"/></g><!--class node--><g class="entity" data-entity="node" data-source-line="13" data-uid="ent0021" id="entity_node"><rect fill="url(#gsa251cfi98za0)" height="99.5622" rx="3.3333" ry="3.3333" style="stroke:#304D6D;stroke-width:0.8333;" width="55.8695" x="107.4917" y="115.05"/><rect fill="url(#gsa251cfi98za1)" height="27.8072" rx="3.3333" ry="3.3333" style="stroke:url(#gsa251cfi98za1);stroke-width:0.8333;" width="55.8695" x="107.4917" y="115.05"/><rect fill="url(#gsa251cfi98za1)" height="3.3333" style="stroke:url(#gsa251cfi98za1);stroke-width:0.8333;" width="55.8695" x="107.4917" y="139.5239"/><rect fill="none" height="99.5622" rx="3.3333" ry="3.3333" style="stroke:#304D6D;stroke-width:0.8333;" width="55.8695" x="107.4917" y="115.05"/><ellipse cx="119.1583" cy="128.9536" fill="#B8B8B8" rx="8.3333" ry="8.3333" style="stroke:#6B6B6B;stroke-width:0.8333;"/><path d="M120.6867,132.4936 Q120.3449,132.6694 119.9689,132.7573 Q119.5929,132.8452 119.1779,132.8452 Q117.7033,132.8452 116.9269,131.8735 Q116.1505,130.9018 116.1505,129.0659 Q116.1505,127.2251 116.9269,126.2534 Q117.7033,125.2817 119.1779,125.2817 Q119.5929,125.2817 119.9738,125.3696 Q120.3546,125.4575 120.6867,125.6333 L120.6867,127.2349 Q120.3156,126.8931 119.9664,126.7344 Q119.6173,126.5757 119.2462,126.5757 Q118.4552,126.5757 118.0524,127.2031 Q117.6495,127.8306 117.6495,129.0659 Q117.6495,130.2964 118.0524,130.9238 Q118.4552,131.5513 119.2462,131.5513 Q119.6173,131.5513 119.9664,131.3926 Q120.3156,131.2339 120.6867,130.8921 Z " fill="#FFFFFF"/><text fill="#EEEEEE" font-family="'Verdana'" font-size="9.1667" lengthAdjust="spacing" textLength="22.5362" x="134.1583" y="132.5992">node</text><line style="stroke:#304D6D;stroke-width:0.8333;" x1="108.325" x2="162.5279" y1="142.8572" y2="142.8572"/><text fill="#EEEEEE" font-family="'Verdana'" font-size="9.1667" lengthAdjust="spacing" textLength="8.2267" x="116.6583" y="159.5731">id</text><text fill="#EEEEEE" font-family="'Verdana'" font-size="9.1667" lengthAdjust="spacing" textLength="21.641" x="116.6583" y="179.047">zone</text><text fill="#EEEEEE" font-family="'Verdana'" font-size="9.1667" lengthAdjust="spacing" textLength="34.8092" x="116.6583" y="198.5209">[]labels</text><line style="stroke:#304D6D;stroke-width:0.8333;" x1="108.325" x2="162.5279" y1="207.9455" y2="207.9455"/></g><!--class worker--><g class="entity" data-entity="worker" data-source-line="13" data-uid="ent0022" id="entity_worker"><rect fill="url(#gsa251cfi98za0)" height="41.1405" rx="3.3333" ry="3.3333" style="stroke:#304D6D;stroke-width:0.8333;" width="65.1078" x="14.5417" y="284.0833"/><rect fill="url(#gsa251cfi98za1)" height="27.8072" rx="3.3333" ry="3.3333" style="stroke:url(#gsa251cfi98za1);stroke-width:0.8333;" width="65.1078" x="14.5417" y="284.0833"/><rect fill="url(#gsa251cfi98za1)" height="3.3333" style="stroke:url(#gsa251cfi98za1);stroke-width:0.8333;" width="65.1078" x="14.5417" y="308.5572"/><rect fill="none" height="41.1405" rx="3.3333" ry="3.3333" style="stroke:#304D6D;stroke-width:0.8333;" width="65.1078" x="14.5417" y="284.0833"/><ellipse cx="26.2083" cy="297.9869" fill="#B8B8B8" rx="8.3333" ry="8.3333" style="stroke:#6B6B6B;stroke-width:0.8333;"/><path d="M27.7367,301.527 Q27.3949,301.7028 27.0189,301.7906 Q26.6429,301.8785 26.2279,301.8785 Q24.7533,301.8785 23.9769,300.9069 Q23.2005,299.9352 23.2005,298.0992 Q23.2005,296.2584 23.9769,295.2867 Q24.7533,294.3151 26.2279,294.3151 Q26.6429,294.3151 27.0238,294.403 Q27.4046,294.4908 27.7367,294.6666 L27.7367,296.2682 Q27.3656,295.9264 27.0164,295.7677 Q26.6673,295.609 26.2962,295.609 Q25.5052,295.609 25.1024,296.2365 Q24.6995,296.8639 24.6995,298.0992 Q24.6995,299.3297 25.1024,299.9572 Q25.5052,300.5846 26.2962,300.5846 Q26.6673,300.5846 27.0164,300.4259 Q27.3656,300.2672 27.7367,299.9254 Z " fill="#FFFFFF"/><text fill="#EEEEEE" font-family="'Verdana'" font-size="9.1667" lengthAdjust="spacing" textLength="31.7745" x="41.2083" y="301.6326">worker</text><line style="stroke:#304D6D;stroke-width:0.8333;" x1="15.375" x2="78.8162" y1="311.8905" y2="311.8905"/><line style="stroke:#304D6D;stroke-width:0.8333;" x1="15.375" x2="78.8162" y1="318.5572" y2="318.5572"/></g><!--class leaf--><g class="entity" data-entity="leaf" data-source-line="14" data-uid="ent0024" id="entity_leaf"><rect fill="url(#gsa251cfi98za0)" height="41.1405" rx="3.3333" ry="3.3333" style="stroke:#304D6D;stroke-width:0.8333;" width="50.0374" x="109.575" y="284.0833"/><rect fill="url(#gsa251cfi98za1)" height="27.8072" rx="3.3333" ry="3.3333" style="stroke:url(#gsa251cfi98za1);stroke-width:0.8333;" width="50.0374" x="109.575" y="284.0833"/><rect fill="url(#gsa251cfi98za1)" height="3.3333" style="stroke:url(#gsa251cfi98za1);stroke-width:0.8333;" width="50.0374" x="109.575" y="308.5572"/><rect fill="none" height="41.1405" rx="3.3333" ry="3.3333" style="stroke:#304D6D;stroke-width:0.8333;" width="50.0374" x="109.575" y="284.0833"/><ellipse cx="121.2417" cy="297.9869" fill="#B8B8B8" rx="8.3333" ry="8.3333" style="stroke:#6B6B6B;stroke-width:0.8333;"/><path d="M122.77,301.527 Q122.4282,301.7028 122.0522,301.7906 Q121.6762,301.8785 121.2612,301.8785 Q119.7866,301.8785 119.0102,300.9069 Q118.2339,299.9352 118.2339,298.0992 Q118.2339,296.2584 119.0102,295.2867 Q119.7866,294.3151 121.2612,294.3151 Q121.6762,294.3151 122.0571,294.403 Q122.438,294.4908 122.77,294.6666 L122.77,296.2682 Q122.3989,295.9264 122.0498,295.7677 Q121.7007,295.609 121.3296,295.609 Q120.5385,295.609 120.1357,296.2365 Q119.7329,296.8639 119.7329,298.0992 Q119.7329,299.3297 120.1357,299.9572 Q120.5385,300.5846 121.3296,300.5846 Q121.7007,300.5846 122.0498,300.4259 Q122.3989,300.2672 122.77,299.9254 Z " fill="#FFFFFF"/><text fill="#EEEEEE" font-family="'Verdana'" font-size="9.1667" lengthAdjust="spacing" textLength="16.7041" x="136.2417" y="301.6326">leaf</text><line style="stroke:#304D6D;stroke-width:0.8333;" x1="110.4083" x2="158.7791" y1="311.8905" y2="311.8905"/><line style="stroke:#304D6D;stroke-width:0.8333;" x1="110.4083" x2="158.7791" y1="318.5572" y2="318.5572"/></g><!--reverse link manifest to cluster--><g class="link" data-entity-1="manifest" data-entity-2="cluster" data-source-line="3" data-uid="lnk4" id="link_manifest_cluster"><path codeLine="3" d="M120.4685,63.6803 C107.7352,80.8886 94.8833,98.2667 78.6833,120.1583" fill="none" id="manifest-backto-cluster" style="stroke:#446E9B;stroke-width:2.5;"/><polygon fill="#446E9B" points="126.4167,55.6417,120.763,57.6782,120.4685,63.6803,126.1221,61.6437,126.4167,55.6417" style="stroke:#446E9B;stroke-width:2.5;"/></g><!--reverse link manifest to components--><g class="link" data-entity-1="manifest" data-entity-2="components" data-source-line="4" data-uid="lnk6" id="link_manifest_components"><path codeLine="4" d="M162.2147,63.6556 C180.1647,87.7056 204.0917,119.775 222.0667,143.8583" fill="none" id="manifest-backto-components" style="stroke:#446E9B;stroke-width:2.5;"/><polygon fill="#446E9B" points="156.2333,55.6417,156.5527,61.6424,162.2147,63.6556,161.8953,57.6549,156.2333,55.6417" style="stroke:#446E9B;stroke-width:2.5;"/></g><!--reverse link components to component--><g class="link" data-entity-1="components" data-entity-2="component" data-source-line="5" data-uid="lnk8" id="link_components_component"><path codeLine="5" d="M237.0917,195.75 C237.0917,218.95 237.0917,247.3417 237.0917,274.025" fill="none" id="components-backto-component" style="stroke:#446E9B;stroke-width:2.5;"/><polygon fill="none" points="237.0917,185.75,233.7583,190.75,237.0917,195.75,240.425,190.75,237.0917,185.75" style="stroke:#446E9B;stroke-width:2.5;"/></g><!--reverse link components to capability--><g class="link" data-entity-1="components" data-entity-2="capability" data-source-line="6" data-uid="lnk10" id="link_components_capability"><path codeLine="6" d="M259.3198,193.5737 C280.1698,219.7654 310.2167,257.5 331.075,283.7083" fill="none" id="components-backto-capability" style="stroke:#446E9B;stroke-width:2.5;"/><polygon fill="none" points="253.0917,185.75,253.5978,191.7379,259.3198,193.5737,258.8136,187.5858,253.0917,185.75" style="stroke:#446E9B;stroke-width:2.5;"/></g><!--reverse link instance to component--><g class="link" data-entity-1="instance" data-entity-2="component" data-source-line="7" data-uid="lnk12" id="link_instance_component"><path codeLine="7" d="M301.734,222.6365 C285.259,243.3365 275.525,255.55 260.875,273.95" fill="none" id="instance-backto-component" style="stroke:#446E9B;stroke-width:2.5;"/><polygon fill="none" points="311.075,210.9,297.8218,219.5228,305.6462,225.7502,311.075,210.9" style="stroke:#446E9B;stroke-width:2.5;"/></g><!--reverse link instance to capability--><g class="link" data-entity-1="instance" data-entity-2="capability" data-source-line="8" data-uid="lnk13" id="link_instance_capability"><path codeLine="8" d="M347.0917,229.7583 C347.0917,253.4917 347.0917,265.6667 347.0917,283.7" fill="none" id="instance-backto-capability" style="stroke:#446E9B;stroke-width:2.5;"/><polygon fill="none" points="347.0917,214.7583,342.0917,229.7583,352.0917,229.7583,347.0917,214.7583" style="stroke:#446E9B;stroke-width:2.5;"/></g><!--reverse link component to spreadscaler--><g class="link" data-entity-1="component" data-entity-2="spreadscaler" data-source-line="9" data-uid="lnk15" id="link_component_spreadscaler"><path codeLine="9" d="M233.3073,345.013 C231.149,367.6047 229.0917,389.0083 226.7167,413.7667" fill="none" id="component-backto-spreadscaler" style="stroke:#446E9B;stroke-width:2.5;"/><polygon fill="#446E9B" points="234.2583,335.0583,230.4646,339.7187,233.3073,345.013,237.101,340.3527,234.2583,335.0583" style="stroke:#446E9B;stroke-width:2.5;"/></g><!--reverse link component to link--><g class="link" data-entity-1="component" data-entity-2="link" data-source-line="10" data-uid="lnk17" id="link_component_link"><path codeLine="10" d="M265.0576,343.0837 C278.4076,361.0421 289.9167,376.5083 305.775,397.825" fill="none" id="component-backto-link" style="stroke:#446E9B;stroke-width:2.5;"/><polygon fill="#446E9B" points="259.0917,335.0583,259.3995,341.0597,265.0576,343.0837,264.7498,337.0824,259.0917,335.0583" style="stroke:#446E9B;stroke-width:2.5;"/></g><!--reverse link capability to link--><g class="link" data-entity-1="capability" data-entity-2="link" data-source-line="11" data-uid="lnk18" id="link_capability_link"><path codeLine="11" d="M347.0917,335.4333 C347.0917,350.8083 347.0917,363.0333 347.0917,384.6583" fill="none" id="capability-backto-link" style="stroke:#446E9B;stroke-width:2.5;"/><polygon fill="#446E9B" points="347.0917,325.4333,343.7583,330.4333,347.0917,335.4333,350.425,330.4333,347.0917,325.4333" style="stroke:#446E9B;stroke-width:2.5;"/></g><!--reverse link spreadscaler to spread--><g class="link" data-entity-1="spreadscaler" data-entity-2="spread" data-source-line="12" data-uid="lnk20" id="link_spreadscaler_spread"><path codeLine="12" d="M222.925,504.5 C222.925,528.0833 222.925,548.2417 222.925,573.35" fill="none" id="spreadscaler-backto-spread" style="stroke:#446E9B;stroke-width:2.5;"/><polygon fill="#446E9B" points="222.925,494.5,219.5917,499.5,222.925,504.5,226.2583,499.5,222.925,494.5" style="stroke:#446E9B;stroke-width:2.5;"/></g><!--reverse link node to worker--><g class="link" data-entity-1="node" data-entity-2="worker" data-source-line="13" data-uid="lnk23" id="link_node_worker"><path codeLine="13" d="M99.151,222.3946 C83.1927,247.3446 72.1083,264.6917 59.775,283.9917" fill="none" id="node-backto-worker" style="stroke:#446E9B;stroke-width:2.5;"/><polygon fill="none" points="107.2333,209.7583,94.9389,219.7005,103.3631,225.0887,107.2333,209.7583" style="stroke:#446E9B;stroke-width:2.5;"/></g><!--reverse link node to leaf--><g class="link" data-entity-1="node" data-entity-2="leaf" data-source-line="14" data-uid="lnk25" id="link_node_leaf"><path codeLine="14" d="M135.0385,229.758 C134.8885,253.4914 134.825,265.6667 134.7167,283.7" fill="none" id="node-backto-leaf" style="stroke:#446E9B;stroke-width:2.5;"/><polygon fill="none" points="135.1333,214.7583,130.0386,229.7264,140.0384,229.7896,135.1333,214.7583" style="stroke:#446E9B;stroke-width:2.5;"/></g><!--reverse link cluster to worker--><g class="link" data-entity-1="cluster" data-entity-2="worker" data-source-line="15" data-uid="lnk26" id="link_cluster_worker"><path codeLine="15" d="M46.6759,234.6582 C46.8009,255.7748 46.875,268.1833 46.975,283.75" fill="none" id="cluster-backto-worker" style="stroke:#446E9B;stroke-width:2.5;"/><polygon fill="none" points="46.6167,224.6583,43.313,229.678,46.6759,234.6582,49.9795,229.6385,46.6167,224.6583" style="stroke:#446E9B;stroke-width:2.5;"/></g><!--reverse link cluster to leaf--><g class="link" data-entity-1="cluster" data-entity-2="leaf" data-source-line="16" data-uid="lnk27" id="link_cluster_leaf"><path codeLine="16" d="M84.0368,224.7501 C99.0035,248.1584 110.5333,266.1917 121.8083,283.825" fill="none" id="cluster-backto-leaf" style="stroke:#446E9B;stroke-width:2.5;"/><polygon fill="none" points="78.65,216.325,78.535,222.3332,84.0368,224.7501,84.1518,218.742,78.65,216.325" style="stroke:#446E9B;stroke-width:2.5;"/></g><!--SRC=[PPBDReKW48NtF0NTDh7fiZ5z4sEQkJXw9nU1m9YRDdtueYA2tN6-cJD_-i9td5461mert4HGe56-lts86GoD65Y-DerKUWcC_WBjxAn1mq6SJsdBoBy0EBYH9luMP0A3KIW_Vol7XP-6dB8r3yuZ3Dku_XBIP1xYD9wiz1H5XB53QlUq_X7hdK0ZZ29jlssGCagqvUoULj9ml7xYHCUxw-DnKGUHZQqqC6CbEJIBrmNg-hrRgDZQBXRATqgL2aqpJ1NeUlP0lBRFbsgbHwT9GQJLOQ8_ESCrqFKxaCvRXvu9i_aO8widqdJdKs_d4EjtY8B1JyY7MetR7tY0hYSJrnrXdI6nO1Uly4jPCz9Krqdm3m00]--></g></svg>