<svg xmlns="http://www.w3.org/2000/svg" xmlns:xlink="http://www.w3.org/1999/xlink" contentStyleType="text/css" data-diagram-type="CLASS" height="571.6667px" preserveAspectRatio="none" style="width:368px;height:571px;" version="1.1" viewBox="0 0 368 571" width="368.3333px" zoomAndPan="magnify"><defs><linearGradient id="g1a9omxqzwgojk0" x1="50%" x2="50%" y1="0%" y2="100%"><stop offset="0%" stop-color="#7C9AB9"/><stop offset="100%" stop-color="#304D6D"/></linearGradient><linearGradient id="g1a9omxqzwgojk1" x1="50%" x2="50%" y1="0%" y2="100%"><stop offset="0%" stop-color="#7C9AB9"/><stop offset="100%" stop-color="#446E9B"/></linearGradient></defs><g><!--class instance--><g class="entity" data-entity="instance" data-source-line="3" data-uid="ent0002" id="entity_instance"><rect fill="url(#g1a9omxqzwgojk0)" height="99.5622" rx="3.3333" ry="3.3333" style="stroke:#304D6D;stroke-width:0.8333;" width="71.58" x="130.6417" y="14.1667"/><rect fill="url(#g1a9omxqzwgojk1)" height="27.8072" rx="3.3333" ry="3.3333" style="stroke:url(#g1a9omxqzwgojk1);stroke-width:0.8333;" width="71.58" x="130.6417" y="14.1667"/><rect fill="url(#g1a9omxqzwgojk1)" height="3.3333" style="stroke:url(#g1a9omxqzwgojk1);stroke-width:0.8333;" width="71.58" x="130.6417" y="38.6405"/><rect fill="none" height="99.5622" rx="3.3333" ry="3.3333" style="stroke:#304D6D;stroke-width:0.8333;" width="71.58" x="130.6417" y="14.1667"/><ellipse cx="142.3083" cy="28.0703" fill="#B8B8B8" rx="8.3333" ry="8.3333" style="stroke:#6B6B6B;stroke-width:0.8333;"/><path d="M143.8367,31.6103 Q143.4949,31.7861 143.1189,31.874 Q142.7429,31.9619 142.3279,31.9619 Q140.8533,31.9619 140.0769,30.9902 Q139.3005,30.0185 139.3005,28.1826 Q139.3005,26.3418 140.0769,25.3701 Q140.8533,24.3984 142.3279,24.3984 Q142.7429,24.3984 143.1238,24.4863 Q143.5046,24.5742 143.8367,24.75 L143.8367,26.3515 Q143.4656,26.0097 143.1164,25.851 Q142.7673,25.6923 142.3962,25.6923 Q141.6052,25.6923 141.2024,26.3198 Q140.7995,26.9472 140.7995,28.1826 Q140.7995,29.413 141.2024,30.0405 Q141.6052,30.6679 142.3962,30.6679 Q142.7673,30.6679 143.1164,30.5092 Q143.4656,30.3505 143.8367,30.0087 Z " fill="#FFFFFF"/><text fill="#EEEEEE" font-family="'Verdana'" font-size="9.1667" lengthAdjust="spacing" textLength="38.2467" x="157.3083" y="31.7159">instance</text><line style="stroke:#304D6D;stroke-width:0.8333;" x1="131.475" x2="201.3883" y1="41.9739" y2="41.9739"/><text fill="#EEEEEE" font-family="'Verdana'" font-size="9.1667" lengthAdjust="spacing" textLength="25.6828" x="139.8083" y="58.6898">name</text><text fill="#EEEEEE" font-family="'Verdana'" font-size="9.1667" lengthAdjust="spacing" textLength="28.1087" x="139.8083" y="78.1637">image</text><text fill="#EEEEEE" font-family="'Verdana'" font-size="9.1667" lengthAdjust="spacing" textLength="32.2579" x="139.8083" y="97.6375">[]traits</text><line style="stroke:#304D6D;stroke-width:0.8333;" x1="131.475" x2="201.3883" y1="107.0622" y2="107.0622"/></g><!--class component--><g class="entity" data-entity="component" data-source-line="3" data-uid="ent0003" id="entity_component"><rect fill="url(#g1a9omxqzwgojk0)" height="60.6144" rx="3.3333" ry="3.3333" style="stroke:#304D6D;stroke-width:0.8333;" width="84.5378" x="14.1667" y="163.7333"/><rect fill="url(#g1a9omxqzwgojk1)" height="27.8072" rx="3.3333" ry="3.3333" style="stroke:url(#g1a9omxqzwgojk1);stroke-width:0.8333;" width="84.5378" x="14.1667" y="163.7333"/><rect fill="url(#g1a9omxqzwgojk1)" height="3.3333" style="stroke:url(#g1a9omxqzwgojk1);stroke-width:0.8333;" width="84.5378" x="14.1667" y="188.2072"/><rect fill="none" height="60.6144" rx="3.3333" ry="3.3333" style="stroke:#304D6D;stroke-width:0.8333;" width="84.5378" x="14.1667" y="163.7333"/><ellipse cx="25.8333" cy="177.6369" fill="#B8B8B8" rx="8.3333" ry="8.3333" style="stroke:#6B6B6B;stroke-width:0.8333;"/><path d="M27.3617,181.177 Q27.0199,181.3528 26.6439,181.4406 Q26.2679,181.5285 25.8529,181.5285 Q24.3783,181.5285 23.6019,180.5569 Q22.8255,179.5852 22.8255,177.7492 Q22.8255,175.9084 23.6019,174.9367 Q24.3783,173.9651 25.8529,173.9651 Q26.2679,173.9651 26.6488,174.053 Q27.0296,174.1408 27.3617,174.3166 L27.3617,175.9182 Q26.9906,175.5764 26.6414,175.4177 Q26.2923,175.259 25.9212,175.259 Q25.1302,175.259 24.7274,175.8865 Q24.3245,176.5139 24.3245,177.7492 Q24.3245,178.9797 24.7274,179.6072 Q25.1302,180.2346 25.9212,180.2346 Q26.2923,180.2346 26.6414,180.0759 Q26.9906,179.9172 27.3617,179.5754 Z " fill="#FFFFFF"/><text fill="#EEEEEE" font-family="'Verdana'" font-size="9.1667" lengthAdjust="spacing" textLength="51.2044" x="40.8333" y="181.2826">component</text><line style="stroke:#304D6D;stroke-width:0.8333;" x1="15" x2="97.8711" y1="191.5405" y2="191.5405"/><text fill="#EEEEEE" font-family="'Verdana'" font-size="9.1667" lengthAdjust="spacing" textLength="35.1717" x="23.3333" y="208.2564">replicas</text><line style="stroke:#304D6D;stroke-width:0.8333;" x1="15" x2="97.8711" y1="217.6811" y2="217.6811"/></g><!--class capability--><g class="entity" data-entity="capability" data-source-line="4" data-uid="ent0005" id="entity_capability"><rect fill="url(#g1a9omxqzwgojk0)" height="41.1405" rx="3.3333" ry="3.3333" style="stroke:#304D6D;stroke-width:0.8333;" width="77.1257" x="127.875" y="173.4667"/><rect fill="url(#g1a9omxqzwgojk1)" height="27.8072" rx="3.3333" ry="3.3333" style="stroke:url(#g1a9omxqzwgojk1);stroke-width:0.8333;" width="77.1257" x="127.875" y="173.4667"/><rect fill="url(#g1a9omxqzwgojk1)" height="3.3333" style="stroke:url(#g1a9omxqzwgojk1);stroke-width:0.8333;" width="77.1257" x="127.875" y="197.9405"/><rect fill="none" height="41.1405" rx="3.3333" ry="3.3333" style="stroke:#304D6D;stroke-width:0.8333;" width="77.1257" x="127.875" y="173.4667"/><ellipse cx="139.5417" cy="187.3703" fill="#B8B8B8" rx="8.3333" ry="8.3333" style="stroke:#6B6B6B;stroke-width:0.8333;"/><path d="M141.07,190.9103 Q140.7282,191.0861 140.3522,191.174 Q139.9762,191.2619 139.5612,191.2619 Q138.0866,191.2619 137.3102,190.2902 Q136.5339,189.3185 136.5339,187.4826 Q136.5339,185.6418 137.3102,184.6701 Q138.0866,183.6984 139.5612,183.6984 Q139.9762,183.6984 140.3571,183.7863 Q140.738,183.8742 141.07,184.05 L141.07,185.6515 Q140.6989,185.3097 140.3498,185.151 Q140.0007,184.9923 139.6296,184.9923 Q138.8385,184.9923 138.4357,185.6198 Q138.0329,186.2472 138.0329,187.4826 Q138.0329,188.713 138.4357,189.3405 Q138.8385,189.9679 139.6296,189.9679 Q140.0007,189.9679 140.3498,189.8092 Q140.6989,189.6505 141.07,189.3087 Z " fill="#FFFFFF"/><text fill="#EEEEEE" font-family="'Verdana'" font-size="9.1667" lengthAdjust="spacing" textLength="43.7923" x="154.5417" y="191.0159">capability</text><line style="stroke:#304D6D;stroke-width:0.8333;" x1="128.7083" x2="204.1673" y1="201.2739" y2="201.2739"/><line style="stroke:#304D6D;stroke-width:0.8333;" x1="128.7083" x2="204.1673" y1="207.9405" y2="207.9405"/></g><!--class trait--><g class="entity" data-entity="trait" data-source-line="5" data-uid="ent0007" id="entity_trait"><rect fill="url(#g1a9omxqzwgojk0)" height="60.6144" rx="3.3333" ry="3.3333" style="stroke:#304D6D;stroke-width:0.8333;" width="52.4902" x="234.3583" y="163.7333"/><rect fill="url(#g1a9omxqzwgojk1)" height="27.8072" rx="3.3333" ry="3.3333" style="stroke:url(#g1a9omxqzwgojk1);stroke-width:0.8333;" width="52.4902" x="234.3583" y="163.7333"/><rect fill="url(#g1a9omxqzwgojk1)" height="3.3333" style="stroke:url(#g1a9omxqzwgojk1);stroke-width:0.8333;" width="52.4902" x="234.3583" y="188.2072"/><rect fill="none" height="60.6144" rx="3.3333" ry="3.3333" style="stroke:#304D6D;stroke-width:0.8333;" width="52.4902" x="234.3583" y="163.7333"/><ellipse cx="246.025" cy="177.6369" fill="#B8B8B8" rx="8.3333" ry="8.3333" style="stroke:#6B6B6B;stroke-width:0.8333;"/><path d="M247.5533,181.177 Q247.2115,181.3528 246.8355,181.4406 Q246.4596,181.5285 246.0445,181.5285 Q244.5699,181.5285 243.7936,180.5569 Q243.0172,179.5852 243.0172,177.7492 Q243.0172,175.9084 243.7936,174.9367 Q244.5699,173.9651 246.0445,173.9651 Q246.4596,173.9651 246.8404,174.053 Q247.2213,174.1408 247.5533,174.3166 L247.5533,175.9182 Q247.1822,175.5764 246.8331,175.4177 Q246.484,175.259 246.1129,175.259 Q245.3219,175.259 244.919,175.8865 Q244.5162,176.5139 244.5162,177.7492 Q244.5162,178.9797 244.919,179.6072 Q245.3219,180.2346 246.1129,180.2346 Q246.484,180.2346 246.8331,180.0759 Q247.1822,179.9172 247.5533,179.5754 Z " fill="#FFFFFF"/><text fill="#EEEEEE" font-family="'Verdana'" font-size="9.1667" lengthAdjust="spacing" textLength="19.1569" x="261.025" y="181.2826">trait</text><line style="stroke:#304D6D;stroke-width:0.8333;" x1="235.1917" x2="286.0152" y1="191.5405" y2="191.5405"/><text fill="#EEEEEE" font-family="'Verdana'" font-size="9.1667" lengthAdjust="spacing" textLength="20.2087" x="243.525" y="208.2564">type</text><line style="stroke:#304D6D;stroke-width:0.8333;" x1="235.1917" x2="286.0152" y1="217.6811" y2="217.6811"/></g><!--class spreadscaler--><g class="entity" data-entity="spreadscaler" data-source-line="6" data-uid="ent0009" id="entity_spreadscaler"><rect fill="url(#g1a9omxqzwgojk0)" height="80.0883" rx="3.3333" ry="3.3333" style="stroke:#304D6D;stroke-width:0.8333;" width="91.3546" x="156.5917" y="303.5583"/><rect fill="url(#g1a9omxqzwgojk1)" height="27.8072" rx="3.3333" ry="3.3333" style="stroke:url(#g1a9omxqzwgojk1);stroke-width:0.8333;" width="91.3546" x="156.5917" y="303.5583"/><rect fill="url(#g1a9omxqzwgojk1)" height="3.3333" style="stroke:url(#g1a9omxqzwgojk1);stroke-width:0.8333;" width="91.3546" x="156.5917" y="328.0322"/><rect fill="none" height="80.0883" rx="3.3333" ry="3.3333" style="stroke:#304D6D;stroke-width:0.8333;" width="91.3546" x="156.5917" y="303.5583"/><ellipse cx="168.2583" cy="317.4619" fill="#B8B8B8" rx="8.3333" ry="8.3333" style="stroke:#6B6B6B;stroke-width:0.8333;"/><path d="M169.7867,321.002 Q169.4449,321.1778 169.0689,321.2656 Q168.6929,321.3535 168.2779,321.3535 Q166.8033,321.3535 166.0269,320.3819 Q165.2505,319.4102 165.2505,317.5742 Q165.2505,315.7334 166.0269,314.7617 Q166.8033,313.7901 168.2779,313.7901 Q168.6929,313.7901 169.0738,313.878 Q169.4546,313.9658 169.7867,314.1416 L169.7867,315.7432 Q169.4156,315.4014 169.0664,315.2427 Q168.7173,315.084 168.3462,315.084 Q167.5552,315.084 167.1524,315.7115 Q166.7495,316.3389 166.7495,317.5742 Q166.7495,318.8047 167.1524,319.4322 Q167.5552,320.0596 168.3462,320.0596 Q168.7173,320.0596 169.0664,319.9009 Q169.4156,319.7422 169.7867,319.4004 Z " fill="#FFFFFF"/><text fill="#EEEEEE" font-family="'Verdana'" font-size="9.1667" lengthAdjust="spacing" textLength="58.0212" x="183.2583" y="321.1076">spreadscaler</text><line style="stroke:#304D6D;stroke-width:0.8333;" x1="157.425" x2="247.1129" y1="331.3655" y2="331.3655"/><text fill="#EEEEEE" font-family="'Verdana'" font-size="9.1667" lengthAdjust="spacing" textLength="43.0225" x="165.7583" y="348.0814">instances</text><text fill="#EEEEEE" font-family="'Verdana'" font-size="9.1667" lengthAdjust="spacing" textLength="54.9597" x="165.7583" y="367.5553">[]properties</text><line style="stroke:#304D6D;stroke-width:0.8333;" x1="157.425" x2="247.1129" y1="376.98" y2="376.98"/></g><!--class link--><g class="entity" data-entity="link" data-source-line="7" data-uid="ent0011" id="entity_link"><rect fill="url(#g1a9omxqzwgojk0)" height="138.5099" rx="3.3333" ry="3.3333" style="stroke:#304D6D;stroke-width:0.8333;" width="82.039" x="277.0833" y="274.3417"/><rect fill="url(#g1a9omxqzwgojk1)" height="27.8072" rx="3.3333" ry="3.3333" style="stroke:url(#g1a9omxqzwgojk1);stroke-width:0.8333;" width="82.039" x="277.0833" y="274.3417"/><rect fill="url(#g1a9omxqzwgojk1)" height="3.3333" style="stroke:url(#g1a9omxqzwgojk1);stroke-width:0.8333;" width="82.039" x="277.0833" y="298.8155"/><rect fill="none" height="138.5099" rx="3.3333" ry="3.3333" style="stroke:#304D6D;stroke-width:0.8333;" width="82.039" x="277.0833" y="274.3417"/><ellipse cx="303.3521" cy="288.2453" fill="#B8B8B8" rx="8.3333" ry="8.3333" style="stroke:#6B6B6B;stroke-width:0.8333;"/><path d="M304.8804,291.7853 Q304.5386,291.9611 304.1627,292.049 Q303.7867,292.1369 303.3716,292.1369 Q301.897,292.1369 301.1207,291.1652 Q300.3443,290.1935 300.3443,288.3576 Q300.3443,286.5168 301.1207,285.5451 Q301.897,284.5734 303.3716,284.5734 Q303.7867,284.5734 304.1675,284.6613 Q304.5484,284.7492 304.8804,284.925 L304.8804,286.5265 Q304.5093,286.1847 304.1602,286.026 Q303.8111,285.8673 303.44,285.8673 Q302.649,285.8673 302.2462,286.4948 Q301.8433,287.1222 301.8433,288.3576 Q301.8433,289.588 302.2462,290.2155 Q302.649,290.8429 303.44,290.8429 Q303.8111,290.8429 304.1602,290.6842 Q304.5093,290.5255 304.8804,290.1837 Z " fill="#FFFFFF"/><text fill="#EEEEEE" font-family="'Verdana'" font-size="9.1667" lengthAdjust="spacing" textLength="16.2565" x="321.597" y="291.8909">link</text><line style="stroke:#304D6D;stroke-width:0.8333;" x1="277.9167" x2="358.289" y1="302.1489" y2="302.1489"/><text fill="#EEEEEE" font-family="'Verdana'" font-size="9.1667" lengthAdjust="spacing" textLength="27.8133" x="286.25" y="318.8648">target</text><text fill="#EEEEEE" font-family="'Verdana'" font-size="9.1667" lengthAdjust="spacing" textLength="51.9116" x="286.25" y="338.3387">namespace</text><text fill="#EEEEEE" font-family="'Verdana'" font-size="9.1667" lengthAdjust="spacing" textLength="53.3663" x="286.25" y="357.8125">[]interfaces</text><text fill="#EEEEEE" font-family="'Verdana'" font-size="9.1667" lengthAdjust="spacing" textLength="61.2305" x="286.25" y="377.2864">target_config</text><text fill="#EEEEEE" font-family="'Verdana'" font-size="9.1667" lengthAdjust="spacing" textLength="63.7056" x="286.25" y="396.7603">source_config</text><line style="stroke:#304D6D;stroke-width:0.8333;" x1="277.9167" x2="358.289" y1="406.1849" y2="406.1849"/></g><!--class spread--><g class="entity" data-entity="spread" data-source-line="8" data-uid="ent0013" id="entity_spread"><rect fill="url(#g1a9omxqzwgojk0)" height="99.5622" rx="3.3333" ry="3.3333" style="stroke:#304D6D;stroke-width:0.8333;" width="64.4096" x="170.0667" y="462.8583"/><rect fill="url(#g1a9omxqzwgojk1)" height="27.8072" rx="3.3333" ry="3.3333" style="stroke:url(#g1a9omxqzwgojk1);stroke-width:0.8333;" width="64.4096" x="170.0667" y="462.8583"/><rect fill="url(#g1a9omxqzwgojk1)" height="3.3333" style="stroke:url(#g1a9omxqzwgojk1);stroke-width:0.8333;" width="64.4096" x="170.0667" y="487.3322"/><rect fill="none" height="99.5622" rx="3.3333" ry="3.3333" style="stroke:#304D6D;stroke-width:0.8333;" width="64.4096" x="170.0667" y="462.8583"/><ellipse cx="181.7333" cy="476.7619" fill="#B8B8B8" rx="8.3333" ry="8.3333" style="stroke:#6B6B6B;stroke-width:0.8333;"/><path d="M183.2617,480.302 Q182.9199,480.4778 182.5439,480.5656 Q182.1679,480.6535 181.7529,480.6535 Q180.2783,480.6535 179.5019,479.6819 Q178.7255,478.7102 178.7255,476.8742 Q178.7255,475.0334 179.5019,474.0617 Q180.2783,473.0901 181.7529,473.0901 Q182.1679,473.0901 182.5488,473.178 Q182.9296,473.2658 183.2617,473.4416 L183.2617,475.0432 Q182.8906,474.7014 182.5414,474.5427 Q182.1923,474.384 181.8212,474.384 Q181.0302,474.384 180.6274,475.0115 Q180.2245,475.6389 180.2245,476.8742 Q180.2245,478.1047 180.6274,478.7322 Q181.0302,479.3596 181.8212,479.3596 Q182.1923,479.3596 182.5414,479.2009 Q182.8906,479.0422 183.2617,478.7004 Z " fill="#FFFFFF"/><text fill="#EEEEEE" font-family="'Verdana'" font-size="9.1667" lengthAdjust="spacing" textLength="31.0763" x="196.7333" y="480.4076">spread</text><line style="stroke:#304D6D;stroke-width:0.8333;" x1="170.9" x2="233.6429" y1="490.6655" y2="490.6655"/><text fill="#EEEEEE" font-family="'Verdana'" font-size="9.1667" lengthAdjust="spacing" textLength="25.6828" x="179.2333" y="507.3814">name</text><text fill="#EEEEEE" font-family="'Verdana'" font-size="9.1667" lengthAdjust="spacing" textLength="30.6018" x="179.2333" y="526.8553">weight</text><text fill="#EEEEEE" font-family="'Verdana'" font-size="9.1667" lengthAdjust="spacing" textLength="21.641" x="179.2333" y="546.3292">zone</text><line style="stroke:#304D6D;stroke-width:0.8333;" x1="170.9" x2="233.6429" y1="555.7538" y2="555.7538"/></g><!--reverse link instance to component--><g class="link" data-entity-1="instance" data-entity-2="component" data-source-line="3" data-uid="lnk4" id="link_instance_component"><path codeLine="3" d="M120.659,118.2258 C104.7423,136.8091 96.1667,146.8167 81.7333,163.6667" fill="none" id="instance-backto-component" style="stroke:#446E9B;stroke-width:2.5;"/><polygon fill="none" points="130.4167,106.8333,116.8615,114.9732,124.4565,121.4783,130.4167,106.8333" style="stroke:#446E9B;stroke-width:2.5;"/></g><!--reverse link instance to capability--><g class="link" data-entity-1="instance" data-entity-2="capability" data-source-line="4" data-uid="lnk6" id="link_instance_capability"><path codeLine="4" d="M166.4333,129.0667 C166.4333,149.7167 166.4333,157.5583 166.4333,173.3667" fill="none" id="instance-backto-capability" style="stroke:#446E9B;stroke-width:2.5;"/><polygon fill="none" points="166.4333,114.0667,161.4333,129.0667,171.4333,129.0667,166.4333,114.0667" style="stroke:#446E9B;stroke-width:2.5;"/></g><!--reverse link instance to trait--><g class="link" data-entity-1="instance" data-entity-2="trait" data-source-line="5" data-uid="lnk8" id="link_instance_trait"><path codeLine="5" d="M208.489,122.1305 C220.7307,138.8221 228.1,148.875 238.8667,163.5583" fill="none" id="instance-backto-trait" style="stroke:#446E9B;stroke-width:2.5;"/><polygon fill="#446E9B" points="202.575,114.0667,202.8441,120.0699,208.489,122.1305,208.2199,116.1272,202.575,114.0667" style="stroke:#446E9B;stroke-width:2.5;"/></g><!--reverse link trait to spreadscaler--><g class="link" data-entity-1="trait" data-entity-2="spreadscaler" data-source-line="6" data-uid="lnk10" id="link_trait_spreadscaler"><path codeLine="6" d="M243.4348,238.3942 C234.5181,260.9859 227.6583,278.3917 217.8917,303.15" fill="none" id="trait-backto-spreadscaler" style="stroke:#446E9B;stroke-width:2.5;"/><polygon fill="none" points="248.9417,224.4417,238.7839,236.5586,248.0856,240.2299,248.9417,224.4417" style="stroke:#446E9B;stroke-width:2.5;"/></g><!--reverse link trait to link--><g class="link" data-entity-1="trait" data-entity-2="link" data-source-line="7" data-uid="lnk12" id="link_trait_link"><path codeLine="7" d="M277.5375,238.4214 C283.1125,252.7548 284.6167,256.6333 291.4083,274.1" fill="none" id="trait-backto-link" style="stroke:#446E9B;stroke-width:2.5;"/><polygon fill="none" points="272.1,224.4417,272.8776,240.2339,282.1974,236.6089,272.1,224.4417" style="stroke:#446E9B;stroke-width:2.5;"/></g><!--reverse link spreadscaler to spread--><g class="link" data-entity-1="spreadscaler" data-entity-2="spread" data-source-line="8" data-uid="lnk14" id="link_spreadscaler_spread"><path codeLine="8" d="M202.2667,393.8833 C202.2667,417.4667 202.2667,437.625 202.2667,462.7333" fill="none" id="spreadscaler-backto-spread" style="stroke:#446E9B;stroke-width:2.5;"/><polygon fill="#446E9B" points="202.2667,383.8833,198.9333,388.8833,202.2667,393.8833,205.6,388.8833,202.2667,383.8833" style="stroke:#446E9B;stroke-width:2.5;"/></g><!--SRC=[PP3B2i8m44Nt-Ogu5HINKloJKcICqpgO9c4o8XK_tZJsgPl0FJTpvx6H6xQeOm235Yug6h2e3_kZ8XS5d45zUkzsslWsU8TEVZa4k90bwMPZcxWmaAZyVZ_6m0ZN7CzBRidTrTBCvLymHnRQGOjBJIqqAr1MEJKEuOMMBk2GFDPFwedKt6JMhxIRcdPCW35OCX3NewMsGyC_ewm2-u0ibBn-gNu2u0PbLFq4-SuZA2joWbo3-Iqv6-zgQaOO_OCD3l03]--></g></svg>